<?xml version="1.0" encoding="utf-8"?>
<!-- Generator: Adobe Illustrator 15.0.0, SVG Export Plug-In . SVG Version: 6.00 Build 0)  -->
<!DOCTYPE svg PUBLIC "-//W3C//DTD SVG 1.1//EN" "http://www.w3.org/Graphics/SVG/1.1/DTD/svg11.dtd">
<svg version="1.1" id="Layer_1" xmlns="http://www.w3.org/2000/svg" xmlns:xlink="http://www.w3.org/1999/xlink" x="0px" y="0px"
	 width="300px" height="50px" viewBox="0 0 300 50" enable-background="new 0 0 300 50" xml:space="preserve">
<g>
	<g>
		<path fill-rule="evenodd" clip-rule="evenodd" fill="#E2791D" d="M0.278,26.265c0-0.156,0-0.312,0-0.469
			c6.526-0.585,0.744-3.704,3.796-5.004c0.498,0.992-1.001,2.396,0.759,3.127c1.979-2.198-0.546-5.324,1.519-7.505
			c0.225,1.111-0.294,2.784,0,4.065c0.148,0.648,0.824,2.32,1.519,2.033c0.488-0.629-0.988-1.663,0.759-2.033
			c-0.065,0.223-0.125,0.443,0.759,0.469c-0.082-2.049,0.141-4.036,1.519-5.785c0.073,2.226-0.493,4.584,1.519,6.411
			c-0.065-0.223-0.125-0.443,0.759-0.469c0.231,0.758,1.229,5.136,1.519,2.814c0.24-1.929-0.98-5.091,1.519-6.723
			c1.038,2.122,1.315,5.082,2.278,7.975c0.369,1.105,0.638,0.784,0.759-0.626c0.719-1.624-1.61-3.875,1.519-5.003
			c0.095,1.038,1.247-0.171,2.278-0.312c0,0.753,0,2.041,0,3.127c0,0.923-0.606,2.617,0.759,2.345c0-0.157,0-0.313,0-0.469
			c3.523-1.411,1.339-3.998,3.796-5.629c0.585,0.696-1.409,3.119,1.519,2.346c0.485,0.578-0.983,1.557,0.759,1.876
			c2.521-1.514,0.354-3.992,3.037-5.472c-0.707,2.59,3.277,3.576,2.278,6.411c3.982-0.848-0.454-3.429,2.278-4.534
			c0.379,0.656-0.837,2.459,0.759,2.345c0.463-0.374-0.954-1.135,0.759-1.251c2.758,0.477,0.435,2.825,2.278,2.971
			c0.463-0.374-0.954-1.135,0.759-1.25c0.415,0.227-0.887,0.808,0.759,0.781c2.041-0.935-0.585-2.831,1.519-3.752
			c0.595,1.128,0.17,2.466,2.278,3.283c0.488-0.63-0.988-1.663,0.759-2.033c-0.104,1.274-0.087,3.351,1.519,3.752
			c0.529-0.621-1.324-1.732,1.519-1.876c0.415,0.227-0.887,0.808,0.759,0.782c0.502-1.46-1.007-3.335,0.759-4.535
			c0.048,1.763,0.367,4.301,1.519,5.316c0.452-0.324-0.938-1.027,0.759-1.095c1.548,0.944,2.146-0.745,3.037-0.625
			c1.43,0.192-2.122,2.025,0.759,0.781c0.463-0.374-0.953-1.134,0.759-1.25c0.437,0.275-0.918,0.918,0.759,0.938
			c0.157-0.645,1.527-0.275,2.278-0.938c0.492,0.732-0.993,1.872,0.759,2.345c0.012-0.415-0.421-0.921,1.519-0.938
			c0.024,0.678,1.685,1.834,2.278,1.876c0.47-0.425-0.964-1.24,0.759-1.407c-0.065,0.222-0.125,0.443,0.759,0.469
			c0.462-0.374-0.953-1.135,0.759-1.251c0.489,0.682-0.991,1.768,0.759,2.189c0.152-0.855,1.507-1.461,2.278-2.189
			c1.426,0.035,0.092,1.421,1.519,0.938c-0.393-1.757,0.655-0.705,2.277-1.563c0.472,0.58-1.234,1.609,1.519,1.72
			c0.437-0.275-0.918-0.919,0.759-0.938c-0.082,1.291,0.22,1.353,1.519,0.312c0.063,0.248-0.365,0.597,0.759,0.626
			c1.099-0.583,1.013-0.396,2.278,0c0.922-0.28,0.139-0.91,1.519-1.095c0.33,0.513-0.768,2.13,0.759,1.876
			c0.452-0.324-0.938-1.026,0.759-1.094c-0.1,0.206-0.115,1.131,0.759,0.625c0.236-0.473-0.843-1.216,1.519-1.251
			c1.819-0.062-0.421,0.712,2.278,0.469c1.583-0.404-0.269-1.515,1.519-1.876c-0.564,1.391,1.392,1.292,2.278,2.346
			c-0.529-0.704,1.561-0.417,2.277-0.157c0.48-0.526-0.978-1.452,0.759-1.72c0,0.886,0,1.772,0,2.658
			c2.244-0.372-0.725-1.817,1.519-2.188c0.063,0.248-0.365,0.597,0.759,0.625c0.498-0.992-1.001-2.396,0.759-3.127
			c0.782,0.985-1.702,2.644,1.519,3.127c0.063-0.248-0.365-0.597,0.759-0.625c0.415,0.227-0.888,0.808,0.759,0.781
			c0.416-0.227-0.888-0.807,0.759-0.781c-0.157,0.627,0.193,0.699,1.519,0.312c0.027,0.568-0.426,1.235,1.519,1.408
			c0.47-0.424-0.964-1.241,0.759-1.408c0.053,0.615,0.367,1.175,1.519,1.564c0,1.459,0,2.918,0,4.377
			c-2.634-0.073-0.436,0.85-2.278,0.938c-0.09-0.261,0.415-1.416-0.759-0.938c-0.47,0.425,0.964,1.241-0.759,1.408
			c2.194-0.689-2.545-1.098-1.519-0.47c-0.541-0.331,1.007-1.411-0.759-1.407c-0.484,0.578,0.983,1.558-0.759,1.877
			c-0.063-0.508-0.392-0.963-1.519-1.251c-0.012,0.414,0.421,0.92-1.519,0.938c-0.503-0.425-0.478-1.768-1.519-1.563
			c-0.471,0.581,1.235,1.609-1.519,1.721c0.118-0.599-0.039-1.139-1.519-1.408c0.121,1.31-1.646,1.398-2.277,2.658
			c0.082-1.215-0.173-2.361-1.519-3.283c0.157,0.449-0.193,0.794-1.519,0.938c-1.637-0.132,0.285-0.997-1.519-1.095
			c-1.333,0.56,0.118,1.691-1.519,2.189c-0.788-0.822-1.515-1.392-3.037-2.346c0.41,0.767-0.914,1.663-2.278,0.781
			c0.519,0.78-1.366,0.883-3.037,0.47c-0.484,0.577,0.983,1.557-0.759,1.876c-1.137-1.344-0.887-2.198-3.037-3.127
			c-1.413,1.376-0.907,3.148-2.277,4.534c0-0.99,0-1.98,0-2.971c-3.349-0.221-0.013,0.936-2.278,0.938
			c0.026-0.684,0.28-1.413-1.519-1.721c-1.602,0.332-1.047,1.127-2.278,1.876c0.038-0.789-0.296-1.502-1.519-2.032
			c-2.109,0.557,0.63,2.11-1.519,2.658c-0.887-0.808,1.852-2.362-1.519-2.658c-1.449,0.634-0.948,0.267-2.278-0.156
			c0.5,1.008-0.546,1.597-2.278,0.625c0.41,0.767-0.914,1.663-2.278,0.782c-0.814,0.614-0.165,1.53-1.519,2.032
			c0.333-0.537-0.299-0.876-0.759-1.251c0-0.469,0-0.938,0-1.406c0.44-0.318-0.517-1.232-0.759-0.47
			c1.166,0.54-0.704,2.305-1.519,2.189c-1.421-0.201,1.08-3.089-0.759-1.563c-0.495,0.836,0.997,2.081-0.759,2.658
			c-1.333-0.56,0.118-1.692-1.519-2.189c-1.126,0.498-0.004,1.458-1.519,1.876c0.025-0.641,0.229-3.729-0.759-2.188
			c-1.402,0.806-0.252,2.137-2.278,2.814c-0.09-0.261,0.415-1.416-0.759-0.938c-0.452,0.324,0.938,1.027-0.759,1.095
			C40.2,31.334,41.496,30.285,39,30.018c0.133,0.501-1.519,2.962-1.519,0.938c0-0.536-0.07-2.853-0.759-0.782
			c-0.288,0.866,1.499,2.181-1.519,3.44c-0.033-0.675,0.424-1.938-1.519-0.938c-0.138-1.761,0.123-2.563-0.759-4.065
			c-0.807-1.374-1.731,2.302-2.278,3.127c-0.381,0.577,1.374,1.389-1.518,1.721c-2.665-2.438,0.583-4.611-1.519-6.88
			c-0.463-0.499-0.133,1.926-0.759,3.44c-0.769,1.855-2.551,3.181-3.037,5.159c-0.982-2.353-0.067-5.095-1.519-7.349
			c-1.613,0.711,0.296,2.146-1.519,2.814c-0.437-0.274,0.918-0.919-0.759-0.938c-2.218,1.523,1.318,4.232-2.278,5.473
			c-0.504-2.346,1.01-5.107-0.759-7.192c-0.502,1.078-0.318-0.199-1.519-0.312c-0.415,2.625,0.506,5.523-2.278,7.661
			c-0.469-1.521,0.962-4.261-0.759-5.003c-0.476,0.475,0.972,1.347-0.759,1.563c0.44-0.508-0.518-0.728-0.759-1.095
			c0-0.417,0-0.834,0-1.251c0-0.209,0-0.417,0-0.625c-1.697,1.11-0.526,4.164-2.277,5.784c-0.688-0.796,1.566-2.197-1.519-2.501
			c-0.452,0.323,0.938,1.026-0.759,1.095c-0.44-1.857,0.618-3.172,0-4.378c-0.908-1.771-0.233,2.404-1.519,2.813
			c-0.499-1.096,1.002-2.604-0.759-3.439C0.464,28.723,4.79,26.173,0.278,26.265z"/>
	</g>
	<g>
		<path fill-rule="evenodd" clip-rule="evenodd" fill="#E2791D" d="M61.019,26.265c0-0.156,0-0.312,0-0.469
			c6.526-0.585,0.745-3.704,3.796-5.004c0.498,0.992-1.001,2.396,0.759,3.127c1.979-2.198-0.546-5.324,1.519-7.505
			c0.225,1.111-0.294,2.784,0,4.065c0.148,0.648,0.824,2.32,1.519,2.033c0.488-0.629-0.988-1.663,0.759-2.033
			c-0.065,0.223-0.125,0.443,0.759,0.469c-0.082-2.049,0.141-4.036,1.519-5.785c0.072,2.226-0.493,4.584,1.519,6.411
			c-0.065-0.223-0.125-0.443,0.759-0.469c0.231,0.758,1.229,5.136,1.519,2.814c0.24-1.929-0.98-5.091,1.519-6.723
			c1.038,2.122,1.315,5.082,2.278,7.975c0.369,1.105,0.638,0.784,0.759-0.626c0.719-1.624-1.61-3.875,1.519-5.003
			c0.095,1.038,1.247-0.171,2.278-0.312c0,0.753,0,2.041,0,3.127c0,0.923-0.606,2.617,0.759,2.345c0-0.157,0-0.313,0-0.469
			c3.523-1.411,1.339-3.998,3.796-5.629c0.585,0.696-1.409,3.119,1.519,2.346c0.485,0.578-0.983,1.557,0.759,1.876
			c2.521-1.514,0.354-3.992,3.037-5.472c-0.708,2.59,3.277,3.576,2.277,6.411c3.982-0.848-0.454-3.429,2.278-4.534
			c0.379,0.656-0.837,2.459,0.759,2.345c0.463-0.374-0.953-1.135,0.759-1.251c2.758,0.477,0.435,2.825,2.278,2.971
			c0.463-0.374-0.954-1.135,0.759-1.25c0.416,0.227-0.887,0.808,0.759,0.781c2.041-0.935-0.585-2.831,1.519-3.752
			c0.595,1.128,0.17,2.466,2.278,3.283c0.488-0.63-0.988-1.663,0.759-2.033c-0.104,1.274-0.087,3.351,1.519,3.752
			c0.529-0.621-1.324-1.732,1.519-1.876c0.415,0.227-0.887,0.808,0.759,0.782c0.502-1.46-1.007-3.335,0.759-4.535
			c0.047,1.763,0.366,4.301,1.519,5.316c0.451-0.324-0.939-1.027,0.759-1.095c1.547,0.944,2.146-0.745,3.037-0.625
			c1.431,0.192-2.122,2.025,0.759,0.781c0.463-0.374-0.953-1.134,0.759-1.25c0.437,0.275-0.918,0.918,0.759,0.938
			c0.157-0.645,1.527-0.275,2.278-0.938c0.492,0.732-0.993,1.872,0.759,2.345c0.012-0.415-0.421-0.921,1.519-0.938
			c0.024,0.678,1.685,1.834,2.278,1.876c0.47-0.425-0.964-1.24,0.759-1.407c-0.065,0.222-0.125,0.443,0.759,0.469
			c0.463-0.374-0.953-1.135,0.759-1.251c0.489,0.682-0.991,1.768,0.759,2.189c0.152-0.855,1.507-1.461,2.278-2.189
			c1.426,0.035,0.092,1.421,1.519,0.938c-0.393-1.757,0.655-0.705,2.278-1.563c0.471,0.58-1.235,1.609,1.519,1.72
			c0.437-0.275-0.918-0.919,0.759-0.938c-0.082,1.291,0.22,1.353,1.519,0.312c0.063,0.248-0.365,0.597,0.759,0.626
			c1.099-0.583,1.013-0.396,2.278,0c0.922-0.28,0.139-0.91,1.519-1.095c0.33,0.513-0.768,2.13,0.759,1.876
			c0.452-0.324-0.938-1.026,0.759-1.094c-0.1,0.206-0.115,1.131,0.759,0.625c0.236-0.473-0.843-1.216,1.519-1.251
			c1.82-0.062-0.421,0.712,2.278,0.469c1.583-0.404-0.27-1.515,1.519-1.876c-0.564,1.391,1.392,1.292,2.277,2.346
			c-0.528-0.704,1.562-0.417,2.278-0.157c0.48-0.526-0.979-1.452,0.759-1.72c0,0.886,0,1.772,0,2.658
			c2.244-0.372-0.725-1.817,1.519-2.188c0.063,0.248-0.364,0.597,0.76,0.625c0.497-0.992-1.001-2.396,0.759-3.127
			c0.781,0.985-1.701,2.644,1.519,3.127c0.063-0.248-0.364-0.597,0.76-0.625c0.415,0.227-0.888,0.808,0.759,0.781
			c0.415-0.227-0.888-0.807,0.76-0.781c-0.157,0.627,0.192,0.699,1.519,0.312c0.027,0.568-0.426,1.235,1.519,1.408
			c0.47-0.424-0.964-1.241,0.759-1.408c0.053,0.615,0.367,1.175,1.519,1.564c0,1.459,0,2.918,0,4.377
			c-2.635-0.073-0.436,0.85-2.277,0.938c-0.091-0.261,0.414-1.416-0.76-0.938c-0.47,0.425,0.964,1.241-0.759,1.408
			c2.193-0.689-2.546-1.098-1.519-0.47c-0.542-0.331,1.007-1.411-0.76-1.407c-0.484,0.578,0.983,1.558-0.759,1.877
			c-0.064-0.508-0.392-0.963-1.519-1.251c-0.012,0.414,0.421,0.92-1.519,0.938c-0.504-0.425-0.479-1.768-1.519-1.563
			c-0.472,0.581,1.234,1.609-1.519,1.721c0.118-0.599-0.039-1.139-1.519-1.408c0.121,1.31-1.646,1.398-2.278,2.658
			c0.083-1.215-0.173-2.361-1.519-3.283c0.157,0.449-0.192,0.794-1.518,0.938c-1.636-0.132,0.285-0.997-1.519-1.095
			c-1.333,0.56,0.118,1.691-1.519,2.189c-0.788-0.822-1.515-1.392-3.037-2.346c0.41,0.767-0.914,1.663-2.278,0.781
			c0.519,0.78-1.366,0.883-3.037,0.47c-0.484,0.577,0.983,1.557-0.759,1.876c-1.137-1.344-0.887-2.198-3.037-3.127
			c-1.414,1.376-0.908,3.148-2.278,4.534c0-0.99,0-1.98,0-2.971c-3.349-0.221-0.013,0.936-2.278,0.938
			c0.026-0.684,0.28-1.413-1.519-1.721c-1.602,0.332-1.047,1.127-2.278,1.876c0.038-0.789-0.296-1.502-1.519-2.032
			c-2.109,0.557,0.63,2.11-1.519,2.658c-0.887-0.808,1.852-2.362-1.519-2.658c-1.449,0.634-0.947,0.267-2.278-0.156
			c0.5,1.008-0.546,1.597-2.278,0.625c0.41,0.767-0.914,1.663-2.277,0.782c-0.814,0.614-0.165,1.53-1.519,2.032
			c0.332-0.537-0.3-0.876-0.759-1.251c0-0.469,0-0.938,0-1.406c0.44-0.318-0.518-1.232-0.759-0.47
			c1.166,0.54-0.704,2.305-1.519,2.189c-1.421-0.201,1.08-3.089-0.759-1.563c-0.495,0.836,0.997,2.081-0.759,2.658
			c-1.333-0.56,0.118-1.692-1.519-2.189c-1.126,0.498-0.004,1.458-1.519,1.876c0.025-0.641,0.229-3.729-0.759-2.188
			c-1.402,0.806-0.252,2.137-2.278,2.814c-0.09-0.261,0.416-1.416-0.759-0.938c-0.452,0.324,0.939,1.027-0.759,1.095
			c-0.319-0.716,0.978-1.765-1.519-2.032c0.134,0.501-1.519,2.962-1.519,0.938c0-0.536-0.069-2.853-0.759-0.782
			c-0.288,0.866,1.499,2.181-1.519,3.44c-0.033-0.675,0.424-1.938-1.519-0.938c-0.138-1.761,0.123-2.563-0.759-4.065
			c-0.807-1.374-1.731,2.302-2.278,3.127c-0.381,0.577,1.373,1.389-1.519,1.721c-2.665-2.438,0.583-4.611-1.519-6.88
			c-0.463-0.499-0.133,1.926-0.759,3.44c-0.768,1.855-2.551,3.181-3.037,5.159c-0.982-2.353-0.067-5.095-1.519-7.349
			c-1.613,0.711,0.296,2.146-1.519,2.814c-0.437-0.274,0.918-0.919-0.759-0.938c-2.218,1.523,1.318,4.232-2.278,5.473
			c-0.504-2.346,1.01-5.107-0.759-7.192c-0.502,1.078-0.318-0.199-1.519-0.312c-0.415,2.625,0.506,5.523-2.278,7.661
			c-0.469-1.521,0.963-4.261-0.759-5.003c-0.476,0.475,0.972,1.347-0.759,1.563c0.44-0.508-0.518-0.728-0.759-1.095
			c0-0.417,0-0.834,0-1.251c0-0.209,0-0.417,0-0.625c-1.697,1.11-0.527,4.164-2.278,5.784c-0.688-0.796,1.566-2.197-1.519-2.501
			c-0.452,0.323,0.938,1.026-0.759,1.095c-0.44-1.857,0.618-3.172,0-4.378c-0.908-1.771-0.233,2.404-1.519,2.813
			c-0.499-1.096,1.002-2.604-0.759-3.439C61.205,28.723,65.53,26.173,61.019,26.265z"/>
	</g>
	<g>
		<path fill-rule="evenodd" clip-rule="evenodd" fill="#E2791D" d="M121.759,26.265c0-0.156,0-0.312,0-0.469
			c6.526-0.585,0.745-3.704,3.796-5.004c0.498,0.992-1.001,2.396,0.759,3.127c1.98-2.198-0.546-5.324,1.519-7.505
			c0.226,1.111-0.293,2.784,0,4.065c0.148,0.648,0.825,2.32,1.519,2.033c0.488-0.629-0.988-1.663,0.759-2.033
			c-0.065,0.223-0.125,0.443,0.759,0.469c-0.082-2.049,0.141-4.036,1.519-5.785c0.073,2.226-0.493,4.584,1.519,6.411
			c-0.065-0.223-0.125-0.443,0.759-0.469c0.23,0.758,1.229,5.136,1.519,2.814c0.24-1.929-0.98-5.091,1.519-6.723
			c1.038,2.122,1.314,5.082,2.277,7.975c0.369,1.105,0.638,0.784,0.759-0.626c0.719-1.624-1.61-3.875,1.519-5.003
			c0.095,1.038,1.247-0.171,2.278-0.312c0,0.753,0,2.041,0,3.127c0,0.923-0.606,2.617,0.759,2.345c0-0.157,0-0.313,0-0.469
			c3.523-1.411,1.339-3.998,3.796-5.629c0.586,0.696-1.409,3.119,1.519,2.346c0.484,0.578-0.983,1.557,0.759,1.876
			c2.521-1.514,0.354-3.992,3.037-5.472c-0.707,2.59,3.277,3.576,2.278,6.411c3.981-0.848-0.454-3.429,2.277-4.534
			c0.379,0.656-0.837,2.459,0.76,2.345c0.463-0.374-0.954-1.135,0.759-1.251c2.759,0.477,0.435,2.825,2.278,2.971
			c0.462-0.374-0.954-1.135,0.759-1.25c0.415,0.227-0.887,0.808,0.76,0.781c2.04-0.935-0.585-2.831,1.519-3.752
			c0.595,1.128,0.169,2.466,2.277,3.283c0.488-0.63-0.987-1.663,0.76-2.033c-0.105,1.274-0.088,3.351,1.518,3.752
			c0.53-0.621-1.323-1.732,1.519-1.876c0.416,0.227-0.887,0.808,0.76,0.782c0.502-1.46-1.007-3.335,0.759-4.535
			c0.048,1.763,0.367,4.301,1.519,5.316c0.452-0.324-0.938-1.027,0.76-1.095c1.547,0.944,2.146-0.745,3.037-0.625
			c1.43,0.192-2.122,2.025,0.759,0.781c0.463-0.374-0.952-1.134,0.76-1.25c0.437,0.275-0.918,0.918,0.759,0.938
			c0.157-0.645,1.527-0.275,2.278-0.938c0.491,0.732-0.993,1.872,0.759,2.345c0.012-0.415-0.421-0.921,1.519-0.938
			c0.024,0.678,1.685,1.834,2.278,1.876c0.47-0.425-0.964-1.24,0.759-1.407c-0.065,0.222-0.125,0.443,0.76,0.469
			c0.462-0.374-0.953-1.135,0.759-1.251c0.489,0.682-0.99,1.768,0.759,2.189c0.152-0.855,1.508-1.461,2.278-2.189
			c1.427,0.035,0.092,1.421,1.519,0.938c-0.393-1.757,0.655-0.705,2.277-1.563c0.472,0.58-1.234,1.609,1.519,1.72
			c0.438-0.275-0.918-0.919,0.76-0.938c-0.082,1.291,0.22,1.353,1.519,0.312c0.062,0.248-0.365,0.597,0.759,0.626
			c1.099-0.583,1.013-0.396,2.278,0c0.921-0.28,0.139-0.91,1.519-1.095c0.33,0.513-0.768,2.13,0.759,1.876
			c0.452-0.324-0.938-1.026,0.76-1.094c-0.101,0.206-0.115,1.131,0.759,0.625c0.236-0.473-0.843-1.216,1.519-1.251
			c1.819-0.062-0.421,0.712,2.278,0.469c1.583-0.404-0.27-1.515,1.519-1.876c-0.564,1.391,1.392,1.292,2.277,2.346
			c-0.528-0.704,1.561-0.417,2.277-0.157c0.48-0.526-0.978-1.452,0.76-1.72c0,0.886,0,1.772,0,2.658
			c2.243-0.372-0.726-1.817,1.519-2.188c0.062,0.248-0.365,0.597,0.759,0.625c0.498-0.992-1.001-2.396,0.76-3.127
			c0.781,0.985-1.702,2.644,1.519,3.127c0.062-0.248-0.365-0.597,0.759-0.625c0.415,0.227-0.888,0.808,0.76,0.781
			c0.415-0.227-0.888-0.807,0.759-0.781c-0.157,0.627,0.193,0.699,1.519,0.312c0.027,0.568-0.426,1.235,1.519,1.408
			c0.47-0.424-0.964-1.241,0.76-1.408c0.053,0.615,0.366,1.175,1.519,1.564c0,1.459,0,2.918,0,4.377
			c-2.635-0.073-0.436,0.85-2.278,0.938c-0.091-0.261,0.415-1.416-0.759-0.938c-0.471,0.425,0.964,1.241-0.76,1.408
			c2.194-0.689-2.545-1.098-1.519-0.47c-0.541-0.331,1.007-1.411-0.759-1.407c-0.484,0.578,0.982,1.558-0.76,1.877
			c-0.063-0.508-0.392-0.963-1.519-1.251c-0.012,0.414,0.422,0.92-1.519,0.938c-0.503-0.425-0.478-1.768-1.519-1.563
			c-0.472,0.581,1.235,1.609-1.519,1.721c0.118-0.599-0.039-1.139-1.519-1.408c0.121,1.31-1.646,1.398-2.277,2.658
			c0.082-1.215-0.173-2.361-1.519-3.283c0.157,0.449-0.192,0.794-1.519,0.938c-1.637-0.132,0.285-0.997-1.519-1.095
			c-1.332,0.56,0.118,1.691-1.519,2.189c-0.788-0.822-1.515-1.392-3.037-2.346c0.41,0.767-0.914,1.663-2.277,0.781
			c0.519,0.78-1.366,0.883-3.037,0.47c-0.484,0.577,0.983,1.557-0.76,1.876c-1.137-1.344-0.887-2.198-3.037-3.127
			c-1.413,1.376-0.907,3.148-2.277,4.534c0-0.99,0-1.98,0-2.971c-3.349-0.221-0.013,0.936-2.278,0.938
			c0.027-0.684,0.281-1.413-1.518-1.721c-1.602,0.332-1.048,1.127-2.278,1.876c0.038-0.789-0.296-1.502-1.519-2.032
			c-2.108,0.557,0.631,2.11-1.519,2.658c-0.887-0.808,1.853-2.362-1.519-2.658c-1.448,0.634-0.947,0.267-2.277-0.156
			c0.5,1.008-0.547,1.597-2.278,0.625c0.41,0.767-0.914,1.663-2.277,0.782c-0.814,0.614-0.165,1.53-1.519,2.032
			c0.332-0.537-0.3-0.876-0.76-1.251c0-0.469,0-0.938,0-1.406c0.44-0.318-0.518-1.232-0.759-0.47
			c1.165,0.54-0.704,2.305-1.519,2.189c-1.422-0.201,1.08-3.089-0.76-1.563c-0.494,0.836,0.997,2.081-0.759,2.658
			c-1.332-0.56,0.118-1.692-1.519-2.189c-1.126,0.498-0.005,1.458-1.519,1.876c0.025-0.641,0.229-3.729-0.759-2.188
			c-1.402,0.806-0.253,2.137-2.278,2.814c-0.091-0.261,0.415-1.416-0.759-0.938c-0.452,0.324,0.938,1.027-0.76,1.095
			c-0.318-0.716,0.978-1.765-1.519-2.032c0.134,0.501-1.519,2.962-1.519,0.938c0-0.536-0.069-2.853-0.759-0.782
			c-0.288,0.866,1.498,2.181-1.519,3.44c-0.033-0.675,0.424-1.938-1.519-0.938c-0.138-1.761,0.122-2.563-0.76-4.065
			c-0.807-1.374-1.731,2.302-2.277,3.127c-0.381,0.577,1.373,1.389-1.519,1.721c-2.665-2.438,0.583-4.611-1.519-6.88
			c-0.463-0.499-0.133,1.926-0.759,3.44c-0.768,1.855-2.551,3.181-3.037,5.159c-0.981-2.353-0.067-5.095-1.519-7.349
			c-1.613,0.711,0.296,2.146-1.519,2.814c-0.437-0.274,0.918-0.919-0.759-0.938c-2.218,1.523,1.318,4.232-2.278,5.473
			c-0.504-2.346,1.01-5.107-0.759-7.192c-0.502,1.078-0.318-0.199-1.519-0.312c-0.415,2.625,0.506,5.523-2.277,7.661
			c-0.47-1.521,0.962-4.261-0.759-5.003c-0.476,0.475,0.972,1.347-0.759,1.563c0.44-0.508-0.518-0.728-0.759-1.095
			c0-0.417,0-0.834,0-1.251c0-0.209,0-0.417,0-0.625c-1.697,1.11-0.526,4.164-2.278,5.784c-0.688-0.796,1.566-2.197-1.519-2.501
			c-0.452,0.323,0.938,1.026-0.759,1.095c-0.44-1.857,0.618-3.172,0-4.378c-0.908-1.771-0.233,2.404-1.519,2.813
			c-0.499-1.096,1.002-2.604-0.759-3.439C121.945,28.723,126.271,26.173,121.759,26.265z"/>
	</g>
	<g>
		<path fill-rule="evenodd" clip-rule="evenodd" fill="#E2791D" d="M159.723,26.265c0-0.156,0-0.312,0-0.469
			c6.526-0.585,0.744-3.704,3.796-5.004c0.498,0.992-1.001,2.396,0.76,3.127c1.979-2.198-0.546-5.324,1.519-7.505
			c0.225,1.111-0.294,2.784,0,4.065c0.147,0.648,0.824,2.32,1.519,2.033c0.487-0.629-0.988-1.663,0.759-2.033
			c-0.065,0.223-0.125,0.443,0.76,0.469c-0.082-2.049,0.141-4.036,1.518-5.785c0.073,2.226-0.492,4.584,1.519,6.411
			c-0.064-0.223-0.125-0.443,0.76-0.469c0.23,0.758,1.229,5.136,1.519,2.814c0.24-1.929-0.98-5.091,1.519-6.723
			c1.038,2.122,1.314,5.082,2.277,7.975c0.369,1.105,0.638,0.784,0.76-0.626c0.719-1.624-1.61-3.875,1.519-5.003
			c0.095,1.038,1.247-0.171,2.277-0.312c0,0.753,0,2.041,0,3.127c0,0.923-0.606,2.617,0.76,2.345c0-0.157,0-0.313,0-0.469
			c3.523-1.411,1.339-3.998,3.796-5.629c0.586,0.696-1.409,3.119,1.519,2.346c0.485,0.578-0.983,1.557,0.76,1.876
			c2.521-1.514,0.354-3.992,3.036-5.472c-0.707,2.59,3.277,3.576,2.278,6.411c3.981-0.848-0.454-3.429,2.277-4.534
			c0.379,0.656-0.837,2.459,0.76,2.345c0.463-0.374-0.954-1.135,0.759-1.251c2.759,0.477,0.435,2.825,2.278,2.971
			c0.463-0.374-0.954-1.135,0.759-1.25c0.415,0.227-0.887,0.808,0.76,0.781c2.04-0.935-0.585-2.831,1.519-3.752
			c0.595,1.128,0.17,2.466,2.277,3.283c0.488-0.63-0.987-1.663,0.76-2.033c-0.104,1.274-0.088,3.351,1.519,3.752
			c0.529-0.621-1.324-1.732,1.519-1.876c0.415,0.227-0.887,0.808,0.759,0.782c0.502-1.46-1.007-3.335,0.76-4.535
			c0.047,1.763,0.366,4.301,1.519,5.316c0.451-0.324-0.939-1.027,0.759-1.095c1.548,0.944,2.146-0.745,3.037-0.625
			c1.431,0.192-2.122,2.025,0.759,0.781c0.463-0.374-0.952-1.134,0.76-1.25c0.437,0.275-0.918,0.918,0.759,0.938
			c0.157-0.645,1.527-0.275,2.278-0.938c0.491,0.732-0.993,1.872,0.759,2.345c0.012-0.415-0.421-0.921,1.519-0.938
			c0.024,0.678,1.685,1.834,2.278,1.876c0.47-0.425-0.964-1.24,0.759-1.407c-0.065,0.222-0.125,0.443,0.76,0.469
			c0.462-0.374-0.953-1.135,0.759-1.251c0.489,0.682-0.99,1.768,0.76,2.189c0.151-0.855,1.507-1.461,2.277-2.189
			c1.427,0.035,0.092,1.421,1.519,0.938c-0.393-1.757,0.655-0.705,2.277-1.563c0.472,0.58-1.234,1.609,1.519,1.72
			c0.438-0.275-0.918-0.919,0.76-0.938c-0.082,1.291,0.22,1.353,1.519,0.312c0.062,0.248-0.365,0.597,0.759,0.626
			c1.1-0.583,1.013-0.396,2.278,0c0.922-0.28,0.139-0.91,1.519-1.095c0.33,0.513-0.768,2.13,0.759,1.876
			c0.452-0.324-0.938-1.026,0.76-1.094c-0.101,0.206-0.115,1.131,0.759,0.625c0.236-0.473-0.843-1.216,1.519-1.251
			c1.819-0.062-0.421,0.712,2.278,0.469c1.583-0.404-0.27-1.515,1.519-1.876c-0.564,1.391,1.392,1.292,2.277,2.346
			c-0.528-0.704,1.561-0.417,2.277-0.157c0.48-0.526-0.978-1.452,0.76-1.72c0,0.886,0,1.772,0,2.658
			c2.244-0.372-0.726-1.817,1.519-2.188c0.062,0.248-0.365,0.597,0.759,0.625c0.498-0.992-1.001-2.396,0.76-3.127
			c0.781,0.985-1.702,2.644,1.519,3.127c0.062-0.248-0.365-0.597,0.759-0.625c0.416,0.227-0.887,0.808,0.76,0.781
			c0.415-0.227-0.888-0.807,0.759-0.781c-0.157,0.627,0.193,0.699,1.519,0.312c0.027,0.568-0.426,1.235,1.519,1.408
			c0.471-0.424-0.964-1.241,0.76-1.408c0.053,0.615,0.367,1.175,1.519,1.564c0,1.459,0,2.918,0,4.377
			c-2.635-0.073-0.436,0.85-2.278,0.938c-0.09-0.261,0.415-1.416-0.759-0.938c-0.471,0.425,0.964,1.241-0.76,1.408
			c2.194-0.689-2.545-1.098-1.519-0.47c-0.541-0.331,1.007-1.411-0.759-1.407c-0.484,0.578,0.983,1.558-0.76,1.877
			c-0.063-0.508-0.392-0.963-1.519-1.251c-0.012,0.414,0.422,0.92-1.519,0.938c-0.503-0.425-0.478-1.768-1.519-1.563
			c-0.471,0.581,1.235,1.609-1.519,1.721c0.118-0.599-0.039-1.139-1.518-1.408c0.12,1.31-1.646,1.398-2.278,2.658
			c0.082-1.215-0.173-2.361-1.519-3.283c0.157,0.449-0.192,0.794-1.519,0.938c-1.637-0.132,0.285-0.997-1.519-1.095
			c-1.332,0.56,0.118,1.691-1.519,2.189c-0.788-0.822-1.515-1.392-3.037-2.346c0.41,0.767-0.914,1.663-2.277,0.781
			c0.519,0.78-1.366,0.883-3.037,0.47c-0.484,0.577,0.983,1.557-0.76,1.876c-1.136-1.344-0.887-2.198-3.036-3.127
			c-1.414,1.376-0.908,3.148-2.278,4.534c0-0.99,0-1.98,0-2.971c-3.349-0.221-0.013,0.936-2.277,0.938
			c0.026-0.684,0.28-1.413-1.519-1.721c-1.602,0.332-1.047,1.127-2.278,1.876c0.038-0.789-0.296-1.502-1.519-2.032
			c-2.108,0.557,0.631,2.11-1.519,2.658c-0.887-0.808,1.853-2.362-1.519-2.658c-1.448,0.634-0.947,0.267-2.277-0.156
			c0.5,1.008-0.547,1.597-2.278,0.625c0.41,0.767-0.914,1.663-2.277,0.782c-0.814,0.614-0.165,1.53-1.519,2.032
			c0.332-0.537-0.3-0.876-0.759-1.251c0-0.469,0-0.938,0-1.406c0.44-0.318-0.518-1.232-0.76-0.47
			c1.166,0.54-0.704,2.305-1.519,2.189c-1.421-0.201,1.08-3.089-0.759-1.563c-0.495,0.836,0.996,2.081-0.76,2.658
			c-1.332-0.56,0.118-1.692-1.519-2.189c-1.126,0.498-0.004,1.458-1.519,1.876c0.025-0.641,0.229-3.729-0.759-2.188
			c-1.402,0.806-0.252,2.137-2.278,2.814c-0.09-0.261,0.415-1.416-0.759-0.938c-0.452,0.324,0.938,1.027-0.76,1.095
			c-0.318-0.716,0.978-1.765-1.519-2.032c0.134,0.501-1.519,2.962-1.519,0.938c0-0.536-0.069-2.853-0.759-0.782
			c-0.288,0.866,1.498,2.181-1.519,3.44c-0.033-0.675,0.424-1.938-1.519-0.938c-0.138-1.761,0.122-2.563-0.76-4.065
			c-0.807-1.374-1.73,2.302-2.277,3.127c-0.381,0.577,1.373,1.389-1.519,1.721c-2.665-2.438,0.583-4.611-1.519-6.88
			c-0.463-0.499-0.133,1.926-0.759,3.44c-0.769,1.855-2.551,3.181-3.037,5.159c-0.982-2.353-0.067-5.095-1.519-7.349
			c-1.613,0.711,0.296,2.146-1.519,2.814c-0.437-0.274,0.918-0.919-0.76-0.938c-2.218,1.523,1.318,4.232-2.277,5.473
			c-0.504-2.346,1.01-5.107-0.76-7.192c-0.502,1.078-0.317-0.199-1.519-0.312c-0.415,2.625,0.506,5.523-2.277,7.661
			c-0.47-1.521,0.962-4.261-0.76-5.003c-0.476,0.475,0.973,1.347-0.759,1.563c0.44-0.508-0.518-0.728-0.76-1.095
			c0-0.417,0-0.834,0-1.251c0-0.209,0-0.417,0-0.625c-1.696,1.11-0.526,4.164-2.277,5.784c-0.688-0.796,1.566-2.197-1.519-2.501
			c-0.451,0.323,0.938,1.026-0.759,1.095c-0.44-1.857,0.618-3.172,0-4.378c-0.908-1.771-0.233,2.404-1.519,2.813
			c-0.499-1.096,1.002-2.604-0.76-3.439C159.908,28.723,164.234,26.173,159.723,26.265z"/>
	</g>
	<g>
		<path fill-rule="evenodd" clip-rule="evenodd" fill="#E2791D" d="M190.093,26.265c0-0.156,0-0.312,0-0.469
			c6.526-0.585,0.744-3.704,3.796-5.004c0.498,0.992-1.001,2.396,0.76,3.127c1.979-2.198-0.546-5.324,1.519-7.505
			c0.226,1.111-0.294,2.784,0,4.065c0.148,0.648,0.824,2.32,1.519,2.033c0.487-0.629-0.988-1.663,0.759-2.033
			c-0.065,0.223-0.125,0.443,0.76,0.469c-0.082-2.049,0.141-4.036,1.519-5.785c0.072,2.226-0.493,4.584,1.519,6.411
			c-0.065-0.223-0.126-0.443,0.759-0.469c0.23,0.758,1.229,5.136,1.519,2.814c0.24-1.929-0.98-5.091,1.519-6.723
			c1.038,2.122,1.314,5.082,2.278,7.975c0.368,1.105,0.638,0.784,0.759-0.626c0.72-1.624-1.61-3.875,1.519-5.003
			c0.095,1.038,1.247-0.171,2.278-0.312c0,0.753,0,2.041,0,3.127c0,0.923-0.607,2.617,0.759,2.345c0-0.157,0-0.313,0-0.469
			c3.523-1.411,1.339-3.998,3.796-5.629c0.586,0.696-1.408,3.119,1.519,2.346c0.485,0.578-0.982,1.557,0.76,1.876
			c2.521-1.514,0.354-3.992,3.037-5.472c-0.708,2.59,3.277,3.576,2.277,6.411c3.981-0.848-0.453-3.429,2.278-4.534
			c0.379,0.656-0.838,2.459,0.759,2.345c0.463-0.374-0.953-1.135,0.76-1.251c2.758,0.477,0.435,2.825,2.277,2.971
			c0.463-0.374-0.953-1.135,0.76-1.25c0.415,0.227-0.888,0.808,0.759,0.781c2.041-0.935-0.585-2.831,1.519-3.752
			c0.596,1.128,0.17,2.466,2.277,3.283c0.488-0.63-0.987-1.663,0.76-2.033c-0.104,1.274-0.088,3.351,1.519,3.752
			c0.529-0.621-1.323-1.732,1.519-1.876c0.415,0.227-0.887,0.808,0.759,0.782c0.502-1.46-1.007-3.335,0.76-4.535
			c0.047,1.763,0.366,4.301,1.519,5.316c0.451-0.324-0.938-1.027,0.759-1.095c1.548,0.944,2.146-0.745,3.037-0.625
			c1.431,0.192-2.122,2.025,0.76,0.781c0.462-0.374-0.953-1.134,0.759-1.25c0.437,0.275-0.918,0.918,0.76,0.938
			c0.157-0.645,1.527-0.275,2.277-0.938c0.491,0.732-0.993,1.872,0.76,2.345c0.012-0.415-0.422-0.921,1.519-0.938
			c0.024,0.678,1.685,1.834,2.277,1.876c0.47-0.425-0.964-1.24,0.759-1.407c-0.064,0.222-0.125,0.443,0.76,0.469
			c0.463-0.374-0.953-1.135,0.759-1.251c0.49,0.682-0.99,1.768,0.76,2.189c0.152-0.855,1.507-1.461,2.277-2.189
			c1.427,0.035,0.092,1.421,1.519,0.938c-0.392-1.757,0.655-0.705,2.278-1.563c0.472,0.58-1.234,1.609,1.519,1.72
			c0.437-0.275-0.918-0.919,0.759-0.938c-0.081,1.291,0.221,1.353,1.519,0.312c0.063,0.248-0.364,0.597,0.76,0.626
			c1.099-0.583,1.013-0.396,2.277,0c0.922-0.28,0.139-0.91,1.519-1.095c0.33,0.513-0.768,2.13,0.76,1.876
			c0.451-0.324-0.939-1.026,0.759-1.094c-0.1,0.206-0.115,1.131,0.76,0.625c0.235-0.473-0.844-1.216,1.518-1.251
			c1.82-0.062-0.421,0.712,2.278,0.469c1.583-0.404-0.27-1.515,1.519-1.876c-0.564,1.391,1.392,1.292,2.277,2.346
			c-0.528-0.704,1.562-0.417,2.278-0.157c0.48-0.526-0.979-1.452,0.759-1.72c0,0.886,0,1.772,0,2.658
			c2.244-0.372-0.725-1.817,1.519-2.188c0.063,0.248-0.364,0.597,0.76,0.625c0.497-0.992-1.001-2.396,0.759-3.127
			c0.781,0.985-1.701,2.644,1.519,3.127c0.063-0.248-0.364-0.597,0.76-0.625c0.415,0.227-0.888,0.808,0.759,0.781
			c0.415-0.227-0.888-0.807,0.76-0.781c-0.157,0.627,0.192,0.699,1.519,0.312c0.027,0.568-0.426,1.235,1.519,1.408
			c0.47-0.424-0.964-1.241,0.759-1.408c0.053,0.615,0.367,1.175,1.519,1.564c0,1.459,0,2.918,0,4.377
			c-2.635-0.073-0.436,0.85-2.277,0.938c-0.091-0.261,0.414-1.416-0.76-0.938c-0.47,0.425,0.964,1.241-0.759,1.408
			c2.193-0.689-2.546-1.098-1.519-0.47c-0.542-0.331,1.007-1.411-0.76-1.407c-0.484,0.578,0.983,1.558-0.759,1.877
			c-0.064-0.508-0.392-0.963-1.519-1.251c-0.012,0.414,0.421,0.92-1.519,0.938c-0.504-0.425-0.479-1.768-1.519-1.563
			c-0.472,0.581,1.234,1.609-1.519,1.721c0.117-0.599-0.039-1.139-1.519-1.408c0.121,1.31-1.646,1.398-2.278,2.658
			c0.083-1.215-0.173-2.361-1.519-3.283c0.157,0.449-0.192,0.794-1.519,0.938c-1.636-0.132,0.285-0.997-1.519-1.095
			c-1.332,0.56,0.118,1.691-1.518,2.189c-0.789-0.822-1.516-1.392-3.037-2.346c0.409,0.767-0.915,1.663-2.278,0.781
			c0.52,0.78-1.365,0.883-3.037,0.47c-0.484,0.577,0.983,1.557-0.759,1.876c-1.137-1.344-0.887-2.198-3.037-3.127
			c-1.413,1.376-0.908,3.148-2.278,4.534c0-0.99,0-1.98,0-2.971c-3.348-0.221-0.013,0.936-2.277,0.938
			c0.026-0.684,0.28-1.413-1.519-1.721c-1.602,0.332-1.047,1.127-2.278,1.876c0.038-0.789-0.295-1.502-1.518-2.032
			c-2.109,0.557,0.63,2.11-1.519,2.658c-0.888-0.808,1.852-2.362-1.519-2.658c-1.449,0.634-0.948,0.267-2.278-0.156
			c0.501,1.008-0.546,1.597-2.277,0.625c0.41,0.767-0.914,1.663-2.278,0.782c-0.813,0.614-0.164,1.53-1.519,2.032
			c0.332-0.537-0.299-0.876-0.759-1.251c0-0.469,0-0.938,0-1.406c0.44-0.318-0.518-1.232-0.76-0.47
			c1.166,0.54-0.703,2.305-1.519,2.189c-1.421-0.201,1.081-3.089-0.759-1.563c-0.495,0.836,0.996,2.081-0.76,2.658
			c-1.332-0.56,0.118-1.692-1.519-2.189c-1.126,0.498-0.004,1.458-1.519,1.876c0.025-0.641,0.229-3.729-0.759-2.188
			c-1.402,0.806-0.252,2.137-2.277,2.814c-0.091-0.261,0.415-1.416-0.76-0.938c-0.451,0.324,0.938,1.027-0.759,1.095
			c-0.319-0.716,0.977-1.765-1.519-2.032c0.133,0.501-1.519,2.962-1.519,0.938c0-0.536-0.07-2.853-0.76-0.782
			c-0.287,0.866,1.499,2.181-1.519,3.44c-0.033-0.675,0.425-1.938-1.519-0.938c-0.138-1.761,0.123-2.563-0.759-4.065
			c-0.807-1.374-1.731,2.302-2.278,3.127c-0.381,0.577,1.373,1.389-1.519,1.721c-2.664-2.438,0.583-4.611-1.519-6.88
			c-0.462-0.499-0.133,1.926-0.759,3.44c-0.769,1.855-2.551,3.181-3.037,5.159c-0.981-2.353-0.066-5.095-1.519-7.349
			c-1.613,0.711,0.296,2.146-1.519,2.814c-0.437-0.274,0.918-0.919-0.759-0.938c-2.219,1.523,1.318,4.232-2.278,5.473
			c-0.504-2.346,1.01-5.107-0.759-7.192c-0.502,1.078-0.318-0.199-1.519-0.312c-0.416,2.625,0.505,5.523-2.278,7.661
			c-0.469-1.521,0.963-4.261-0.759-5.003c-0.477,0.475,0.972,1.347-0.76,1.563c0.44-0.508-0.518-0.728-0.759-1.095
			c0-0.417,0-0.834,0-1.251c0-0.209,0-0.417,0-0.625c-1.697,1.11-0.526,4.164-2.278,5.784c-0.688-0.796,1.566-2.197-1.519-2.501
			c-0.451,0.323,0.939,1.026-0.759,1.095c-0.44-1.857,0.618-3.172,0-4.378c-0.907-1.771-0.233,2.404-1.519,2.813
			c-0.499-1.096,1.002-2.604-0.76-3.439C190.279,28.723,194.604,26.173,190.093,26.265z"/>
	</g>
	<g>
		<path fill-rule="evenodd" clip-rule="evenodd" fill="#E2791D" d="M98.981,26.265c0-0.156,0-0.312,0-0.469
			c6.526-0.585,0.745-3.704,3.796-5.004c0.498,0.992-1.001,2.396,0.759,3.127c1.98-2.198-0.546-5.324,1.519-7.505
			c0.226,1.111-0.293,2.784,0,4.065c0.148,0.648,0.825,2.32,1.519,2.033c0.488-0.629-0.988-1.663,0.759-2.033
			c-0.065,0.223-0.125,0.443,0.759,0.469c-0.082-2.049,0.141-4.036,1.519-5.785c0.073,2.226-0.493,4.584,1.519,6.411
			c-0.065-0.223-0.125-0.443,0.759-0.469c0.23,0.758,1.229,5.136,1.519,2.814c0.24-1.929-0.98-5.091,1.519-6.723
			c1.038,2.122,1.314,5.082,2.277,7.975c0.369,1.105,0.638,0.784,0.759-0.626c0.719-1.624-1.61-3.875,1.519-5.003
			c0.095,1.038,1.247-0.171,2.278-0.312c0,0.753,0,2.041,0,3.127c0,0.923-0.606,2.617,0.759,2.345c0-0.157,0-0.313,0-0.469
			c3.523-1.411,1.339-3.998,3.796-5.629c0.586,0.696-1.409,3.119,1.519,2.346c0.485,0.578-0.983,1.557,0.759,1.876
			c2.521-1.514,0.354-3.992,3.037-5.472c-0.708,2.59,3.277,3.576,2.278,6.411c3.981-0.848-0.454-3.429,2.278-4.534
			c0.379,0.656-0.837,2.459,0.759,2.345c0.463-0.374-0.953-1.135,0.76-1.251c2.758,0.477,0.434,2.825,2.277,2.971
			c0.463-0.374-0.953-1.135,0.759-1.25c0.416,0.227-0.887,0.808,0.759,0.781c2.041-0.935-0.585-2.831,1.519-3.752
			c0.596,1.128,0.17,2.466,2.278,3.283c0.488-0.63-0.988-1.663,0.759-2.033c-0.104,1.274-0.087,3.351,1.519,3.752
			c0.529-0.621-1.323-1.732,1.519-1.876c0.415,0.227-0.887,0.808,0.759,0.782c0.501-1.46-1.007-3.335,0.759-4.535
			c0.048,1.763,0.366,4.301,1.519,5.316c0.451-0.324-0.938-1.027,0.759-1.095c1.548,0.944,2.146-0.745,3.037-0.625
			c1.431,0.192-2.122,2.025,0.76,0.781c0.463-0.374-0.953-1.134,0.759-1.25c0.437,0.275-0.918,0.918,0.76,0.938
			c0.157-0.645,1.527-0.275,2.277-0.938c0.492,0.732-0.992,1.872,0.76,2.345c0.012-0.415-0.422-0.921,1.519-0.938
			c0.024,0.678,1.685,1.834,2.277,1.876c0.47-0.425-0.964-1.24,0.76-1.407c-0.065,0.222-0.126,0.443,0.759,0.469
			c0.463-0.374-0.953-1.135,0.76-1.251c0.489,0.682-0.991,1.768,0.759,2.189c0.152-0.855,1.508-1.461,2.277-2.189
			c1.427,0.035,0.093,1.421,1.519,0.938c-0.392-1.757,0.656-0.705,2.278-1.563c0.472,0.58-1.234,1.609,1.519,1.72
			c0.437-0.275-0.918-0.919,0.759-0.938c-0.081,1.291,0.221,1.353,1.519,0.312c0.063,0.248-0.364,0.597,0.76,0.626
			c1.099-0.583,1.013-0.396,2.277,0c0.922-0.28,0.139-0.91,1.519-1.095c0.33,0.513-0.768,2.13,0.76,1.876
			c0.451-0.324-0.939-1.026,0.759-1.094c-0.1,0.206-0.115,1.131,0.76,0.625c0.235-0.473-0.844-1.216,1.519-1.251
			c1.819-0.062-0.422,0.712,2.277,0.469c1.583-0.404-0.27-1.515,1.519-1.876c-0.564,1.391,1.392,1.292,2.277,2.346
			c-0.528-0.704,1.562-0.417,2.278-0.157c0.48-0.526-0.979-1.452,0.759-1.72c0,0.886,0,1.772,0,2.658
			c2.244-0.372-0.725-1.817,1.519-2.188c0.063,0.248-0.364,0.597,0.76,0.625c0.497-0.992-1.001-2.396,0.759-3.127
			c0.782,0.985-1.701,2.644,1.519,3.127c0.063-0.248-0.364-0.597,0.76-0.625c0.415,0.227-0.888,0.808,0.759,0.781
			c0.415-0.227-0.888-0.807,0.76-0.781c-0.157,0.627,0.192,0.699,1.519,0.312c0.027,0.568-0.426,1.235,1.519,1.408
			c0.47-0.424-0.964-1.241,0.759-1.408c0.053,0.615,0.367,1.175,1.519,1.564c0,1.459,0,2.918,0,4.377
			c-2.635-0.073-0.436,0.85-2.277,0.938c-0.091-0.261,0.414-1.416-0.76-0.938c-0.47,0.425,0.964,1.241-0.759,1.408
			c2.193-0.689-2.546-1.098-1.519-0.47c-0.542-0.331,1.007-1.411-0.76-1.407c-0.484,0.578,0.983,1.558-0.759,1.877
			c-0.064-0.508-0.392-0.963-1.519-1.251c-0.012,0.414,0.421,0.92-1.519,0.938c-0.504-0.425-0.479-1.768-1.519-1.563
			c-0.472,0.581,1.234,1.609-1.519,1.721c0.118-0.599-0.039-1.139-1.519-1.408c0.121,1.31-1.646,1.398-2.278,2.658
			c0.083-1.215-0.172-2.361-1.518-3.283c0.156,0.449-0.193,0.794-1.519,0.938c-1.637-0.132,0.284-0.997-1.519-1.095
			c-1.333,0.56,0.117,1.691-1.519,2.189c-0.788-0.822-1.516-1.392-3.037-2.346c0.41,0.767-0.914,1.663-2.278,0.781
			c0.52,0.78-1.365,0.883-3.037,0.47c-0.483,0.577,0.983,1.557-0.759,1.876c-1.137-1.344-0.887-2.198-3.037-3.127
			c-1.413,1.376-0.907,3.148-2.278,4.534c0-0.99,0-1.98,0-2.971c-3.348-0.221-0.012,0.936-2.277,0.938
			c0.026-0.684,0.28-1.413-1.519-1.721c-1.602,0.332-1.047,1.127-2.277,1.876c0.037-0.789-0.296-1.502-1.519-2.032
			c-2.109,0.557,0.63,2.11-1.519,2.658c-0.887-0.808,1.852-2.362-1.519-2.658c-1.449,0.634-0.948,0.267-2.278-0.156
			c0.501,1.008-0.546,1.597-2.277,0.625c0.41,0.767-0.914,1.663-2.278,0.782c-0.813,0.614-0.164,1.53-1.519,2.032
			c0.333-0.537-0.299-0.876-0.759-1.251c0-0.469,0-0.938,0-1.406c0.44-0.318-0.518-1.232-0.759-0.47
			c1.166,0.54-0.704,2.305-1.519,2.189c-1.421-0.201,1.081-3.089-0.759-1.563c-0.495,0.836,0.997,2.081-0.759,2.658
			c-1.333-0.56,0.118-1.692-1.519-2.189c-1.126,0.498-0.004,1.458-1.519,1.876c0.025-0.641,0.229-3.729-0.759-2.188
			c-1.402,0.806-0.252,2.137-2.278,2.814c-0.09-0.261,0.416-1.416-0.759-0.938c-0.451,0.324,0.939,1.027-0.759,1.095
			c-0.319-0.716,0.978-1.765-1.518-2.032c0.133,0.501-1.519,2.962-1.519,0.938c0-0.536-0.07-2.853-0.759-0.782
			c-0.288,0.866,1.499,2.181-1.519,3.44c-0.034-0.675,0.424-1.938-1.519-0.938c-0.138-1.761,0.122-2.563-0.759-4.065
			c-0.807-1.374-1.731,2.302-2.278,3.127c-0.381,0.577,1.373,1.389-1.519,1.721c-2.665-2.438,0.583-4.611-1.519-6.88
			c-0.463-0.499-0.133,1.926-0.759,3.44c-0.768,1.855-2.551,3.181-3.037,5.159c-0.981-2.353-0.066-5.095-1.519-7.349
			c-1.613,0.711,0.296,2.146-1.519,2.814c-0.437-0.274,0.918-0.919-0.759-0.938c-2.218,1.523,1.318,4.232-2.278,5.473
			c-0.504-2.346,1.01-5.107-0.759-7.192c-0.502,1.078-0.318-0.199-1.519-0.312c-0.416,2.625,0.505,5.523-2.278,7.661
			c-0.469-1.521,0.962-4.261-0.759-5.003c-0.476,0.475,0.972,1.347-0.759,1.563c0.44-0.508-0.518-0.728-0.759-1.095
			c0-0.417,0-0.834,0-1.251c0-0.209,0-0.417,0-0.625c-1.697,1.11-0.526,4.164-2.278,5.784c-0.688-0.796,1.566-2.197-1.519-2.501
			c-0.452,0.323,0.938,1.026-0.759,1.095c-0.44-1.857,0.618-3.172,0-4.378c-0.908-1.771-0.233,2.404-1.519,2.813
			c-0.499-1.096,1.002-2.604-0.759-3.439C99.167,28.723,103.493,26.173,98.981,26.265z"/>
	</g>
	<g>
		<path fill-rule="evenodd" clip-rule="evenodd" fill="#E2791D" d="M38.241,26.265c0-0.156,0-0.312,0-0.469
			c6.526-0.585,0.745-3.704,3.796-5.004c0.498,0.992-1.001,2.396,0.759,3.127c1.979-2.198-0.546-5.324,1.519-7.505
			c0.225,1.111-0.293,2.784,0,4.065c0.148,0.648,0.824,2.32,1.519,2.033c0.488-0.629-0.988-1.663,0.759-2.033
			c-0.065,0.223-0.125,0.443,0.759,0.469c-0.082-2.049,0.141-4.036,1.519-5.785c0.072,2.226-0.493,4.584,1.519,6.411
			c-0.065-0.223-0.125-0.443,0.759-0.469c0.23,0.758,1.229,5.136,1.518,2.814c0.24-1.929-0.98-5.091,1.519-6.723
			c1.038,2.122,1.315,5.082,2.278,7.975c0.369,1.105,0.638,0.784,0.759-0.626c0.719-1.624-1.61-3.875,1.519-5.003
			c0.095,1.038,1.247-0.171,2.278-0.312c0,0.753,0,2.041,0,3.127c0,0.923-0.606,2.617,0.759,2.345c0-0.157,0-0.313,0-0.469
			c3.523-1.411,1.339-3.998,3.796-5.629c0.585,0.696-1.409,3.119,1.519,2.346c0.485,0.578-0.983,1.557,0.759,1.876
			c2.521-1.514,0.354-3.992,3.037-5.472c-0.708,2.59,3.277,3.576,2.278,6.411c3.981-0.848-0.454-3.429,2.277-4.534
			c0.379,0.656-0.837,2.459,0.759,2.345c0.463-0.374-0.953-1.135,0.759-1.251c2.758,0.477,0.435,2.825,2.278,2.971
			c0.463-0.374-0.954-1.135,0.759-1.25c0.416,0.227-0.887,0.808,0.759,0.781c2.041-0.935-0.585-2.831,1.519-3.752
			c0.595,1.128,0.17,2.466,2.278,3.283c0.488-0.63-0.988-1.663,0.759-2.033c-0.104,1.274-0.087,3.351,1.519,3.752
			c0.529-0.621-1.324-1.732,1.519-1.876c0.415,0.227-0.887,0.808,0.759,0.782c0.502-1.46-1.007-3.335,0.759-4.535
			c0.047,1.763,0.366,4.301,1.519,5.316c0.451-0.324-0.939-1.027,0.759-1.095c1.547,0.944,2.146-0.745,3.037-0.625
			c1.43,0.192-2.123,2.025,0.759,0.781c0.463-0.374-0.953-1.134,0.759-1.25c0.437,0.275-0.917,0.918,0.759,0.938
			c0.157-0.645,1.527-0.275,2.278-0.938c0.492,0.732-0.993,1.872,0.759,2.345c0.012-0.415-0.421-0.921,1.519-0.938
			c0.024,0.678,1.685,1.834,2.278,1.876c0.47-0.425-0.964-1.24,0.759-1.407c-0.065,0.222-0.125,0.443,0.759,0.469
			c0.463-0.374-0.953-1.135,0.759-1.251c0.489,0.682-0.991,1.768,0.759,2.189c0.152-0.855,1.507-1.461,2.278-2.189
			c1.426,0.035,0.092,1.421,1.519,0.938c-0.393-1.757,0.655-0.705,2.278-1.563c0.471,0.58-1.235,1.609,1.519,1.72
			c0.437-0.275-0.918-0.919,0.759-0.938c-0.082,1.291,0.22,1.353,1.518,0.312c0.063,0.248-0.365,0.597,0.759,0.626
			c1.099-0.583,1.013-0.396,2.278,0c0.922-0.28,0.139-0.91,1.519-1.095c0.33,0.513-0.767,2.13,0.759,1.876
			c0.452-0.324-0.938-1.026,0.759-1.094c-0.1,0.206-0.115,1.131,0.759,0.625c0.236-0.473-0.843-1.216,1.519-1.251
			c1.819-0.062-0.421,0.712,2.278,0.469c1.583-0.404-0.269-1.515,1.519-1.876c-0.564,1.391,1.392,1.292,2.278,2.346
			c-0.529-0.704,1.561-0.417,2.278-0.157c0.48-0.526-0.978-1.452,0.759-1.72c0,0.886,0,1.772,0,2.658
			c2.244-0.372-0.726-1.817,1.519-2.188c0.063,0.248-0.365,0.597,0.759,0.625c0.498-0.992-1.001-2.396,0.76-3.127
			c0.781,0.985-1.702,2.644,1.518,3.127c0.063-0.248-0.365-0.597,0.759-0.625c0.416,0.227-0.887,0.808,0.759,0.781
			c0.416-0.227-0.887-0.807,0.759-0.781c-0.157,0.627,0.193,0.699,1.519,0.312c0.027,0.568-0.425,1.235,1.519,1.408
			c0.47-0.424-0.964-1.241,0.759-1.408c0.053,0.615,0.367,1.175,1.519,1.564c0,1.459,0,2.918,0,4.377
			c-2.634-0.073-0.435,0.85-2.278,0.938c-0.09-0.261,0.415-1.416-0.759-0.938c-0.47,0.425,0.964,1.241-0.759,1.408
			c2.194-0.689-2.545-1.098-1.519-0.47c-0.541-0.331,1.007-1.411-0.759-1.407c-0.484,0.578,0.983,1.558-0.759,1.877
			c-0.063-0.508-0.391-0.963-1.519-1.251c-0.012,0.414,0.421,0.92-1.519,0.938c-0.503-0.425-0.478-1.768-1.518-1.563
			c-0.472,0.581,1.234,1.609-1.519,1.721c0.118-0.599-0.04-1.139-1.519-1.408c0.121,1.31-1.646,1.398-2.278,2.658
			c0.082-1.215-0.173-2.361-1.519-3.283c0.157,0.449-0.193,0.794-1.519,0.938c-1.636-0.132,0.285-0.997-1.519-1.095
			c-1.333,0.56,0.118,1.691-1.519,2.189c-0.788-0.822-1.515-1.392-3.037-2.346c0.41,0.767-0.914,1.663-2.278,0.781
			c0.519,0.78-1.366,0.883-3.037,0.47c-0.484,0.577,0.983,1.557-0.759,1.876c-1.137-1.344-0.887-2.198-3.037-3.127
			c-1.414,1.376-0.908,3.148-2.278,4.534c0-0.99,0-1.98,0-2.971c-3.349-0.221-0.013,0.936-2.278,0.938
			c0.027-0.684,0.28-1.413-1.519-1.721c-1.602,0.332-1.047,1.127-2.278,1.876c0.038-0.789-0.296-1.502-1.519-2.032
			c-2.108,0.557,0.63,2.11-1.519,2.658c-0.887-0.808,1.853-2.362-1.519-2.658c-1.449,0.634-0.947,0.267-2.278-0.156
			c0.5,1.008-0.546,1.597-2.278,0.625c0.41,0.767-0.914,1.663-2.277,0.782c-0.814,0.614-0.165,1.53-1.519,2.032
			c0.332-0.537-0.3-0.876-0.759-1.251c0-0.469,0-0.938,0-1.406c0.44-0.318-0.518-1.232-0.759-0.47
			c1.166,0.54-0.704,2.305-1.519,2.189c-1.421-0.201,1.08-3.089-0.759-1.563c-0.495,0.836,0.997,2.081-0.759,2.658
			c-1.333-0.56,0.118-1.692-1.519-2.189c-1.126,0.498-0.004,1.458-1.519,1.876c0.025-0.641,0.229-3.729-0.759-2.188
			c-1.402,0.806-0.252,2.137-2.278,2.814c-0.09-0.261,0.416-1.416-0.759-0.938c-0.452,0.324,0.939,1.027-0.759,1.095
			c-0.319-0.716,0.978-1.765-1.519-2.032c0.134,0.501-1.519,2.962-1.519,0.938c0-0.536-0.069-2.853-0.759-0.782
			c-0.288,0.866,1.499,2.181-1.518,3.44c-0.034-0.675,0.424-1.938-1.519-0.938c-0.138-1.761,0.122-2.563-0.759-4.065
			c-0.807-1.374-1.731,2.302-2.278,3.127c-0.381,0.577,1.373,1.389-1.519,1.721c-2.665-2.438,0.583-4.611-1.519-6.88
			c-0.463-0.499-0.133,1.926-0.759,3.44c-0.768,1.855-2.551,3.181-3.037,5.159c-0.981-2.353-0.067-5.095-1.519-7.349
			c-1.613,0.711,0.296,2.146-1.519,2.814c-0.437-0.274,0.918-0.919-0.759-0.938c-2.218,1.523,1.318,4.232-2.278,5.473
			c-0.504-2.346,1.01-5.107-0.759-7.192c-0.502,1.078-0.318-0.199-1.519-0.312c-0.415,2.625,0.506,5.523-2.277,7.661
			c-0.47-1.521,0.962-4.261-0.759-5.003c-0.476,0.475,0.972,1.347-0.759,1.563c0.44-0.508-0.518-0.728-0.759-1.095
			c0-0.417,0-0.834,0-1.251c0-0.209,0-0.417,0-0.625c-1.697,1.11-0.527,4.164-2.278,5.784c-0.688-0.796,1.566-2.197-1.519-2.501
			c-0.452,0.323,0.938,1.026-0.759,1.095c-0.44-1.857,0.618-3.172,0-4.378c-0.908-1.771-0.233,2.404-1.519,2.813
			c-0.499-1.096,1.002-2.604-0.759-3.439C38.427,28.723,42.752,26.173,38.241,26.265z"/>
	</g>
</g>
<g>
	<g>
		<path fill-rule="evenodd" clip-rule="evenodd" fill="#FFFFFF" d="M-2,25.102c0-0.157,0-0.313,0-0.469
			c6.526-0.584,0.745-3.704,3.796-5.004c0.498,0.993-1.001,2.395,0.759,3.127c1.979-2.198-0.546-5.324,1.519-7.504
			c0.225,1.111-0.294,2.784,0,4.065c0.148,0.648,0.824,2.321,1.519,2.033c0.488-0.629-0.988-1.663,0.759-2.033
			c-0.065,0.222-0.125,0.443,0.759,0.469C7.03,17.736,7.252,15.749,8.63,14c0.072,2.226-0.493,4.583,1.518,6.41
			c-0.065-0.222-0.125-0.442,0.759-0.469c0.231,0.758,1.229,5.136,1.519,2.814c0.24-1.928-0.98-5.091,1.519-6.723
			c1.038,2.122,1.315,5.082,2.278,7.974c0.369,1.106,0.638,0.785,0.759-0.626c0.719-1.624-1.61-3.875,1.519-5.003
			c0.095,1.038,1.247-0.171,2.278-0.312c0,0.753,0,2.041,0,3.126c0,0.924-0.606,2.618,0.759,2.346c0-0.157,0-0.313,0-0.469
			c3.523-1.411,1.339-3.998,3.796-5.629c0.585,0.696-1.409,3.119,1.519,2.345c0.485,0.578-0.983,1.558,0.759,1.877
			c2.521-1.514,0.354-3.993,3.037-5.473c-0.707,2.59,3.277,3.576,2.278,6.411c3.982-0.848-0.454-3.429,2.278-4.534
			c0.379,0.656-0.837,2.459,0.759,2.345c0.463-0.374-0.954-1.134,0.759-1.25c2.758,0.477,0.435,2.825,2.278,2.971
			c0.463-0.374-0.954-1.134,0.759-1.251c0.415,0.228-0.887,0.808,0.759,0.782c2.041-0.935-0.585-2.831,1.519-3.753
			c0.595,1.128,0.17,2.467,2.278,3.283c0.488-0.629-0.988-1.662,0.759-2.032c-0.104,1.274-0.087,3.351,1.519,3.752
			c0.529-0.621-1.324-1.732,1.519-1.876c0.415,0.227-0.887,0.808,0.759,0.781c0.502-1.46-1.007-3.334,0.759-4.534
			c0.047,1.764,0.366,4.301,1.519,5.316c0.451-0.324-0.939-1.028,0.759-1.095c1.548,0.944,2.146-0.745,3.037-0.625
			c1.431,0.192-2.122,2.026,0.759,0.782c0.463-0.374-0.953-1.135,0.759-1.251c0.437,0.275-0.918,0.919,0.759,0.939
			c0.157-0.646,1.527-0.275,2.278-0.939c0.492,0.733-0.993,1.873,0.759,2.345c0.012-0.414-0.421-0.92,1.519-0.938
			c0.024,0.679,1.685,1.835,2.278,1.876c0.47-0.424-0.964-1.24,0.759-1.407c-0.065,0.222-0.125,0.443,0.759,0.469
			c0.462-0.374-0.953-1.134,0.759-1.25c0.489,0.681-0.991,1.768,0.759,2.188c0.152-0.854,1.507-1.461,2.278-2.188
			c1.426,0.034,0.092,1.42,1.519,0.938c-0.393-1.756,0.655-0.705,2.278-1.563c0.471,0.581-1.235,1.609,1.518,1.72
			c0.437-0.275-0.917-0.918,0.759-0.938c-0.082,1.29,0.22,1.353,1.519,0.312c0.063,0.248-0.365,0.596,0.759,0.625
			c1.099-0.583,1.013-0.396,2.278,0c0.922-0.28,0.139-0.91,1.519-1.095c0.33,0.512-0.768,2.129,0.759,1.876
			c0.452-0.324-0.938-1.027,0.759-1.094c-0.1,0.206-0.115,1.131,0.759,0.625c0.236-0.473-0.843-1.216,1.519-1.25
			c1.819-0.062-0.421,0.711,2.278,0.469c1.583-0.404-0.269-1.515,1.519-1.876c-0.564,1.391,1.392,1.292,2.278,2.346
			c-0.529-0.704,1.561-0.418,2.278-0.157c0.48-0.526-0.978-1.453,0.759-1.72c0,0.886,0,1.772,0,2.658
			c2.244-0.372-0.725-1.817,1.519-2.189c0.063,0.248-0.365,0.597,0.759,0.625c0.498-0.992-1.001-2.395,0.759-3.127
			c0.782,0.986-1.702,2.644,1.519,3.127c0.063-0.248-0.365-0.596,0.759-0.625c0.416,0.228-0.887,0.809,0.759,0.782
			c0.416-0.227-0.887-0.808,0.759-0.782c-0.157,0.628,0.193,0.699,1.519,0.313c0.027,0.567-0.425,1.234,1.519,1.407
			c0.47-0.425-0.964-1.241,0.759-1.407c0.053,0.614,0.367,1.175,1.519,1.563c0,1.459,0,2.919,0,4.377
			c-2.634-0.073-0.435,0.85-2.278,0.939c-0.09-0.261,0.415-1.416-0.759-0.939c-0.47,0.426,0.964,1.241-0.759,1.408
			c2.194-0.688-2.545-1.097-1.519-0.469c-0.541-0.331,1.007-1.411-0.759-1.407c-0.484,0.577,0.983,1.558-0.759,1.876
			c-0.063-0.508-0.391-0.962-1.519-1.251c-0.012,0.415,0.421,0.921-1.519,0.938c-0.503-0.425-0.478-1.768-1.518-1.563
			c-0.472,0.58,1.234,1.609-1.519,1.72c0.118-0.599-0.04-1.139-1.519-1.407c0.121,1.309-1.646,1.397-2.278,2.657
			c0.082-1.215-0.173-2.361-1.519-3.283c0.157,0.449-0.193,0.795-1.519,0.938c-1.636-0.132,0.285-0.997-1.519-1.095
			c-1.333,0.56,0.118,1.692-1.519,2.189c-0.788-0.822-1.515-1.392-3.037-2.346c0.41,0.767-0.914,1.663-2.278,0.781
			c0.519,0.781-1.366,0.883-3.037,0.47c-0.484,0.577,0.983,1.558-0.759,1.876c-1.136-1.343-0.887-2.197-3.037-3.127
			c-1.414,1.377-0.908,3.148-2.278,4.534c0-0.989,0-1.98,0-2.97c-3.349-0.222-0.013,0.935-2.278,0.938
			c0.026-0.684,0.28-1.413-1.519-1.721c-1.602,0.333-1.047,1.128-2.278,1.877c0.038-0.789-0.296-1.503-1.519-2.032
			c-2.109,0.556,0.63,2.109-1.519,2.658c-0.887-0.808,1.852-2.362-1.519-2.658c-1.449,0.633-0.948,0.266-2.278-0.157
			c0.5,1.008-0.546,1.598-2.278,0.625c0.41,0.767-0.914,1.664-2.278,0.782c-0.814,0.614-0.165,1.53-1.518,2.033
			c0.332-0.537-0.3-0.876-0.759-1.251c0-0.469,0-0.938,0-1.407c0.44-0.318-0.518-1.231-0.759-0.47
			c1.166,0.54-0.704,2.305-1.519,2.189c-1.421-0.201,1.08-3.088-0.759-1.563c-0.495,0.837,0.997,2.082-0.759,2.658
			c-1.333-0.56,0.118-1.692-1.519-2.189c-1.126,0.499-0.004,1.459-1.519,1.877c0.025-0.642,0.229-3.729-0.759-2.188
			c-1.402,0.805-0.252,2.136-2.278,2.813c-0.09-0.26,0.415-1.415-0.759-0.938c-0.452,0.325,0.939,1.027-0.759,1.095
			c-0.319-0.716,0.978-1.765-1.519-2.032c0.134,0.502-1.519,2.962-1.519,0.938c0-0.536-0.069-2.853-0.759-0.781
			c-0.288,0.865,1.499,2.181-1.519,3.439c-0.033-0.675,0.424-1.938-1.519-0.938c-0.138-1.762,0.123-2.563-0.759-4.066
			c-0.807-1.373-1.731,2.302-2.277,3.128c-0.381,0.576,1.373,1.388-1.519,1.72c-2.665-2.438,0.583-4.61-1.519-6.879
			c-0.463-0.5-0.133,1.925-0.759,3.439c-0.768,1.856-2.551,3.181-3.037,5.16c-0.982-2.353-0.067-5.095-1.519-7.35
			c-1.613,0.711,0.296,2.146-1.519,2.814c-0.437-0.274,0.918-0.919-0.759-0.938c-2.218,1.522,1.318,4.232-2.278,5.473
			c-0.504-2.347,1.01-5.107-0.759-7.193c-0.502,1.079-0.318-0.199-1.519-0.312c-0.415,2.625,0.506,5.524-2.278,7.661
			c-0.469-1.521,0.962-4.261-0.759-5.003c-0.476,0.476,0.972,1.347-0.759,1.563c0.44-0.507-0.517-0.727-0.759-1.094
			c0-0.418,0-0.834,0-1.251c0-0.209,0-0.418,0-0.626c-1.697,1.111-0.527,4.164-2.278,5.785c-0.688-0.797,1.566-2.198-1.519-2.502
			c-0.452,0.324,0.938,1.027-0.759,1.095c-0.44-1.857,0.618-3.171,0-4.378c-0.908-1.771-0.233,2.405-1.519,2.814
			c-0.499-1.096,1.002-2.604-0.759-3.44C-1.814,27.559,2.512,25.01-2,25.102z"/>
	</g>
	<g>
		<path fill-rule="evenodd" clip-rule="evenodd" fill="#FFFFFF" d="M58.741,25.102c0-0.157,0-0.313,0-0.469
			c6.526-0.584,0.745-3.704,3.796-5.004c0.498,0.993-1.001,2.395,0.759,3.127c1.979-2.198-0.546-5.324,1.519-7.504
			c0.226,1.111-0.293,2.784,0,4.065c0.148,0.648,0.824,2.321,1.519,2.033c0.488-0.629-0.988-1.663,0.759-2.033
			c-0.065,0.222-0.125,0.443,0.759,0.469c-0.082-2.049,0.141-4.036,1.519-5.785c0.072,2.226-0.493,4.583,1.519,6.41
			c-0.065-0.222-0.125-0.442,0.759-0.469c0.23,0.758,1.229,5.136,1.519,2.814c0.24-1.928-0.98-5.091,1.518-6.723
			c1.038,2.122,1.315,5.082,2.278,7.974c0.369,1.106,0.638,0.785,0.759-0.626c0.719-1.624-1.61-3.875,1.519-5.003
			c0.095,1.038,1.247-0.171,2.278-0.312c0,0.753,0,2.041,0,3.126c0,0.924-0.606,2.618,0.759,2.346c0-0.157,0-0.313,0-0.469
			c3.523-1.411,1.339-3.998,3.796-5.629c0.586,0.696-1.409,3.119,1.519,2.345c0.485,0.578-0.983,1.558,0.759,1.877
			c2.521-1.514,0.354-3.993,3.037-5.473c-0.708,2.59,3.277,3.576,2.278,6.411c3.981-0.848-0.454-3.429,2.277-4.534
			c0.379,0.656-0.837,2.459,0.759,2.345c0.463-0.374-0.953-1.134,0.759-1.25c2.758,0.477,0.435,2.825,2.278,2.971
			c0.463-0.374-0.954-1.134,0.759-1.251c0.416,0.228-0.887,0.808,0.759,0.782c2.041-0.935-0.585-2.831,1.519-3.753
			c0.595,1.128,0.17,2.467,2.278,3.283c0.488-0.629-0.988-1.662,0.759-2.032c-0.104,1.274-0.087,3.351,1.519,3.752
			c0.529-0.621-1.324-1.732,1.519-1.876c0.415,0.227-0.887,0.808,0.759,0.781c0.502-1.46-1.007-3.334,0.759-4.534
			c0.047,1.764,0.366,4.301,1.519,5.316c0.452-0.324-0.939-1.028,0.759-1.095c1.547,0.944,2.146-0.745,3.037-0.625
			c1.43,0.192-2.122,2.026,0.759,0.782c0.463-0.374-0.953-1.135,0.759-1.251c0.437,0.275-0.917,0.919,0.759,0.939
			c0.157-0.646,1.528-0.275,2.278-0.939c0.492,0.733-0.993,1.873,0.759,2.345c0.012-0.414-0.421-0.92,1.519-0.938
			c0.024,0.679,1.685,1.835,2.278,1.876c0.47-0.424-0.964-1.24,0.759-1.407c-0.065,0.222-0.125,0.443,0.759,0.469
			c0.463-0.374-0.953-1.134,0.759-1.25c0.489,0.681-0.991,1.768,0.759,2.188c0.152-0.854,1.507-1.461,2.278-2.188
			c1.427,0.034,0.092,1.42,1.519,0.938c-0.393-1.756,0.655-0.705,2.278-1.563c0.471,0.581-1.235,1.609,1.519,1.72
			c0.437-0.275-0.918-0.918,0.759-0.938c-0.082,1.29,0.22,1.353,1.519,0.312c0.063,0.248-0.365,0.596,0.759,0.625
			c1.099-0.583,1.013-0.396,2.278,0c0.922-0.28,0.139-0.91,1.519-1.095c0.33,0.512-0.767,2.129,0.759,1.876
			c0.452-0.324-0.938-1.027,0.759-1.094c-0.1,0.206-0.115,1.131,0.759,0.625c0.236-0.473-0.843-1.216,1.519-1.25
			c1.82-0.062-0.421,0.711,2.278,0.469c1.583-0.404-0.269-1.515,1.519-1.876c-0.564,1.391,1.392,1.292,2.278,2.346
			c-0.528-0.704,1.561-0.418,2.277-0.157c0.48-0.526-0.978-1.453,0.76-1.72c0,0.886,0,1.772,0,2.658
			c2.243-0.372-0.726-1.817,1.519-2.189c0.062,0.248-0.365,0.597,0.759,0.625c0.498-0.992-1.001-2.395,0.76-3.127
			c0.781,0.986-1.702,2.644,1.519,3.127c0.062-0.248-0.365-0.596,0.759-0.625c0.415,0.228-0.888,0.809,0.76,0.782
			c0.415-0.227-0.888-0.808,0.759-0.782c-0.157,0.628,0.193,0.699,1.519,0.313c0.027,0.567-0.426,1.234,1.519,1.407
			c0.47-0.425-0.964-1.241,0.76-1.407c0.053,0.614,0.366,1.175,1.519,1.563c0,1.459,0,2.919,0,4.377
			c-2.635-0.073-0.436,0.85-2.278,0.939c-0.091-0.261,0.415-1.416-0.759-0.939c-0.471,0.426,0.964,1.241-0.76,1.408
			c2.194-0.688-2.545-1.097-1.519-0.469c-0.541-0.331,1.007-1.411-0.759-1.407c-0.484,0.577,0.982,1.558-0.76,1.876
			c-0.063-0.508-0.392-0.962-1.519-1.251c-0.012,0.415,0.422,0.921-1.519,0.938c-0.503-0.425-0.478-1.768-1.519-1.563
			c-0.472,0.58,1.234,1.609-1.519,1.72c0.118-0.599-0.039-1.139-1.519-1.407c0.121,1.309-1.646,1.397-2.277,2.657
			c0.082-1.215-0.173-2.361-1.519-3.283c0.157,0.449-0.193,0.795-1.519,0.938c-1.636-0.132,0.285-0.997-1.519-1.095
			c-1.333,0.56,0.118,1.692-1.519,2.189c-0.788-0.822-1.515-1.392-3.037-2.346c0.41,0.767-0.914,1.663-2.278,0.781
			c0.519,0.781-1.366,0.883-3.037,0.47c-0.484,0.577,0.983,1.558-0.759,1.876c-1.137-1.343-0.887-2.197-3.037-3.127
			c-1.414,1.377-0.908,3.148-2.278,4.534c0-0.989,0-1.98,0-2.97c-3.349-0.222-0.013,0.935-2.278,0.938
			c0.027-0.684,0.28-1.413-1.519-1.721c-1.602,0.333-1.047,1.128-2.278,1.877c0.038-0.789-0.296-1.503-1.519-2.032
			c-2.108,0.556,0.63,2.109-1.519,2.658c-0.887-0.808,1.853-2.362-1.519-2.658c-1.449,0.633-0.947,0.266-2.278-0.157
			c0.5,1.008-0.546,1.598-2.277,0.625c0.41,0.767-0.915,1.664-2.278,0.782c-0.814,0.614-0.165,1.53-1.519,2.033
			c0.332-0.537-0.3-0.876-0.759-1.251c0-0.469,0-0.938,0-1.407c0.44-0.318-0.518-1.231-0.759-0.47
			c1.166,0.54-0.704,2.305-1.519,2.189c-1.421-0.201,1.08-3.088-0.759-1.563c-0.495,0.837,0.997,2.082-0.759,2.658
			c-1.333-0.56,0.118-1.692-1.519-2.189c-1.126,0.499-0.004,1.459-1.519,1.877c0.025-0.642,0.229-3.729-0.759-2.188
			c-1.402,0.805-0.252,2.136-2.278,2.813c-0.09-0.26,0.416-1.415-0.759-0.938c-0.452,0.325,0.939,1.027-0.759,1.095
			c-0.319-0.716,0.978-1.765-1.519-2.032c0.134,0.502-1.519,2.962-1.519,0.938c0-0.536-0.069-2.853-0.759-0.781
			c-0.288,0.865,1.498,2.181-1.519,3.439c-0.034-0.675,0.424-1.938-1.519-0.938c-0.138-1.762,0.122-2.563-0.759-4.066
			c-0.807-1.373-1.731,2.302-2.278,3.128c-0.381,0.576,1.373,1.388-1.519,1.72c-2.665-2.438,0.583-4.61-1.519-6.879
			c-0.463-0.5-0.133,1.925-0.759,3.439c-0.768,1.856-2.551,3.181-3.037,5.16c-0.981-2.353-0.067-5.095-1.519-7.35
			c-1.613,0.711,0.296,2.146-1.519,2.814c-0.437-0.274,0.918-0.919-0.759-0.938c-2.218,1.522,1.318,4.232-2.278,5.473
			c-0.504-2.347,1.01-5.107-0.759-7.193c-0.502,1.079-0.318-0.199-1.519-0.312c-0.415,2.625,0.506,5.524-2.277,7.661
			c-0.47-1.521,0.962-4.261-0.759-5.003c-0.476,0.476,0.972,1.347-0.759,1.563c0.44-0.507-0.518-0.727-0.759-1.094
			c0-0.418,0-0.834,0-1.251c0-0.209,0-0.418,0-0.626c-1.697,1.111-0.526,4.164-2.278,5.785c-0.688-0.797,1.566-2.198-1.519-2.502
			c-0.452,0.324,0.938,1.027-0.759,1.095c-0.44-1.857,0.618-3.171,0-4.378c-0.908-1.771-0.233,2.405-1.519,2.814
			c-0.499-1.096,1.002-2.604-0.759-3.44C58.927,27.559,63.252,25.01,58.741,25.102z"/>
	</g>
	<g>
		<path fill-rule="evenodd" clip-rule="evenodd" fill="#FFFFFF" d="M119.481,25.102c0-0.157,0-0.313,0-0.469
			c6.526-0.584,0.745-3.704,3.796-5.004c0.498,0.993-1.001,2.395,0.759,3.127c1.98-2.198-0.546-5.324,1.519-7.504
			c0.226,1.111-0.293,2.784,0,4.065c0.148,0.648,0.825,2.321,1.519,2.033c0.488-0.629-0.988-1.663,0.759-2.033
			c-0.065,0.222-0.125,0.443,0.759,0.469c-0.082-2.049,0.141-4.036,1.519-5.785c0.073,2.226-0.493,4.583,1.519,6.41
			c-0.065-0.222-0.125-0.442,0.759-0.469c0.23,0.758,1.229,5.136,1.519,2.814c0.24-1.928-0.98-5.091,1.519-6.723
			c1.038,2.122,1.314,5.082,2.278,7.974c0.368,1.106,0.637,0.785,0.759-0.626c0.719-1.624-1.61-3.875,1.519-5.003
			c0.095,1.038,1.248-0.171,2.278-0.312c0,0.753,0,2.041,0,3.126c0,0.924-0.606,2.618,0.759,2.346c0-0.157,0-0.313,0-0.469
			c3.523-1.411,1.339-3.998,3.796-5.629c0.586,0.696-1.409,3.119,1.519,2.345c0.485,0.578-0.983,1.558,0.759,1.877
			c2.521-1.514,0.354-3.993,3.037-5.473c-0.707,2.59,3.277,3.576,2.277,6.411c3.982-0.848-0.453-3.429,2.278-4.534
			c0.379,0.656-0.837,2.459,0.759,2.345c0.463-0.374-0.953-1.134,0.76-1.25c2.758,0.477,0.435,2.825,2.277,2.971
			c0.463-0.374-0.953-1.134,0.76-1.251c0.415,0.228-0.887,0.808,0.759,0.782c2.041-0.935-0.585-2.831,1.519-3.753
			c0.596,1.128,0.17,2.467,2.278,3.283c0.487-0.629-0.988-1.662,0.759-2.032c-0.104,1.274-0.088,3.351,1.519,3.752
			c0.529-0.621-1.323-1.732,1.519-1.876c0.415,0.227-0.887,0.808,0.759,0.781c0.502-1.46-1.007-3.334,0.76-4.534
			c0.048,1.764,0.366,4.301,1.519,5.316c0.451-0.324-0.938-1.028,0.759-1.095c1.548,0.944,2.146-0.745,3.037-0.625
			c1.431,0.192-2.122,2.026,0.76,0.782c0.463-0.374-0.953-1.135,0.759-1.251c0.437,0.275-0.918,0.919,0.76,0.939
			c0.157-0.646,1.527-0.275,2.277-0.939c0.492,0.733-0.992,1.873,0.76,2.345c0.012-0.414-0.422-0.92,1.519-0.938
			c0.024,0.679,1.685,1.835,2.277,1.876c0.471-0.424-0.964-1.24,0.76-1.407c-0.065,0.222-0.126,0.443,0.759,0.469
			c0.463-0.374-0.953-1.134,0.76-1.25c0.489,0.681-0.991,1.768,0.759,2.188c0.152-0.854,1.508-1.461,2.277-2.188
			c1.427,0.034,0.093,1.42,1.519,0.938c-0.392-1.756,0.656-0.705,2.278-1.563c0.472,0.581-1.234,1.609,1.519,1.72
			c0.437-0.275-0.918-0.918,0.759-0.938c-0.081,1.29,0.221,1.353,1.519,0.312c0.063,0.248-0.364,0.596,0.76,0.625
			c1.099-0.583,1.013-0.396,2.277,0c0.922-0.28,0.139-0.91,1.519-1.095c0.33,0.512-0.768,2.129,0.76,1.876
			c0.451-0.324-0.939-1.027,0.759-1.094c-0.1,0.206-0.114,1.131,0.76,0.625c0.235-0.473-0.844-1.216,1.519-1.25
			c1.819-0.062-0.422,0.711,2.277,0.469c1.583-0.404-0.27-1.515,1.519-1.876c-0.564,1.391,1.392,1.292,2.278,2.346
			c-0.529-0.704,1.561-0.418,2.277-0.157c0.48-0.526-0.979-1.453,0.759-1.72c0,0.886,0,1.772,0,2.658
			c2.244-0.372-0.725-1.817,1.519-2.189c0.063,0.248-0.364,0.597,0.76,0.625c0.497-0.992-1.001-2.395,0.759-3.127
			c0.782,0.986-1.701,2.644,1.519,3.127c0.063-0.248-0.364-0.596,0.76-0.625c0.415,0.228-0.888,0.809,0.759,0.782
			c0.415-0.227-0.888-0.808,0.76-0.782c-0.157,0.628,0.192,0.699,1.519,0.313c0.027,0.567-0.426,1.234,1.519,1.407
			c0.47-0.425-0.964-1.241,0.759-1.407c0.053,0.614,0.367,1.175,1.519,1.563c0,1.459,0,2.919,0,4.377
			c-2.635-0.073-0.436,0.85-2.277,0.939c-0.091-0.261,0.414-1.416-0.76-0.939c-0.47,0.426,0.964,1.241-0.759,1.408
			c2.193-0.688-2.546-1.097-1.519-0.469c-0.542-0.331,1.007-1.411-0.76-1.407c-0.484,0.577,0.983,1.558-0.759,1.876
			c-0.064-0.508-0.392-0.962-1.519-1.251c-0.012,0.415,0.421,0.921-1.519,0.938c-0.504-0.425-0.479-1.768-1.519-1.563
			c-0.472,0.58,1.234,1.609-1.519,1.72c0.118-0.599-0.039-1.139-1.519-1.407c0.121,1.309-1.646,1.397-2.277,2.657
			c0.082-1.215-0.173-2.361-1.519-3.283c0.157,0.449-0.193,0.795-1.519,0.938c-1.637-0.132,0.284-0.997-1.519-1.095
			c-1.333,0.56,0.117,1.692-1.519,2.189c-0.788-0.822-1.515-1.392-3.037-2.346c0.41,0.767-0.914,1.663-2.278,0.781
			c0.52,0.781-1.365,0.883-3.037,0.47c-0.483,0.577,0.983,1.558-0.759,1.876c-1.137-1.343-0.887-2.197-3.037-3.127
			c-1.413,1.377-0.907,3.148-2.278,4.534c0-0.989,0-1.98,0-2.97c-3.348-0.222-0.012,0.935-2.277,0.938
			c0.026-0.684,0.28-1.413-1.519-1.721c-1.602,0.333-1.047,1.128-2.277,1.877c0.037-0.789-0.296-1.503-1.519-2.032
			c-2.109,0.556,0.63,2.109-1.519,2.658c-0.887-0.808,1.852-2.362-1.519-2.658c-1.449,0.633-0.948,0.266-2.278-0.157
			c0.501,1.008-0.546,1.598-2.277,0.625c0.41,0.767-0.914,1.664-2.278,0.782c-0.813,0.614-0.164,1.53-1.519,2.033
			c0.333-0.537-0.299-0.876-0.759-1.251c0-0.469,0-0.938,0-1.407c0.44-0.318-0.518-1.231-0.76-0.47
			c1.166,0.54-0.703,2.305-1.518,2.189c-1.422-0.201,1.08-3.088-0.76-1.563c-0.494,0.837,0.996,2.082-0.759,2.658
			c-1.333-0.56,0.117-1.692-1.519-2.189c-1.127,0.499-0.005,1.459-1.519,1.877c0.024-0.642,0.228-3.729-0.76-2.188
			c-1.402,0.805-0.252,2.136-2.277,2.813c-0.091-0.26,0.415-1.415-0.76-0.938c-0.451,0.325,0.938,1.027-0.759,1.095
			c-0.319-0.716,0.977-1.765-1.519-2.032c0.133,0.502-1.519,2.962-1.519,0.938c0-0.536-0.07-2.853-0.76-0.781
			c-0.287,0.865,1.499,2.181-1.519,3.439c-0.033-0.675,0.425-1.938-1.519-0.938c-0.138-1.762,0.123-2.563-0.759-4.066
			c-0.807-1.373-1.731,2.302-2.278,3.128c-0.381,0.576,1.374,1.388-1.519,1.72c-2.665-2.438,0.583-4.61-1.519-6.879
			c-0.462-0.5-0.133,1.925-0.759,3.439c-0.768,1.856-2.551,3.181-3.037,5.16c-0.981-2.353-0.066-5.095-1.519-7.35
			c-1.613,0.711,0.296,2.146-1.519,2.814c-0.437-0.274,0.918-0.919-0.759-0.938c-2.218,1.522,1.318,4.232-2.278,5.473
			c-0.504-2.347,1.01-5.107-0.759-7.193c-0.502,1.079-0.318-0.199-1.519-0.312c-0.416,2.625,0.505,5.524-2.278,7.661
			c-0.469-1.521,0.962-4.261-0.759-5.003c-0.476,0.476,0.972,1.347-0.759,1.563c0.44-0.507-0.518-0.727-0.759-1.094
			c0-0.418,0-0.834,0-1.251c0-0.209,0-0.418,0-0.626c-1.697,1.111-0.526,4.164-2.278,5.785c-0.688-0.797,1.566-2.198-1.519-2.502
			c-0.452,0.324,0.938,1.027-0.759,1.095c-0.44-1.857,0.618-3.171,0-4.378c-0.908-1.771-0.233,2.405-1.519,2.814
			c-0.499-1.096,1.002-2.604-0.759-3.44C119.668,27.559,123.994,25.01,119.481,25.102z"/>
	</g>
	<g>
		<path fill-rule="evenodd" clip-rule="evenodd" fill="#FFFFFF" d="M157.444,25.102c0-0.157,0-0.313,0-0.469
			c6.526-0.584,0.745-3.704,3.797-5.004c0.497,0.993-1.001,2.395,0.759,3.127c1.979-2.198-0.546-5.324,1.519-7.504
			c0.226,1.111-0.294,2.784,0,4.065c0.148,0.648,0.824,2.321,1.519,2.033c0.488-0.629-0.987-1.663,0.76-2.033
			c-0.065,0.222-0.126,0.443,0.759,0.469c-0.081-2.049,0.141-4.036,1.519-5.785c0.072,2.226-0.493,4.583,1.519,6.41
			c-0.065-0.222-0.125-0.442,0.759-0.469c0.231,0.758,1.229,5.136,1.519,2.814c0.24-1.928-0.979-5.091,1.519-6.723
			c1.038,2.122,1.315,5.082,2.278,7.974c0.368,1.106,0.638,0.785,0.759-0.626c0.72-1.624-1.61-3.875,1.519-5.003
			c0.095,1.038,1.247-0.171,2.278-0.312c0,0.753,0,2.041,0,3.126c0,0.924-0.606,2.618,0.759,2.346c0-0.157,0-0.313,0-0.469
			c3.523-1.411,1.339-3.998,3.797-5.629c0.585,0.696-1.409,3.119,1.519,2.345c0.484,0.578-0.983,1.558,0.759,1.877
			c2.521-1.514,0.354-3.993,3.037-5.473c-0.707,2.59,3.277,3.576,2.277,6.411c3.982-0.848-0.453-3.429,2.278-4.534
			c0.379,0.656-0.837,2.459,0.759,2.345c0.463-0.374-0.953-1.134,0.76-1.25c2.758,0.477,0.435,2.825,2.277,2.971
			c0.463-0.374-0.953-1.134,0.76-1.251c0.415,0.228-0.887,0.808,0.759,0.782c2.041-0.935-0.585-2.831,1.519-3.753
			c0.596,1.128,0.17,2.467,2.278,3.283c0.487-0.629-0.988-1.662,0.759-2.032c-0.104,1.274-0.087,3.351,1.519,3.752
			c0.529-0.621-1.323-1.732,1.519-1.876c0.415,0.227-0.887,0.808,0.76,0.781c0.502-1.46-1.007-3.334,0.759-4.534
			c0.048,1.764,0.366,4.301,1.519,5.316c0.451-0.324-0.938-1.028,0.76-1.095c1.547,0.944,2.146-0.745,3.036-0.625
			c1.431,0.192-2.122,2.026,0.76,0.782c0.463-0.374-0.953-1.135,0.759-1.251c0.438,0.275-0.918,0.919,0.76,0.939
			c0.157-0.646,1.527-0.275,2.277-0.939c0.492,0.733-0.992,1.873,0.76,2.345c0.012-0.414-0.421-0.92,1.519-0.938
			c0.024,0.679,1.685,1.835,2.277,1.876c0.471-0.424-0.964-1.24,0.76-1.407c-0.065,0.222-0.126,0.443,0.759,0.469
			c0.463-0.374-0.952-1.134,0.76-1.25c0.489,0.681-0.991,1.768,0.759,2.188c0.152-0.854,1.508-1.461,2.278-2.188
			c1.426,0.034,0.092,1.42,1.519,0.938c-0.393-1.756,0.655-0.705,2.277-1.563c0.472,0.581-1.234,1.609,1.519,1.72
			c0.437-0.275-0.918-0.918,0.759-0.938c-0.081,1.29,0.221,1.353,1.519,0.312c0.063,0.248-0.364,0.596,0.76,0.625
			c1.099-0.583,1.013-0.396,2.277,0c0.922-0.28,0.139-0.91,1.519-1.095c0.33,0.512-0.768,2.129,0.76,1.876
			c0.451-0.324-0.938-1.027,0.759-1.094c-0.1,0.206-0.114,1.131,0.76,0.625c0.235-0.473-0.843-1.216,1.519-1.25
			c1.819-0.062-0.422,0.711,2.277,0.469c1.583-0.404-0.269-1.515,1.519-1.876c-0.564,1.391,1.392,1.292,2.278,2.346
			c-0.529-0.704,1.561-0.418,2.277-0.157c0.48-0.526-0.978-1.453,0.76-1.72c0,0.886,0,1.772,0,2.658
			c2.243-0.372-0.726-1.817,1.518-2.189c0.063,0.248-0.364,0.597,0.76,0.625c0.497-0.992-1.001-2.395,0.759-3.127
			c0.782,0.986-1.701,2.644,1.519,3.127c0.063-0.248-0.364-0.596,0.76-0.625c0.415,0.228-0.888,0.809,0.759,0.782
			c0.416-0.227-0.887-0.808,0.76-0.782c-0.157,0.628,0.192,0.699,1.519,0.313c0.027,0.567-0.426,1.234,1.519,1.407
			c0.47-0.425-0.964-1.241,0.759-1.407c0.053,0.614,0.367,1.175,1.519,1.563c0,1.459,0,2.919,0,4.377
			c-2.634-0.073-0.435,0.85-2.277,0.939c-0.091-0.261,0.414-1.416-0.76-0.939c-0.47,0.426,0.964,1.241-0.759,1.408
			c2.193-0.688-2.546-1.097-1.519-0.469c-0.541-0.331,1.007-1.411-0.76-1.407c-0.483,0.577,0.983,1.558-0.759,1.876
			c-0.063-0.508-0.392-0.962-1.519-1.251c-0.012,0.415,0.421,0.921-1.519,0.938c-0.504-0.425-0.479-1.768-1.519-1.563
			c-0.472,0.58,1.234,1.609-1.519,1.72c0.118-0.599-0.039-1.139-1.519-1.407c0.121,1.309-1.646,1.397-2.277,2.657
			c0.082-1.215-0.173-2.361-1.519-3.283c0.157,0.449-0.193,0.795-1.519,0.938c-1.637-0.132,0.284-0.997-1.519-1.095
			c-1.333,0.56,0.117,1.692-1.519,2.189c-0.788-0.822-1.515-1.392-3.037-2.346c0.41,0.767-0.914,1.663-2.278,0.781
			c0.52,0.781-1.365,0.883-3.037,0.47c-0.483,0.577,0.983,1.558-0.759,1.876c-1.137-1.343-0.887-2.197-3.037-3.127
			c-1.413,1.377-0.907,3.148-2.277,4.534c0-0.989,0-1.98,0-2.97c-3.349-0.222-0.013,0.935-2.278,0.938
			c0.027-0.684,0.28-1.413-1.519-1.721c-1.602,0.333-1.047,1.128-2.277,1.877c0.037-0.789-0.296-1.503-1.519-2.032
			c-2.109,0.556,0.63,2.109-1.519,2.658c-0.887-0.808,1.852-2.362-1.519-2.658c-1.449,0.633-0.947,0.266-2.278-0.157
			c0.501,1.008-0.546,1.598-2.277,0.625c0.41,0.767-0.914,1.664-2.277,0.782c-0.814,0.614-0.165,1.53-1.519,2.033
			c0.332-0.537-0.3-0.876-0.76-1.251c0-0.469,0-0.938,0-1.407c0.44-0.318-0.518-1.231-0.759-0.47
			c1.165,0.54-0.704,2.305-1.519,2.189c-1.422-0.201,1.08-3.088-0.76-1.563c-0.494,0.837,0.997,2.082-0.759,2.658
			c-1.333-0.56,0.117-1.692-1.519-2.189c-1.127,0.499-0.005,1.459-1.519,1.877c0.025-0.642,0.229-3.729-0.76-2.188
			c-1.401,0.805-0.252,2.136-2.277,2.813c-0.091-0.26,0.415-1.415-0.76-0.938c-0.451,0.325,0.939,1.027-0.759,1.095
			c-0.319-0.716,0.978-1.765-1.519-2.032c0.134,0.502-1.519,2.962-1.519,0.938c0-0.536-0.069-2.853-0.76-0.781
			c-0.287,0.865,1.499,2.181-1.519,3.439c-0.033-0.675,0.425-1.938-1.519-0.938c-0.138-1.762,0.123-2.563-0.759-4.066
			c-0.807-1.373-1.731,2.302-2.277,3.128c-0.382,0.576,1.373,1.388-1.519,1.72c-2.665-2.438,0.582-4.61-1.519-6.879
			c-0.463-0.5-0.133,1.925-0.76,3.439c-0.768,1.856-2.551,3.181-3.037,5.16c-0.981-2.353-0.066-5.095-1.519-7.35
			c-1.613,0.711,0.296,2.146-1.519,2.814c-0.437-0.274,0.918-0.919-0.759-0.938c-2.219,1.522,1.318,4.232-2.278,5.473
			c-0.504-2.347,1.011-5.107-0.759-7.193c-0.502,1.079-0.318-0.199-1.519-0.312c-0.415,2.625,0.506,5.524-2.278,7.661
			c-0.469-1.521,0.963-4.261-0.759-5.003c-0.476,0.476,0.972,1.347-0.759,1.563c0.44-0.507-0.518-0.727-0.76-1.094
			c0-0.418,0-0.834,0-1.251c0-0.209,0-0.418,0-0.626c-1.697,1.111-0.526,4.164-2.277,5.785c-0.688-0.797,1.565-2.198-1.519-2.502
			c-0.452,0.324,0.938,1.027-0.76,1.095c-0.44-1.857,0.618-3.171,0-4.378c-0.907-1.771-0.232,2.405-1.519,2.814
			c-0.499-1.096,1.003-2.604-0.759-3.44C157.631,27.559,161.956,25.01,157.444,25.102z"/>
	</g>
	<g>
		<path fill-rule="evenodd" clip-rule="evenodd" fill="#FFFFFF" d="M187.815,25.102c0-0.157,0-0.313,0-0.469
			c6.526-0.584,0.744-3.704,3.796-5.004c0.497,0.993-1.001,2.395,0.759,3.127c1.98-2.198-0.545-5.324,1.519-7.504
			c0.226,1.111-0.293,2.784,0,4.065c0.148,0.648,0.825,2.321,1.519,2.033c0.488-0.629-0.987-1.663,0.76-2.033
			c-0.065,0.222-0.125,0.443,0.759,0.469c-0.081-2.049,0.142-4.036,1.519-5.785c0.073,2.226-0.493,4.583,1.519,6.41
			c-0.065-0.222-0.125-0.442,0.76-0.469c0.23,0.758,1.229,5.136,1.519,2.814c0.24-1.928-0.98-5.091,1.519-6.723
			c1.038,2.122,1.314,5.082,2.277,7.974c0.369,1.106,0.638,0.785,0.76-0.626c0.719-1.624-1.61-3.875,1.519-5.003
			c0.095,1.038,1.247-0.171,2.277-0.312c0,0.753,0,2.041,0,3.126c0,0.924-0.606,2.618,0.76,2.346c0-0.157,0-0.313,0-0.469
			c3.523-1.411,1.339-3.998,3.796-5.629c0.586,0.696-1.409,3.119,1.519,2.345c0.484,0.578-0.983,1.558,0.759,1.877
			c2.521-1.514,0.354-3.993,3.037-5.473c-0.707,2.59,3.277,3.576,2.278,6.411c3.981-0.848-0.454-3.429,2.277-4.534
			c0.379,0.656-0.837,2.459,0.76,2.345c0.462-0.374-0.954-1.134,0.759-1.25c2.759,0.477,0.435,2.825,2.278,2.971
			c0.462-0.374-0.954-1.134,0.759-1.251c0.415,0.228-0.887,0.808,0.76,0.782c2.04-0.935-0.585-2.831,1.519-3.753
			c0.595,1.128,0.169,2.467,2.277,3.283c0.488-0.629-0.987-1.662,0.759-2.032c-0.104,1.274-0.087,3.351,1.519,3.752
			c0.53-0.621-1.323-1.732,1.519-1.876c0.416,0.227-0.887,0.808,0.76,0.781c0.502-1.46-1.007-3.334,0.759-4.534
			c0.048,1.764,0.366,4.301,1.519,5.316c0.452-0.324-0.938-1.028,0.76-1.095c1.547,0.944,2.146-0.745,3.037-0.625
			c1.43,0.192-2.122,2.026,0.759,0.782c0.463-0.374-0.952-1.135,0.76-1.251c0.437,0.275-0.918,0.919,0.759,0.939
			c0.157-0.646,1.527-0.275,2.278-0.939c0.491,0.733-0.993,1.873,0.759,2.345c0.012-0.414-0.421-0.92,1.519-0.938
			c0.024,0.679,1.685,1.835,2.278,1.876c0.47-0.424-0.965-1.24,0.759-1.407c-0.065,0.222-0.125,0.443,0.759,0.469
			c0.463-0.374-0.952-1.134,0.76-1.25c0.489,0.681-0.99,1.768,0.759,2.188c0.152-0.854,1.508-1.461,2.278-2.188
			c1.427,0.034,0.092,1.42,1.519,0.938c-0.393-1.756,0.655-0.705,2.277-1.563c0.472,0.581-1.234,1.609,1.519,1.72
			c0.438-0.275-0.918-0.918,0.76-0.938c-0.082,1.29,0.22,1.353,1.519,0.312c0.062,0.248-0.365,0.596,0.759,0.625
			c1.099-0.583,1.013-0.396,2.278,0c0.921-0.28,0.139-0.91,1.519-1.095c0.33,0.512-0.768,2.129,0.759,1.876
			c0.452-0.324-0.938-1.027,0.76-1.094c-0.101,0.206-0.115,1.131,0.759,0.625c0.236-0.473-0.843-1.216,1.519-1.25
			c1.819-0.062-0.421,0.711,2.277,0.469c1.583-0.404-0.269-1.515,1.519-1.876c-0.563,1.391,1.393,1.292,2.278,2.346
			c-0.528-0.704,1.561-0.418,2.277-0.157c0.48-0.526-0.978-1.453,0.76-1.72c0,0.886,0,1.772,0,2.658
			c2.243-0.372-0.726-1.817,1.519-2.189c0.062,0.248-0.365,0.597,0.759,0.625c0.498-0.992-1.001-2.395,0.76-3.127
			c0.781,0.986-1.702,2.644,1.519,3.127c0.062-0.248-0.365-0.596,0.759-0.625c0.415,0.228-0.888,0.809,0.76,0.782
			c0.415-0.227-0.888-0.808,0.759-0.782c-0.157,0.628,0.193,0.699,1.519,0.313c0.027,0.567-0.426,1.234,1.519,1.407
			c0.47-0.425-0.964-1.241,0.76-1.407c0.052,0.614,0.366,1.175,1.519,1.563c0,1.459,0,2.919,0,4.377
			c-2.635-0.073-0.436,0.85-2.278,0.939c-0.091-0.261,0.415-1.416-0.759-0.939c-0.471,0.426,0.964,1.241-0.76,1.408
			c2.194-0.688-2.545-1.097-1.519-0.469c-0.541-0.331,1.007-1.411-0.759-1.407c-0.484,0.577,0.982,1.558-0.76,1.876
			c-0.063-0.508-0.392-0.962-1.519-1.251c-0.012,0.415,0.422,0.921-1.519,0.938c-0.503-0.425-0.478-1.768-1.519-1.563
			c-0.472,0.58,1.234,1.609-1.519,1.72c0.118-0.599-0.039-1.139-1.519-1.407c0.121,1.309-1.646,1.397-2.277,2.657
			c0.082-1.215-0.173-2.361-1.519-3.283c0.157,0.449-0.192,0.795-1.519,0.938c-1.637-0.132,0.285-0.997-1.519-1.095
			c-1.332,0.56,0.118,1.692-1.519,2.189c-0.788-0.822-1.515-1.392-3.037-2.346c0.41,0.767-0.914,1.663-2.277,0.781
			c0.519,0.781-1.366,0.883-3.037,0.47c-0.484,0.577,0.983,1.558-0.76,1.876c-1.137-1.343-0.887-2.197-3.037-3.127
			c-1.413,1.377-0.907,3.148-2.277,4.534c0-0.989,0-1.98,0-2.97c-3.349-0.222-0.013,0.935-2.278,0.938
			c0.027-0.684,0.28-1.413-1.519-1.721c-1.602,0.333-1.047,1.128-2.277,1.877c0.038-0.789-0.296-1.503-1.519-2.032
			c-2.108,0.556,0.63,2.109-1.519,2.658c-0.887-0.808,1.853-2.362-1.519-2.658c-1.448,0.633-0.947,0.266-2.277-0.157
			c0.5,1.008-0.547,1.598-2.278,0.625c0.41,0.767-0.914,1.664-2.277,0.782c-0.814,0.614-0.165,1.53-1.519,2.033
			c0.332-0.537-0.3-0.876-0.76-1.251c0-0.469,0-0.938,0-1.407c0.44-0.318-0.518-1.231-0.759-0.47
			c1.165,0.54-0.704,2.305-1.519,2.189c-1.422-0.201,1.08-3.088-0.76-1.563c-0.494,0.837,0.997,2.082-0.759,2.658
			c-1.332-0.56,0.118-1.692-1.519-2.189c-1.126,0.499-0.005,1.459-1.519,1.877c0.025-0.642,0.229-3.729-0.759-2.188
			c-1.402,0.805-0.253,2.136-2.278,2.813c-0.091-0.26,0.415-1.415-0.759-0.938c-0.452,0.325,0.938,1.027-0.76,1.095
			c-0.318-0.716,0.978-1.765-1.519-2.032c0.134,0.502-1.519,2.962-1.519,0.938c0-0.536-0.069-2.853-0.759-0.781
			c-0.288,0.865,1.498,2.181-1.519,3.439c-0.033-0.675,0.424-1.938-1.519-0.938c-0.138-1.762,0.122-2.563-0.76-4.066
			c-0.807-1.373-1.731,2.302-2.277,3.128c-0.381,0.576,1.373,1.388-1.519,1.72c-2.665-2.438,0.583-4.61-1.519-6.879
			c-0.463-0.5-0.133,1.925-0.76,3.439c-0.768,1.856-2.55,3.181-3.036,5.16c-0.982-2.353-0.067-5.095-1.519-7.35
			c-1.614,0.711,0.295,2.146-1.519,2.814c-0.438-0.274,0.918-0.919-0.76-0.938c-2.219,1.522,1.318,4.232-2.277,5.473
			c-0.505-2.347,1.01-5.107-0.76-7.193c-0.502,1.079-0.318-0.199-1.519-0.312c-0.415,2.625,0.506,5.524-2.277,7.661
			c-0.47-1.521,0.962-4.261-0.76-5.003c-0.476,0.476,0.973,1.347-0.759,1.563c0.44-0.507-0.518-0.727-0.76-1.094
			c0-0.418,0-0.834,0-1.251c0-0.209,0-0.418,0-0.626c-1.697,1.111-0.526,4.164-2.277,5.785c-0.688-0.797,1.565-2.198-1.519-2.502
			c-0.451,0.324,0.938,1.027-0.76,1.095c-0.44-1.857,0.619-3.171,0-4.378c-0.907-1.771-0.232,2.405-1.519,2.814
			c-0.499-1.096,1.003-2.604-0.759-3.44C188.001,27.559,192.327,25.01,187.815,25.102z"/>
	</g>
	<g>
		<path fill-rule="evenodd" clip-rule="evenodd" fill="#FFFFFF" d="M96.704,25.102c0-0.157,0-0.313,0-0.469
			c6.526-0.584,0.745-3.704,3.796-5.004c0.498,0.993-1.001,2.395,0.759,3.127c1.98-2.198-0.545-5.324,1.519-7.504
			c0.226,1.111-0.293,2.784,0,4.065c0.148,0.648,0.825,2.321,1.519,2.033c0.488-0.629-0.988-1.663,0.759-2.033
			c-0.065,0.222-0.125,0.443,0.759,0.469c-0.082-2.049,0.141-4.036,1.519-5.785c0.073,2.226-0.493,4.583,1.519,6.41
			c-0.065-0.222-0.125-0.442,0.759-0.469c0.23,0.758,1.229,5.136,1.519,2.814c0.24-1.928-0.98-5.091,1.519-6.723
			c1.038,2.122,1.314,5.082,2.278,7.974c0.368,1.106,0.637,0.785,0.759-0.626c0.719-1.624-1.611-3.875,1.518-5.003
			c0.095,1.038,1.248-0.171,2.278-0.312c0,0.753,0,2.041,0,3.126c0,0.924-0.606,2.618,0.759,2.346c0-0.157,0-0.313,0-0.469
			c3.523-1.411,1.339-3.998,3.796-5.629c0.586,0.696-1.409,3.119,1.519,2.345c0.485,0.578-0.983,1.558,0.759,1.877
			c2.521-1.514,0.354-3.993,3.037-5.473c-0.708,2.59,3.277,3.576,2.278,6.411c3.981-0.848-0.454-3.429,2.278-4.534
			c0.379,0.656-0.837,2.459,0.759,2.345c0.462-0.374-0.954-1.134,0.759-1.25c2.758,0.477,0.434,2.825,2.278,2.971
			c0.462-0.374-0.954-1.134,0.759-1.251c0.416,0.228-0.887,0.808,0.759,0.782c2.041-0.935-0.585-2.831,1.519-3.753
			c0.596,1.128,0.17,2.467,2.278,3.283c0.488-0.629-0.987-1.662,0.759-2.032c-0.104,1.274-0.087,3.351,1.519,3.752
			c0.529-0.621-1.323-1.732,1.519-1.876c0.415,0.227-0.887,0.808,0.759,0.781c0.502-1.46-1.007-3.334,0.759-4.534
			c0.047,1.764,0.366,4.301,1.519,5.316c0.452-0.324-0.939-1.028,0.759-1.095c1.548,0.944,2.146-0.745,3.037-0.625
			c1.43,0.192-2.122,2.026,0.759,0.782c0.463-0.374-0.952-1.135,0.76-1.251c0.437,0.275-0.918,0.919,0.759,0.939
			c0.157-0.646,1.527-0.275,2.278-0.939c0.491,0.733-0.993,1.873,0.759,2.345c0.012-0.414-0.421-0.92,1.519-0.938
			c0.024,0.679,1.685,1.835,2.278,1.876c0.47-0.424-0.964-1.24,0.759-1.407c-0.065,0.222-0.125,0.443,0.76,0.469
			c0.462-0.374-0.953-1.134,0.759-1.25c0.489,0.681-0.99,1.768,0.76,2.188c0.151-0.854,1.507-1.461,2.277-2.188
			c1.427,0.034,0.092,1.42,1.519,0.938c-0.393-1.756,0.655-0.705,2.277-1.563c0.472,0.581-1.234,1.609,1.519,1.72
			c0.438-0.275-0.918-0.918,0.76-0.938c-0.082,1.29,0.22,1.353,1.519,0.312c0.062,0.248-0.365,0.596,0.759,0.625
			c1.1-0.583,1.014-0.396,2.278,0c0.922-0.28,0.139-0.91,1.519-1.095c0.33,0.512-0.768,2.129,0.759,1.876
			c0.452-0.324-0.938-1.027,0.76-1.094c-0.101,0.206-0.115,1.131,0.759,0.625c0.236-0.473-0.843-1.216,1.519-1.25
			c1.819-0.062-0.421,0.711,2.278,0.469c1.583-0.404-0.27-1.515,1.519-1.876c-0.564,1.391,1.392,1.292,2.277,2.346
			c-0.528-0.704,1.561-0.418,2.277-0.157c0.48-0.526-0.978-1.453,0.76-1.72c0,0.886,0,1.772,0,2.658
			c2.243-0.372-0.726-1.817,1.519-2.189c0.062,0.248-0.365,0.597,0.759,0.625c0.498-0.992-1.001-2.395,0.76-3.127
			c0.781,0.986-1.702,2.644,1.519,3.127c0.062-0.248-0.365-0.596,0.759-0.625c0.415,0.228-0.888,0.809,0.76,0.782
			c0.415-0.227-0.888-0.808,0.759-0.782c-0.157,0.628,0.193,0.699,1.519,0.313c0.027,0.567-0.426,1.234,1.519,1.407
			c0.471-0.425-0.964-1.241,0.76-1.407c0.053,0.614,0.367,1.175,1.519,1.563c0,1.459,0,2.919,0,4.377
			c-2.635-0.073-0.436,0.85-2.278,0.939c-0.09-0.261,0.415-1.416-0.759-0.939c-0.471,0.426,0.964,1.241-0.76,1.408
			c2.194-0.688-2.545-1.097-1.519-0.469c-0.541-0.331,1.007-1.411-0.759-1.407c-0.484,0.577,0.983,1.558-0.76,1.876
			c-0.063-0.508-0.392-0.962-1.519-1.251c-0.012,0.415,0.422,0.921-1.519,0.938c-0.503-0.425-0.478-1.768-1.519-1.563
			c-0.471,0.58,1.235,1.609-1.519,1.72c0.118-0.599-0.039-1.139-1.519-1.407c0.121,1.309-1.646,1.397-2.277,2.657
			c0.082-1.215-0.173-2.361-1.519-3.283c0.157,0.449-0.192,0.795-1.519,0.938c-1.637-0.132,0.285-0.997-1.519-1.095
			c-1.332,0.56,0.118,1.692-1.519,2.189c-0.788-0.822-1.515-1.392-3.037-2.346c0.41,0.767-0.914,1.663-2.277,0.781
			c0.519,0.781-1.366,0.883-3.037,0.47c-0.484,0.577,0.983,1.558-0.76,1.876c-1.137-1.343-0.887-2.197-3.037-3.127
			c-1.413,1.377-0.907,3.148-2.277,4.534c0-0.989,0-1.98,0-2.97c-3.349-0.222-0.013,0.935-2.277,0.938
			c0.026-0.684,0.28-1.413-1.519-1.721c-1.602,0.333-1.047,1.128-2.278,1.877c0.038-0.789-0.296-1.503-1.519-2.032
			c-2.108,0.556,0.631,2.109-1.519,2.658c-0.887-0.808,1.853-2.362-1.519-2.658c-1.448,0.633-0.947,0.266-2.277-0.157
			c0.5,1.008-0.547,1.598-2.278,0.625c0.41,0.767-0.914,1.664-2.277,0.782c-0.814,0.614-0.165,1.53-1.519,2.033
			c0.332-0.537-0.3-0.876-0.759-1.251c0-0.469,0-0.938,0-1.407c0.44-0.318-0.518-1.231-0.759-0.47
			c1.166,0.54-0.704,2.305-1.519,2.189c-1.421-0.201,1.081-3.088-0.759-1.563c-0.495,0.837,0.997,2.082-0.759,2.658
			c-1.333-0.56,0.118-1.692-1.519-2.189c-1.126,0.499-0.004,1.459-1.519,1.877c0.025-0.642,0.229-3.729-0.759-2.188
			c-1.402,0.805-0.252,2.136-2.278,2.813c-0.09-0.26,0.416-1.415-0.759-0.938c-0.452,0.325,0.938,1.027-0.76,1.095
			c-0.318-0.716,0.978-1.765-1.518-2.032c0.133,0.502-1.519,2.962-1.519,0.938c0-0.536-0.07-2.853-0.759-0.781
			c-0.288,0.865,1.499,2.181-1.519,3.439c-0.034-0.675,0.424-1.938-1.519-0.938c-0.138-1.762,0.122-2.563-0.759-4.066
			c-0.807-1.373-1.731,2.302-2.278,3.128c-0.381,0.576,1.373,1.388-1.519,1.72c-2.665-2.438,0.583-4.61-1.519-6.879
			c-0.462-0.5-0.133,1.925-0.759,3.439c-0.768,1.856-2.551,3.181-3.037,5.16c-0.981-2.353-0.066-5.095-1.519-7.35
			c-1.613,0.711,0.296,2.146-1.519,2.814c-0.437-0.274,0.918-0.919-0.759-0.938c-2.218,1.522,1.318,4.232-2.277,5.473
			c-0.504-2.347,1.01-5.107-0.759-7.193c-0.502,1.079-0.318-0.199-1.519-0.312c-0.416,2.625,0.505,5.524-2.278,7.661
			c-0.469-1.521,0.962-4.261-0.759-5.003c-0.476,0.476,0.972,1.347-0.759,1.563c0.44-0.507-0.518-0.727-0.759-1.094
			c0-0.418,0-0.834,0-1.251c0-0.209,0-0.418,0-0.626c-1.697,1.111-0.526,4.164-2.278,5.785c-0.688-0.797,1.566-2.198-1.519-2.502
			c-0.452,0.324,0.938,1.027-0.759,1.095c-0.44-1.857,0.619-3.171,0-4.378c-0.908-1.771-0.233,2.405-1.519,2.814
			c-0.499-1.096,1.002-2.604-0.759-3.44C96.89,27.559,101.216,25.01,96.704,25.102z"/>
	</g>
	<g>
		<path fill-rule="evenodd" clip-rule="evenodd" fill="#FFFFFF" d="M35.963,25.102c0-0.157,0-0.313,0-0.469
			c6.526-0.584,0.745-3.704,3.796-5.004c0.498,0.993-1.001,2.395,0.759,3.127c1.979-2.198-0.546-5.324,1.519-7.504
			c0.226,1.111-0.293,2.784,0,4.065c0.148,0.648,0.825,2.321,1.519,2.033c0.488-0.629-0.988-1.663,0.759-2.033
			c-0.065,0.222-0.125,0.443,0.759,0.469c-0.082-2.049,0.141-4.036,1.519-5.785c0.073,2.226-0.493,4.583,1.519,6.41
			c-0.065-0.222-0.125-0.442,0.759-0.469c0.23,0.758,1.229,5.136,1.519,2.814c0.24-1.928-0.98-5.091,1.518-6.723
			c1.038,2.122,1.315,5.082,2.278,7.974c0.369,1.106,0.638,0.785,0.759-0.626c0.719-1.624-1.61-3.875,1.519-5.003
			c0.095,1.038,1.247-0.171,2.278-0.312c0,0.753,0,2.041,0,3.126c0,0.924-0.606,2.618,0.759,2.346c0-0.157,0-0.313,0-0.469
			c3.523-1.411,1.339-3.998,3.796-5.629c0.586,0.696-1.409,3.119,1.519,2.345c0.485,0.578-0.983,1.558,0.759,1.877
			c2.521-1.514,0.354-3.993,3.037-5.473c-0.708,2.59,3.277,3.576,2.278,6.411c3.981-0.848-0.454-3.429,2.278-4.534
			c0.378,0.656-0.837,2.459,0.759,2.345c0.463-0.374-0.953-1.134,0.759-1.25c2.758,0.477,0.435,2.825,2.278,2.971
			c0.463-0.374-0.953-1.134,0.759-1.251c0.416,0.228-0.887,0.808,0.759,0.782c2.041-0.935-0.585-2.831,1.519-3.753
			c0.596,1.128,0.17,2.467,2.278,3.283c0.488-0.629-0.988-1.662,0.759-2.032c-0.104,1.274-0.087,3.351,1.519,3.752
			c0.529-0.621-1.324-1.732,1.519-1.876c0.415,0.227-0.887,0.808,0.759,0.781c0.502-1.46-1.007-3.334,0.759-4.534
			c0.047,1.764,0.366,4.301,1.519,5.316c0.452-0.324-0.939-1.028,0.759-1.095c1.547,0.944,2.146-0.745,3.037-0.625
			c1.43,0.192-2.122,2.026,0.759,0.782c0.462-0.374-0.953-1.135,0.759-1.251c0.437,0.275-0.917,0.919,0.76,0.939
			c0.157-0.646,1.527-0.275,2.277-0.939c0.492,0.733-0.993,1.873,0.759,2.345c0.012-0.414-0.421-0.92,1.519-0.938
			c0.024,0.679,1.685,1.835,2.278,1.876c0.47-0.424-0.964-1.24,0.759-1.407c-0.065,0.222-0.125,0.443,0.759,0.469
			c0.463-0.374-0.953-1.134,0.759-1.25c0.489,0.681-0.991,1.768,0.759,2.188c0.152-0.854,1.507-1.461,2.278-2.188
			c1.427,0.034,0.092,1.42,1.519,0.938c-0.392-1.756,0.655-0.705,2.278-1.563c0.472,0.581-1.235,1.609,1.519,1.72
			c0.437-0.275-0.918-0.918,0.759-0.938c-0.082,1.29,0.22,1.353,1.519,0.312c0.063,0.248-0.365,0.596,0.759,0.625
			c1.099-0.583,1.013-0.396,2.277,0c0.922-0.28,0.139-0.91,1.519-1.095c0.33,0.512-0.767,2.129,0.759,1.876
			c0.452-0.324-0.938-1.027,0.759-1.094c-0.1,0.206-0.115,1.131,0.759,0.625c0.236-0.473-0.843-1.216,1.519-1.25
			c1.82-0.062-0.421,0.711,2.278,0.469c1.583-0.404-0.269-1.515,1.519-1.876c-0.564,1.391,1.392,1.292,2.278,2.346
			c-0.529-0.704,1.561-0.418,2.278-0.157c0.48-0.526-0.978-1.453,0.759-1.72c0,0.886,0,1.772,0,2.658
			c2.244-0.372-0.725-1.817,1.519-2.189c0.063,0.248-0.365,0.597,0.759,0.625c0.498-0.992-1.001-2.395,0.759-3.127
			c0.781,0.986-1.702,2.644,1.518,3.127c0.063-0.248-0.365-0.596,0.76-0.625c0.415,0.228-0.888,0.809,0.759,0.782
			c0.416-0.227-0.887-0.808,0.759-0.782c-0.157,0.628,0.193,0.699,1.519,0.313c0.028,0.567-0.425,1.234,1.519,1.407
			c0.47-0.425-0.964-1.241,0.759-1.407c0.053,0.614,0.367,1.175,1.519,1.563c0,1.459,0,2.919,0,4.377
			c-2.634-0.073-0.435,0.85-2.278,0.939c-0.09-0.261,0.415-1.416-0.759-0.939c-0.47,0.426,0.964,1.241-0.759,1.408
			c2.194-0.688-2.545-1.097-1.519-0.469c-0.541-0.331,1.007-1.411-0.759-1.407c-0.484,0.577,0.983,1.558-0.759,1.876
			c-0.064-0.508-0.392-0.962-1.519-1.251c-0.012,0.415,0.421,0.921-1.519,0.938c-0.503-0.425-0.479-1.768-1.519-1.563
			c-0.472,0.58,1.234,1.609-1.519,1.72c0.118-0.599-0.04-1.139-1.519-1.407c0.121,1.309-1.646,1.397-2.278,2.657
			c0.083-1.215-0.173-2.361-1.519-3.283c0.157,0.449-0.193,0.795-1.519,0.938c-1.636-0.132,0.285-0.997-1.519-1.095
			c-1.333,0.56,0.118,1.692-1.519,2.189c-0.788-0.822-1.515-1.392-3.037-2.346c0.41,0.767-0.914,1.663-2.278,0.781
			c0.519,0.781-1.366,0.883-3.037,0.47c-0.484,0.577,0.983,1.558-0.759,1.876c-1.137-1.343-0.887-2.197-3.037-3.127
			c-1.413,1.377-0.908,3.148-2.278,4.534c0-0.989,0-1.98,0-2.97c-3.349-0.222-0.013,0.935-2.278,0.938
			c0.027-0.684,0.28-1.413-1.519-1.721c-1.602,0.333-1.047,1.128-2.278,1.877c0.038-0.789-0.296-1.503-1.519-2.032
			c-2.108,0.556,0.63,2.109-1.519,2.658c-0.887-0.808,1.853-2.362-1.519-2.658c-1.449,0.633-0.947,0.266-2.278-0.157
			c0.501,1.008-0.546,1.598-2.277,0.625c0.41,0.767-0.915,1.664-2.278,0.782c-0.814,0.614-0.165,1.53-1.519,2.033
			c0.332-0.537-0.3-0.876-0.759-1.251c0-0.469,0-0.938,0-1.407c0.44-0.318-0.518-1.231-0.759-0.47
			c1.166,0.54-0.704,2.305-1.519,2.189c-1.421-0.201,1.08-3.088-0.759-1.563c-0.495,0.837,0.997,2.082-0.759,2.658
			c-1.333-0.56,0.118-1.692-1.519-2.189c-1.126,0.499-0.004,1.459-1.519,1.877c0.025-0.642,0.229-3.729-0.759-2.188
			c-1.402,0.805-0.252,2.136-2.278,2.813c-0.09-0.26,0.416-1.415-0.759-0.938c-0.451,0.325,0.939,1.027-0.759,1.095
			c-0.319-0.716,0.978-1.765-1.519-2.032c0.134,0.502-1.518,2.962-1.518,0.938c0-0.536-0.07-2.853-0.759-0.781
			c-0.288,0.865,1.498,2.181-1.519,3.439c-0.034-0.675,0.424-1.938-1.519-0.938c-0.138-1.762,0.122-2.563-0.759-4.066
			c-0.807-1.373-1.731,2.302-2.278,3.128c-0.381,0.576,1.373,1.388-1.519,1.72c-2.665-2.438,0.583-4.61-1.519-6.879
			c-0.463-0.5-0.133,1.925-0.759,3.439c-0.768,1.856-2.551,3.181-3.037,5.16c-0.981-2.353-0.067-5.095-1.519-7.35
			c-1.613,0.711,0.296,2.146-1.519,2.814c-0.437-0.274,0.918-0.919-0.759-0.938c-2.218,1.522,1.318,4.232-2.278,5.473
			c-0.504-2.347,1.01-5.107-0.759-7.193c-0.502,1.079-0.318-0.199-1.518-0.312c-0.416,2.625,0.505,5.524-2.278,7.661
			c-0.47-1.521,0.962-4.261-0.759-5.003c-0.476,0.476,0.972,1.347-0.759,1.563c0.44-0.507-0.518-0.727-0.759-1.094
			c0-0.418,0-0.834,0-1.251c0-0.209,0-0.418,0-0.626c-1.697,1.111-0.526,4.164-2.278,5.785c-0.688-0.797,1.566-2.198-1.519-2.502
			c-0.452,0.324,0.938,1.027-0.759,1.095c-0.44-1.857,0.618-3.171,0-4.378c-0.908-1.771-0.233,2.405-1.519,2.814
			c-0.499-1.096,1.002-2.604-0.759-3.44C36.149,27.559,40.475,25.01,35.963,25.102z"/>
	</g>
</g>
</svg>
