<?xml version="1.0" encoding="utf-8"?>
<!-- Generator: Adobe Illustrator 15.0.0, SVG Export Plug-In . SVG Version: 6.00 Build 0)  -->
<!DOCTYPE svg PUBLIC "-//W3C//DTD SVG 1.1//EN" "http://www.w3.org/Graphics/SVG/1.1/DTD/svg11.dtd">
<svg version="1.1" id="Layer_1" xmlns="http://www.w3.org/2000/svg" xmlns:xlink="http://www.w3.org/1999/xlink" x="0px" y="0px"
	 width="300px" height="50px" viewBox="0 0 300 50" enable-background="new 0 0 300 50" xml:space="preserve">
<g>
	<g>
		<path fill-rule="evenodd" clip-rule="evenodd" fill="#E2791D" d="M1,27.62c0-0.403,0-0.806,0-1.209
			c8.596-1.507,0.98-9.548,5-12.899c0.655,2.558-1.318,6.175,1,8.062C9.607,15.906,6.281,7.847,9,2.225
			c0.297,2.864-0.387,7.178,0,10.48c0.195,1.67,1.086,5.983,2,5.241c0.643-1.623-1.301-4.287,1-5.241
			c-0.086,0.573-0.165,1.142,1,1.209C12.893,8.631,13.186,3.509,15-1c0.096,5.739-0.649,11.817,2,16.527
			c-0.086-0.573-0.165-1.142,1-1.209c0.304,1.954,1.619,13.241,2,7.256c0.316-4.973-1.291-13.126,2-17.333
			c1.367,5.471,1.731,13.102,3,20.559c0.485,2.854,0.84,2.024,1-1.613c0.947-4.186-2.121-9.991,2-12.899
			c0.125,2.676,1.643-0.441,3-0.806c0,1.942,0,5.263,0,8.062c0,2.381-0.799,6.749,1,6.047c0-0.404,0-0.807,0-1.209
			c4.641-3.639,1.764-10.307,5-14.512c0.771,1.794-1.855,8.041,2,6.046c0.639,1.49-1.295,4.016,1,4.837
			c3.32-3.902,0.467-10.292,4-14.108c-0.932,6.678,4.316,9.22,3,16.527c5.244-2.187-0.598-8.841,3-11.69
			c0.499,1.691-1.103,6.34,1,6.046c0.609-0.964-1.256-2.925,1-3.225c3.633,1.229,0.572,7.284,3,7.659
			c0.609-0.964-1.256-2.925,1-3.225c0.547,0.586-1.168,2.083,1,2.016c2.688-2.41-0.771-7.298,2-9.674
			c0.784,2.909,0.224,6.359,3,8.465c0.643-1.623-1.301-4.286,1-5.24c-0.138,3.285-0.115,8.639,2,9.674
			c0.697-1.601-1.743-4.465,2-4.837c0.547,0.586-1.168,2.083,1,2.016c0.661-3.765-1.326-8.597,1-11.69
			c0.062,4.546,0.482,11.089,2,13.706c0.595-0.836-1.236-2.648,1-2.822c2.038,2.434,2.826-1.921,4-1.612
			c1.884,0.495-2.795,5.223,1,2.016c0.609-0.964-1.255-2.925,1-3.225c0.575,0.708-1.209,2.368,1,2.419
			c0.207-1.663,2.012-0.709,3-2.419c0.647,1.888-1.308,4.827,1,6.046c0.016-1.069-0.555-2.374,2-2.418
			c0.032,1.748,2.219,4.73,3,4.837c0.619-1.094-1.27-3.198,1-3.628c-0.086,0.572-0.165,1.142,1,1.209
			c0.609-0.964-1.255-2.925,1-3.225c0.645,1.756-1.305,4.557,1,5.644c0.2-2.204,1.985-3.768,3-5.644
			c1.879,0.087,0.121,3.662,2,2.418c-0.517-4.529,0.863-1.817,3-4.031c0.621,1.497-1.626,4.149,2,4.435
			c0.575-0.709-1.209-2.368,1-2.419c-0.107,3.326,0.29,3.487,2,0.806c0.083,0.639-0.48,1.538,1,1.613c1.447-1.503,1.334-1.02,3,0
			c1.214-0.721,0.183-2.346,2-2.822c0.435,1.32-1.011,5.49,1,4.837c0.595-0.835-1.236-2.647,1-2.821
			c-0.132,0.53-0.151,2.917,1,1.612c0.311-1.219-1.11-3.135,2-3.225c2.396-0.16-0.555,1.836,3,1.209
			c2.085-1.041-0.354-3.905,2-4.837c-0.743,3.586,1.833,3.331,3,6.047c-0.696-1.815,2.056-1.077,3-0.404
			c0.633-1.357-1.288-3.745,1-4.434c0,2.284,0,4.569,0,6.853c2.955-0.958-0.955-4.685,2-5.643c0.083,0.639-0.48,1.538,1,1.613
			c0.655-2.558-1.318-6.175,1-8.062c1.029,2.541-2.241,6.816,2,8.062c0.083-0.639-0.48-1.538,1-1.613
			c0.547,0.586-1.169,2.083,1,2.015c0.547-0.585-1.169-2.083,1-2.015c-0.207,1.618,0.254,1.803,2,0.806
			c0.036,1.464-0.561,3.183,2,3.628c0.619-1.094-1.27-3.199,1-3.628c0.069,1.584,0.483,3.03,2,4.031c0,3.763,0,7.524,0,11.286
			c-3.47-0.189-0.573,2.188-3,2.419c-0.119-0.671,0.546-3.65-1-2.419c-0.619,1.095,1.27,3.199-1,3.629
			c2.89-1.776-3.353-2.828-2-1.21c-0.713-0.853,1.326-3.638-1-3.627c-0.638,1.489,1.295,4.015-1,4.837
			c-0.084-1.31-0.516-2.48-2-3.225c-0.016,1.068,0.555,2.373-2,2.418c-0.663-1.096-0.63-4.557-2-4.03
			c-0.621,1.496,1.626,4.148-2,4.435c0.155-1.543-0.052-2.937-2-3.629c0.159,3.375-2.168,3.604-3,6.852
			c0.108-3.133-0.228-6.088-2-8.465c0.207,1.159-0.254,2.048-2,2.42c-2.155-0.341,0.375-2.57-2-2.822
			c-1.755,1.442,0.155,4.362-2,5.645c-1.038-2.12-1.995-3.588-4-6.048c0.54,1.976-1.204,4.287-3,2.016
			c0.684,2.011-1.799,2.275-4,1.21c-0.638,1.488,1.295,4.015-1,4.837c-1.497-3.464-1.168-5.666-4-8.062
			c-1.861,3.549-1.195,8.118-3,11.69c0-2.553,0-5.106,0-7.658c-4.41-0.569-0.017,2.41-3,2.418c0.035-1.762,0.369-3.643-2-4.435
			c-2.109,0.855-1.379,2.906-3,4.837c0.05-2.035-0.39-3.873-2-5.239c-2.777,1.433,0.83,5.439-2,6.853
			c-1.168-2.082,2.439-6.09-2-6.853c-1.908,1.633-1.248,0.685-3-0.403c0.659,2.598-0.72,4.116-3,1.611
			c0.54,1.976-1.204,4.287-3,2.016c-1.072,1.584-0.217,3.944-2,5.241c0.438-1.386-0.395-2.259-1-3.226c0-1.209,0-2.418,0-3.627
			c0.58-0.821-0.682-3.177-1-1.21c1.535,1.392-0.927,5.941-2,5.644c-1.872-0.52,1.423-7.962-1-4.031
			c-0.651,2.156,1.312,5.366-1,6.854c-1.755-1.443,0.155-4.363-2-5.645c-1.483,1.284-0.006,3.76-2,4.838
			c0.033-1.652,0.301-9.615-1-5.643c-1.847,2.076-0.332,5.508-3,7.255c-0.119-0.67,0.547-3.65-1-2.419
			c-0.595,0.836,1.236,2.648-1,2.822c-0.42-1.847,1.287-4.551-2-5.24c0.176,1.294-2,7.637-2,2.418c0-1.383-0.092-7.355-1-2.016
			c-0.379,2.231,1.974,5.621-2,8.868c-0.044-1.739,0.559-4.997-2-2.418c-0.182-4.542,0.161-6.608-1-10.481
			c-1.062-3.543-2.28,5.934-3,8.062c-0.502,1.486,1.809,3.578-2,4.435c-3.51-6.285,0.768-11.888-2-17.736
			c-0.609-1.288-0.175,4.965-1,8.868c-1.012,4.785-3.359,8.201-4,13.303c-1.293-6.064-0.088-13.134-2-18.947
			c-2.125,1.832,0.39,5.533-2,7.257c-0.575-0.708,1.209-2.369-1-2.419c-2.922,3.928,1.736,10.912-3,14.109
			c-0.664-6.049,1.33-13.167-1-18.543c-0.661,2.779-0.419-0.515-2-0.807C20.453,38.015,21.666,45.49,18,51
			c-0.618-3.92,1.268-10.986-1-12.899c-0.627,1.226,1.28,3.472-1,4.031c0.58-1.309-0.682-1.875-1-2.821c0-1.075,0-2.15,0-3.226
			c0-0.537,0-1.075,0-1.612c-2.235,2.864-0.693,10.736-3,14.915c-0.906-2.054,2.062-5.668-2-6.45c-0.595,0.835,1.236,2.648-1,2.822
			c-0.58-4.789,0.814-8.177,0-11.287c-1.195-4.564-0.307,6.2-2,7.256c-0.657-2.825,1.32-6.714-1-8.868
			C1.245,33.957,6.942,27.385,1,27.62z"/>
	</g>
	<g>
		<path fill-rule="evenodd" clip-rule="evenodd" fill="#E2791D" d="M81,27.62c0-0.403,0-0.806,0-1.209
			c8.596-1.507,0.98-9.548,5-12.899c0.655,2.558-1.318,6.175,1,8.062c2.607-5.667-0.719-13.727,2-19.349
			c0.297,2.864-0.387,7.178,0,10.48c0.195,1.67,1.086,5.983,2,5.241c0.643-1.623-1.301-4.287,1-5.241
			c-0.086,0.573-0.165,1.142,1,1.209C92.893,8.631,93.186,3.509,95-1c0.096,5.739-0.649,11.817,2,16.527
			c-0.086-0.573-0.165-1.142,1-1.209c0.304,1.954,1.619,13.241,2,7.256c0.316-4.973-1.291-13.126,2-17.333
			c1.367,5.471,1.731,13.102,3,20.559c0.485,2.854,0.84,2.024,1-1.613c0.947-4.186-2.121-9.991,2-12.899
			c0.125,2.676,1.643-0.441,3-0.806c0,1.942,0,5.263,0,8.062c0,2.381-0.799,6.749,1,6.047c0-0.404,0-0.807,0-1.209
			c4.641-3.639,1.764-10.307,5-14.512c0.771,1.794-1.855,8.041,2,6.046c0.639,1.49-1.295,4.016,1,4.837
			c3.32-3.902,0.467-10.292,4-14.108c-0.932,6.678,4.316,9.22,3,16.527c5.244-2.187-0.598-8.841,3-11.69
			c0.499,1.691-1.103,6.34,1,6.046c0.609-0.964-1.256-2.925,1-3.225c3.633,1.229,0.572,7.284,3,7.659
			c0.609-0.964-1.256-2.925,1-3.225c0.547,0.586-1.168,2.083,1,2.016c2.688-2.41-0.771-7.298,2-9.674
			c0.784,2.909,0.224,6.359,3,8.465c0.643-1.623-1.301-4.286,1-5.24c-0.138,3.285-0.115,8.639,2,9.674
			c0.697-1.601-1.743-4.465,2-4.837c0.547,0.586-1.168,2.083,1,2.016c0.661-3.765-1.326-8.597,1-11.69
			c0.062,4.546,0.482,11.089,2,13.706c0.595-0.836-1.236-2.648,1-2.822c2.038,2.434,2.826-1.921,4-1.612
			c1.884,0.495-2.795,5.223,1,2.016c0.609-0.964-1.255-2.925,1-3.225c0.575,0.708-1.209,2.368,1,2.419
			c0.207-1.663,2.012-0.709,3-2.419c0.647,1.888-1.308,4.827,1,6.046c0.016-1.069-0.555-2.374,2-2.418
			c0.032,1.748,2.219,4.73,3,4.837c0.619-1.094-1.27-3.198,1-3.628c-0.086,0.572-0.165,1.142,1,1.209
			c0.609-0.964-1.255-2.925,1-3.225c0.645,1.756-1.305,4.557,1,5.644c0.2-2.204,1.985-3.768,3-5.644
			c1.879,0.087,0.121,3.662,2,2.418c-0.517-4.529,0.863-1.817,3-4.031c0.621,1.497-1.626,4.149,2,4.435
			c0.575-0.709-1.209-2.368,1-2.419c-0.107,3.326,0.29,3.487,2,0.806c0.083,0.639-0.48,1.538,1,1.613c1.447-1.503,1.334-1.02,3,0
			c1.214-0.721,0.183-2.346,2-2.822c0.435,1.32-1.011,5.49,1,4.837c0.595-0.835-1.236-2.647,1-2.821
			c-0.132,0.53-0.151,2.917,1,1.612c0.311-1.219-1.11-3.135,2-3.225c2.396-0.16-0.555,1.836,3,1.209
			c2.085-1.041-0.354-3.905,2-4.837c-0.743,3.586,1.833,3.331,3,6.047c-0.696-1.815,2.056-1.077,3-0.404
			c0.633-1.357-1.288-3.745,1-4.434c0,2.284,0,4.569,0,6.853c2.955-0.958-0.955-4.685,2-5.643c0.083,0.639-0.48,1.538,1,1.613
			c0.655-2.558-1.318-6.175,1-8.062c1.029,2.541-2.241,6.816,2,8.062c0.083-0.639-0.48-1.538,1-1.613
			c0.547,0.586-1.169,2.083,1,2.015c0.547-0.585-1.169-2.083,1-2.015c-0.207,1.618,0.254,1.803,2,0.806
			c0.036,1.464-0.561,3.183,2,3.628c0.619-1.094-1.27-3.199,1-3.628c0.069,1.584,0.483,3.03,2,4.031c0,3.763,0,7.524,0,11.286
			c-3.47-0.189-0.573,2.188-3,2.419c-0.119-0.671,0.546-3.65-1-2.419c-0.619,1.095,1.27,3.199-1,3.629
			c2.89-1.776-3.353-2.828-2-1.21c-0.713-0.853,1.326-3.638-1-3.627c-0.638,1.489,1.295,4.015-1,4.837
			c-0.084-1.31-0.516-2.48-2-3.225c-0.016,1.068,0.555,2.373-2,2.418c-0.663-1.096-0.63-4.557-2-4.03
			c-0.621,1.496,1.626,4.148-2,4.435c0.155-1.543-0.052-2.937-2-3.629c0.159,3.375-2.168,3.604-3,6.852
			c0.108-3.133-0.228-6.088-2-8.465c0.207,1.159-0.254,2.048-2,2.42c-2.155-0.341,0.375-2.57-2-2.822
			c-1.755,1.442,0.155,4.362-2,5.645c-1.038-2.12-1.995-3.588-4-6.048c0.54,1.976-1.204,4.287-3,2.016
			c0.684,2.011-1.799,2.275-4,1.21c-0.638,1.488,1.295,4.015-1,4.837c-1.497-3.464-1.168-5.666-4-8.062
			c-1.861,3.549-1.195,8.118-3,11.69c0-2.553,0-5.106,0-7.658c-4.41-0.569-0.017,2.41-3,2.418c0.035-1.762,0.369-3.643-2-4.435
			c-2.109,0.855-1.379,2.906-3,4.837c0.05-2.035-0.39-3.873-2-5.239c-2.777,1.433,0.83,5.439-2,6.853
			c-1.168-2.082,2.439-6.09-2-6.853c-1.908,1.633-1.248,0.685-3-0.403c0.659,2.598-0.72,4.116-3,1.611
			c0.54,1.976-1.204,4.287-3,2.016c-1.072,1.584-0.217,3.944-2,5.241c0.438-1.386-0.395-2.259-1-3.226c0-1.209,0-2.418,0-3.627
			c0.58-0.821-0.682-3.177-1-1.21c1.535,1.392-0.927,5.941-2,5.644c-1.872-0.52,1.423-7.962-1-4.031
			c-0.651,2.156,1.312,5.366-1,6.854c-1.755-1.443,0.155-4.363-2-5.645c-1.483,1.284-0.006,3.76-2,4.838
			c0.033-1.652,0.301-9.615-1-5.643c-1.847,2.076-0.332,5.508-3,7.255c-0.119-0.67,0.547-3.65-1-2.419
			c-0.595,0.836,1.236,2.648-1,2.822c-0.42-1.847,1.287-4.551-2-5.24c0.176,1.294-2,7.637-2,2.418c0-1.383-0.092-7.355-1-2.016
			c-0.379,2.231,1.974,5.621-2,8.868c-0.044-1.739,0.559-4.997-2-2.418c-0.182-4.542,0.161-6.608-1-10.481
			c-1.062-3.543-2.28,5.934-3,8.062c-0.502,1.486,1.809,3.578-2,4.435c-3.51-6.285,0.768-11.888-2-17.736
			c-0.609-1.288-0.175,4.965-1,8.868c-1.012,4.785-3.359,8.201-4,13.303c-1.293-6.064-0.088-13.134-2-18.947
			c-2.125,1.832,0.39,5.533-2,7.257c-0.575-0.708,1.209-2.369-1-2.419c-2.922,3.928,1.736,10.912-3,14.109
			c-0.664-6.049,1.33-13.167-1-18.543c-0.661,2.779-0.419-0.515-2-0.807c-0.547,6.767,0.666,14.242-3,19.752
			c-0.618-3.92,1.268-10.986-1-12.899c-0.627,1.226,1.28,3.472-1,4.031c0.58-1.309-0.682-1.875-1-2.821c0-1.075,0-2.15,0-3.226
			c0-0.537,0-1.075,0-1.612c-2.235,2.864-0.693,10.736-3,14.915c-0.906-2.054,2.062-5.668-2-6.45c-0.595,0.835,1.236,2.648-1,2.822
			c-0.58-4.789,0.814-8.177,0-11.287c-1.195-4.564-0.307,6.2-2,7.256c-0.657-2.825,1.32-6.714-1-8.868
			C81.245,33.957,86.942,27.385,81,27.62z"/>
	</g>
	<g>
		<path fill-rule="evenodd" clip-rule="evenodd" fill="#E2791D" d="M161,27.62c0-0.403,0-0.806,0-1.209
			c8.596-1.507,0.98-9.548,5-12.899c0.655,2.558-1.318,6.175,1,8.062c2.607-5.667-0.719-13.727,2-19.349
			c0.297,2.864-0.387,7.178,0,10.48c0.195,1.67,1.086,5.983,2,5.241c0.643-1.623-1.301-4.287,1-5.241
			c-0.086,0.573-0.165,1.142,1,1.209C172.893,8.631,173.186,3.509,175-1c0.096,5.739-0.649,11.817,2,16.527
			c-0.086-0.573-0.165-1.142,1-1.209c0.304,1.954,1.619,13.241,2,7.256c0.316-4.973-1.291-13.126,2-17.333
			c1.367,5.471,1.731,13.102,3,20.559c0.485,2.854,0.84,2.024,1-1.613c0.947-4.186-2.121-9.991,2-12.899
			c0.125,2.676,1.643-0.441,3-0.806c0,1.942,0,5.263,0,8.062c0,2.381-0.799,6.749,1,6.047c0-0.404,0-0.807,0-1.209
			c4.641-3.639,1.764-10.307,5-14.512c0.771,1.794-1.855,8.041,2,6.046c0.639,1.49-1.295,4.016,1,4.837
			c3.32-3.902,0.467-10.292,4-14.108c-0.932,6.678,4.316,9.22,3,16.527c5.244-2.187-0.598-8.841,3-11.69
			c0.499,1.691-1.103,6.34,1,6.046c0.609-0.964-1.256-2.925,1-3.225c3.633,1.229,0.572,7.284,3,7.659
			c0.609-0.964-1.256-2.925,1-3.225c0.547,0.586-1.168,2.083,1,2.016c2.688-2.41-0.771-7.298,2-9.674
			c0.784,2.909,0.224,6.359,3,8.465c0.643-1.623-1.301-4.286,1-5.24c-0.138,3.285-0.115,8.639,2,9.674
			c0.697-1.601-1.743-4.465,2-4.837c0.547,0.586-1.168,2.083,1,2.016c0.661-3.765-1.326-8.597,1-11.69
			c0.062,4.546,0.482,11.089,2,13.706c0.595-0.836-1.236-2.648,1-2.822c2.038,2.434,2.826-1.921,4-1.612
			c1.884,0.495-2.795,5.223,1,2.016c0.609-0.964-1.255-2.925,1-3.225c0.575,0.708-1.209,2.368,1,2.419
			c0.207-1.663,2.012-0.709,3-2.419c0.647,1.888-1.308,4.827,1,6.046c0.016-1.069-0.555-2.374,2-2.418
			c0.032,1.748,2.219,4.73,3,4.837c0.619-1.094-1.27-3.198,1-3.628c-0.086,0.572-0.165,1.142,1,1.209
			c0.609-0.964-1.255-2.925,1-3.225c0.645,1.756-1.305,4.557,1,5.644c0.2-2.204,1.985-3.768,3-5.644
			c1.879,0.087,0.121,3.662,2,2.418c-0.517-4.529,0.863-1.817,3-4.031c0.621,1.497-1.626,4.149,2,4.435
			c0.575-0.709-1.209-2.368,1-2.419c-0.107,3.326,0.29,3.487,2,0.806c0.083,0.639-0.48,1.538,1,1.613c1.447-1.503,1.334-1.02,3,0
			c1.214-0.721,0.183-2.346,2-2.822c0.435,1.32-1.011,5.49,1,4.837c0.595-0.835-1.236-2.647,1-2.821
			c-0.132,0.53-0.151,2.917,1,1.612c0.311-1.219-1.11-3.135,2-3.225c2.396-0.16-0.555,1.836,3,1.209
			c2.085-1.041-0.354-3.905,2-4.837c-0.743,3.586,1.833,3.331,3,6.047c-0.696-1.815,2.056-1.077,3-0.404
			c0.633-1.357-1.288-3.745,1-4.434c0,2.284,0,4.569,0,6.853c2.955-0.958-0.955-4.685,2-5.643c0.083,0.639-0.48,1.538,1,1.613
			c0.655-2.558-1.318-6.175,1-8.062c1.029,2.541-2.241,6.816,2,8.062c0.083-0.639-0.48-1.538,1-1.613
			c0.547,0.586-1.169,2.083,1,2.015c0.547-0.585-1.169-2.083,1-2.015c-0.207,1.618,0.254,1.803,2,0.806
			c0.036,1.464-0.561,3.183,2,3.628c0.619-1.094-1.27-3.199,1-3.628c0.069,1.584,0.483,3.03,2,4.031c0,3.763,0,7.524,0,11.286
			c-3.47-0.189-0.573,2.188-3,2.419c-0.119-0.671,0.546-3.65-1-2.419c-0.619,1.095,1.27,3.199-1,3.629
			c2.89-1.776-3.353-2.828-2-1.21c-0.713-0.853,1.326-3.638-1-3.627c-0.638,1.489,1.295,4.015-1,4.837
			c-0.084-1.31-0.516-2.48-2-3.225c-0.016,1.068,0.555,2.373-2,2.418c-0.663-1.096-0.63-4.557-2-4.03
			c-0.621,1.496,1.626,4.148-2,4.435c0.155-1.543-0.052-2.937-2-3.629c0.159,3.375-2.168,3.604-3,6.852
			c0.108-3.133-0.228-6.088-2-8.465c0.207,1.159-0.254,2.048-2,2.42c-2.155-0.341,0.375-2.57-2-2.822
			c-1.755,1.442,0.155,4.362-2,5.645c-1.038-2.12-1.995-3.588-4-6.048c0.54,1.976-1.204,4.287-3,2.016
			c0.684,2.011-1.799,2.275-4,1.21c-0.638,1.488,1.295,4.015-1,4.837c-1.497-3.464-1.168-5.666-4-8.062
			c-1.861,3.549-1.195,8.118-3,11.69c0-2.553,0-5.106,0-7.658c-4.41-0.569-0.017,2.41-3,2.418c0.035-1.762,0.369-3.643-2-4.435
			c-2.109,0.855-1.379,2.906-3,4.837c0.05-2.035-0.39-3.873-2-5.239c-2.777,1.433,0.83,5.439-2,6.853
			c-1.168-2.082,2.439-6.09-2-6.853c-1.908,1.633-1.248,0.685-3-0.403c0.659,2.598-0.72,4.116-3,1.611
			c0.54,1.976-1.204,4.287-3,2.016c-1.072,1.584-0.217,3.944-2,5.241c0.438-1.386-0.395-2.259-1-3.226c0-1.209,0-2.418,0-3.627
			c0.58-0.821-0.682-3.177-1-1.21c1.535,1.392-0.927,5.941-2,5.644c-1.872-0.52,1.423-7.962-1-4.031
			c-0.651,2.156,1.312,5.366-1,6.854c-1.755-1.443,0.155-4.363-2-5.645c-1.483,1.284-0.006,3.76-2,4.838
			c0.033-1.652,0.301-9.615-1-5.643c-1.847,2.076-0.332,5.508-3,7.255c-0.119-0.67,0.547-3.65-1-2.419
			c-0.595,0.836,1.236,2.648-1,2.822c-0.42-1.847,1.287-4.551-2-5.24c0.176,1.294-2,7.637-2,2.418c0-1.383-0.092-7.355-1-2.016
			c-0.379,2.231,1.974,5.621-2,8.868c-0.044-1.739,0.559-4.997-2-2.418c-0.182-4.542,0.161-6.608-1-10.481
			c-1.062-3.543-2.28,5.934-3,8.062c-0.502,1.486,1.809,3.578-2,4.435c-3.51-6.285,0.768-11.888-2-17.736
			c-0.609-1.288-0.175,4.965-1,8.868c-1.012,4.785-3.359,8.201-4,13.303c-1.293-6.064-0.088-13.134-2-18.947
			c-2.125,1.832,0.39,5.533-2,7.257c-0.575-0.708,1.209-2.369-1-2.419c-2.922,3.928,1.736,10.912-3,14.109
			c-0.664-6.049,1.33-13.167-1-18.543c-0.661,2.779-0.419-0.515-2-0.807c-0.547,6.767,0.666,14.242-3,19.752
			c-0.618-3.92,1.268-10.986-1-12.899c-0.627,1.226,1.28,3.472-1,4.031c0.58-1.309-0.682-1.875-1-2.821c0-1.075,0-2.15,0-3.226
			c0-0.537,0-1.075,0-1.612c-2.235,2.864-0.693,10.736-3,14.915c-0.906-2.054,2.062-5.668-2-6.45c-0.595,0.835,1.236,2.648-1,2.822
			c-0.58-4.789,0.814-8.177,0-11.287c-1.195-4.564-0.307,6.2-2,7.256c-0.657-2.825,1.32-6.714-1-8.868
			C161.245,33.957,166.942,27.385,161,27.62z"/>
	</g>
	<g>
		<path fill-rule="evenodd" clip-rule="evenodd" fill="#E2791D" d="M211,27.62c0-0.403,0-0.806,0-1.209
			c8.596-1.507,0.98-9.548,5-12.899c0.655,2.558-1.318,6.175,1,8.062c2.607-5.667-0.719-13.727,2-19.349
			c0.297,2.864-0.387,7.178,0,10.48c0.195,1.67,1.086,5.983,2,5.241c0.643-1.623-1.301-4.287,1-5.241
			c-0.086,0.573-0.165,1.142,1,1.209C222.893,8.631,223.186,3.509,225-1c0.096,5.739-0.649,11.817,2,16.527
			c-0.086-0.573-0.165-1.142,1-1.209c0.304,1.954,1.619,13.241,2,7.256c0.316-4.973-1.291-13.126,2-17.333
			c1.367,5.471,1.731,13.102,3,20.559c0.485,2.854,0.84,2.024,1-1.613c0.947-4.186-2.121-9.991,2-12.899
			c0.125,2.676,1.643-0.441,3-0.806c0,1.942,0,5.263,0,8.062c0,2.381-0.799,6.749,1,6.047c0-0.404,0-0.807,0-1.209
			c4.641-3.639,1.764-10.307,5-14.512c0.771,1.794-1.855,8.041,2,6.046c0.639,1.49-1.295,4.016,1,4.837
			c3.32-3.902,0.467-10.292,4-14.108c-0.932,6.678,4.316,9.22,3,16.527c5.244-2.187-0.598-8.841,3-11.69
			c0.499,1.691-1.103,6.34,1,6.046c0.609-0.964-1.256-2.925,1-3.225c3.633,1.229,0.572,7.284,3,7.659
			c0.609-0.964-1.256-2.925,1-3.225c0.547,0.586-1.168,2.083,1,2.016c2.688-2.41-0.771-7.298,2-9.674
			c0.784,2.909,0.224,6.359,3,8.465c0.643-1.623-1.301-4.286,1-5.24c-0.138,3.285-0.115,8.639,2,9.674
			c0.697-1.601-1.743-4.465,2-4.837c0.547,0.586-1.168,2.083,1,2.016c0.661-3.765-1.326-8.597,1-11.69
			c0.062,4.546,0.482,11.089,2,13.706c0.595-0.836-1.236-2.648,1-2.822c2.038,2.434,2.826-1.921,4-1.612
			c1.884,0.495-2.795,5.223,1,2.016c0.609-0.964-1.255-2.925,1-3.225c0.575,0.708-1.209,2.368,1,2.419
			c0.207-1.663,2.012-0.709,3-2.419c0.647,1.888-1.308,4.827,1,6.046c0.016-1.069-0.555-2.374,2-2.418
			c0.032,1.748,2.219,4.73,3,4.837c0.619-1.094-1.27-3.198,1-3.628c-0.086,0.572-0.165,1.142,1,1.209
			c0.609-0.964-1.255-2.925,1-3.225c0.645,1.756-1.305,4.557,1,5.644c0.2-2.204,1.985-3.768,3-5.644
			c1.879,0.087,0.121,3.662,2,2.418c-0.517-4.529,0.863-1.817,3-4.031c0.621,1.497-1.626,4.149,2,4.435
			c0.575-0.709-1.209-2.368,1-2.419c-0.107,3.326,0.29,3.487,2,0.806c0.083,0.639-0.48,1.538,1,1.613c1.447-1.503,1.334-1.02,3,0
			c1.214-0.721,0.183-2.346,2-2.822c0.435,1.32-1.011,5.49,1,4.837c0.595-0.835-1.236-2.647,1-2.821
			c-0.132,0.53-0.151,2.917,1,1.612c0.311-1.219-1.11-3.135,2-3.225c2.396-0.16-0.555,1.836,3,1.209
			c2.085-1.041-0.354-3.905,2-4.837c-0.743,3.586,1.833,3.331,3,6.047c-0.696-1.815,2.056-1.077,3-0.404
			c0.633-1.357-1.288-3.745,1-4.434c0,2.284,0,4.569,0,6.853c2.955-0.958-0.955-4.685,2-5.643c0.083,0.639-0.48,1.538,1,1.613
			c0.655-2.558-1.318-6.175,1-8.062c1.029,2.541-2.241,6.816,2,8.062c0.083-0.639-0.48-1.538,1-1.613
			c0.547,0.586-1.169,2.083,1,2.015c0.547-0.585-1.169-2.083,1-2.015c-0.207,1.618,0.254,1.803,2,0.806
			c0.036,1.464-0.561,3.183,2,3.628c0.619-1.094-1.27-3.199,1-3.628c0.069,1.584,0.483,3.03,2,4.031c0,3.763,0,7.524,0,11.286
			c-3.47-0.189-0.573,2.188-3,2.419c-0.119-0.671,0.546-3.65-1-2.419c-0.619,1.095,1.27,3.199-1,3.629
			c2.89-1.776-3.353-2.828-2-1.21c-0.713-0.853,1.326-3.638-1-3.627c-0.638,1.489,1.295,4.015-1,4.837
			c-0.084-1.31-0.516-2.48-2-3.225c-0.016,1.068,0.555,2.373-2,2.418c-0.663-1.096-0.63-4.557-2-4.03
			c-0.621,1.496,1.626,4.148-2,4.435c0.155-1.543-0.052-2.937-2-3.629c0.159,3.375-2.168,3.604-3,6.852
			c0.108-3.133-0.228-6.088-2-8.465c0.207,1.159-0.254,2.048-2,2.42c-2.155-0.341,0.375-2.57-2-2.822
			c-1.755,1.442,0.155,4.362-2,5.645c-1.038-2.12-1.995-3.588-4-6.048c0.54,1.976-1.204,4.287-3,2.016
			c0.684,2.011-1.799,2.275-4,1.21c-0.638,1.488,1.295,4.015-1,4.837c-1.497-3.464-1.168-5.666-4-8.062
			c-1.861,3.549-1.195,8.118-3,11.69c0-2.553,0-5.106,0-7.658c-4.41-0.569-0.017,2.41-3,2.418c0.035-1.762,0.369-3.643-2-4.435
			c-2.109,0.855-1.379,2.906-3,4.837c0.05-2.035-0.39-3.873-2-5.239c-2.777,1.433,0.83,5.439-2,6.853
			c-1.168-2.082,2.439-6.09-2-6.853c-1.908,1.633-1.248,0.685-3-0.403c0.659,2.598-0.72,4.116-3,1.611
			c0.54,1.976-1.204,4.287-3,2.016c-1.072,1.584-0.217,3.944-2,5.241c0.438-1.386-0.395-2.259-1-3.226c0-1.209,0-2.418,0-3.627
			c0.58-0.821-0.682-3.177-1-1.21c1.535,1.392-0.927,5.941-2,5.644c-1.872-0.52,1.423-7.962-1-4.031
			c-0.651,2.156,1.312,5.366-1,6.854c-1.755-1.443,0.155-4.363-2-5.645c-1.483,1.284-0.006,3.76-2,4.838
			c0.033-1.652,0.301-9.615-1-5.643c-1.847,2.076-0.332,5.508-3,7.255c-0.119-0.67,0.547-3.65-1-2.419
			c-0.595,0.836,1.236,2.648-1,2.822c-0.42-1.847,1.287-4.551-2-5.24c0.176,1.294-2,7.637-2,2.418c0-1.383-0.092-7.355-1-2.016
			c-0.379,2.231,1.974,5.621-2,8.868c-0.044-1.739,0.559-4.997-2-2.418c-0.182-4.542,0.161-6.608-1-10.481
			c-1.062-3.543-2.28,5.934-3,8.062c-0.502,1.486,1.809,3.578-2,4.435c-3.51-6.285,0.768-11.888-2-17.736
			c-0.609-1.288-0.175,4.965-1,8.868c-1.012,4.785-3.359,8.201-4,13.303c-1.293-6.064-0.088-13.134-2-18.947
			c-2.125,1.832,0.39,5.533-2,7.257c-0.575-0.708,1.209-2.369-1-2.419c-2.922,3.928,1.736,10.912-3,14.109
			c-0.664-6.049,1.33-13.167-1-18.543c-0.661,2.779-0.419-0.515-2-0.807c-0.547,6.767,0.666,14.242-3,19.752
			c-0.618-3.92,1.268-10.986-1-12.899c-0.627,1.226,1.28,3.472-1,4.031c0.58-1.309-0.682-1.875-1-2.821c0-1.075,0-2.15,0-3.226
			c0-0.537,0-1.075,0-1.612c-2.235,2.864-0.693,10.736-3,14.915c-0.906-2.054,2.062-5.668-2-6.45c-0.595,0.835,1.236,2.648-1,2.822
			c-0.58-4.789,0.814-8.177,0-11.287c-1.195-4.564-0.307,6.2-2,7.256c-0.657-2.825,1.32-6.714-1-8.868
			C211.245,33.957,216.942,27.385,211,27.62z"/>
	</g>
	<g>
		<path fill-rule="evenodd" clip-rule="evenodd" fill="#E2791D" d="M251,27.62c0-0.403,0-0.806,0-1.209
			c8.596-1.507,0.98-9.548,5-12.899c0.655,2.558-1.318,6.175,1,8.062c2.607-5.667-0.719-13.727,2-19.349
			c0.297,2.864-0.387,7.178,0,10.48c0.195,1.67,1.086,5.983,2,5.241c0.643-1.623-1.301-4.287,1-5.241
			c-0.086,0.573-0.165,1.142,1,1.209C262.893,8.631,263.186,3.509,265-1c0.096,5.739-0.649,11.817,2,16.527
			c-0.086-0.573-0.165-1.142,1-1.209c0.304,1.954,1.619,13.241,2,7.256c0.316-4.973-1.291-13.126,2-17.333
			c1.367,5.471,1.731,13.102,3,20.559c0.485,2.854,0.84,2.024,1-1.613c0.947-4.186-2.121-9.991,2-12.899
			c0.125,2.676,1.643-0.441,3-0.806c0,1.942,0,5.263,0,8.062c0,2.381-0.799,6.749,1,6.047c0-0.404,0-0.807,0-1.209
			c4.641-3.639,1.764-10.307,5-14.512c0.771,1.794-1.855,8.041,2,6.046c0.639,1.49-1.295,4.016,1,4.837
			c3.32-3.902,0.467-10.292,4-14.108c-0.932,6.678,4.316,9.22,3,16.527c5.244-2.187-0.598-8.841,3-11.69
			c0.499,1.691-1.103,6.34,1,6.046c0.609-0.964-1.256-2.925,1-3.225c3.633,1.229,0.572,7.284,3,7.659
			c0.609-0.964-1.256-2.925,1-3.225c0.547,0.586-1.168,2.083,1,2.016c2.688-2.41-0.771-7.298,2-9.674
			c0.784,2.909,0.224,6.359,3,8.465c0.643-1.623-1.301-4.286,1-5.24c-0.138,3.285-0.115,8.639,2,9.674
			c0.697-1.601-1.743-4.465,2-4.837c0.547,0.586-1.168,2.083,1,2.016c0.661-3.765-1.326-8.597,1-11.69
			c0.062,4.546,0.482,11.089,2,13.706c0.595-0.836-1.236-2.648,1-2.822c2.038,2.434,2.826-1.921,4-1.612
			c1.884,0.495-2.795,5.223,1,2.016c0.609-0.964-1.255-2.925,1-3.225c0.575,0.708-1.209,2.368,1,2.419
			c0.207-1.663,2.012-0.709,3-2.419c0.647,1.888-1.308,4.827,1,6.046c0.016-1.069-0.555-2.374,2-2.418
			c0.032,1.748,2.219,4.73,3,4.837c0.619-1.094-1.27-3.198,1-3.628c-0.086,0.572-0.165,1.142,1,1.209
			c0.609-0.964-1.255-2.925,1-3.225c0.645,1.756-1.305,4.557,1,5.644c0.2-2.204,1.985-3.768,3-5.644
			c1.879,0.087,0.121,3.662,2,2.418c-0.517-4.529,0.863-1.817,3-4.031c0.621,1.497-1.626,4.149,2,4.435
			c0.575-0.709-1.209-2.368,1-2.419c-0.107,3.326,0.29,3.487,2,0.806c0.083,0.639-0.48,1.538,1,1.613c1.447-1.503,1.334-1.02,3,0
			c1.214-0.721,0.183-2.346,2-2.822c0.435,1.32-1.011,5.49,1,4.837c0.595-0.835-1.236-2.647,1-2.821
			c-0.132,0.53-0.151,2.917,1,1.612c0.311-1.219-1.11-3.135,2-3.225c2.396-0.16-0.555,1.836,3,1.209
			c2.085-1.041-0.354-3.905,2-4.837c-0.743,3.586,1.833,3.331,3,6.047c-0.696-1.815,2.056-1.077,3-0.404
			c0.633-1.357-1.288-3.745,1-4.434c0,2.284,0,4.569,0,6.853c2.955-0.958-0.955-4.685,2-5.643c0.083,0.639-0.48,1.538,1,1.613
			c0.655-2.558-1.318-6.175,1-8.062c1.029,2.541-2.241,6.816,2,8.062c0.083-0.639-0.48-1.538,1-1.613
			c0.547,0.586-1.169,2.083,1,2.015c0.547-0.585-1.169-2.083,1-2.015c-0.207,1.618,0.254,1.803,2,0.806
			c0.036,1.464-0.561,3.183,2,3.628c0.619-1.094-1.27-3.199,1-3.628c0.069,1.584,0.483,3.03,2,4.031c0,3.763,0,7.524,0,11.286
			c-3.47-0.189-0.573,2.188-3,2.419c-0.119-0.671,0.546-3.65-1-2.419c-0.619,1.095,1.27,3.199-1,3.629
			c2.89-1.776-3.353-2.828-2-1.21c-0.713-0.853,1.326-3.638-1-3.627c-0.638,1.489,1.295,4.015-1,4.837
			c-0.084-1.31-0.516-2.48-2-3.225c-0.016,1.068,0.555,2.373-2,2.418c-0.663-1.096-0.63-4.557-2-4.03
			c-0.621,1.496,1.626,4.148-2,4.435c0.155-1.543-0.052-2.937-2-3.629c0.159,3.375-2.168,3.604-3,6.852
			c0.108-3.133-0.228-6.088-2-8.465c0.207,1.159-0.254,2.048-2,2.42c-2.155-0.341,0.375-2.57-2-2.822
			c-1.755,1.442,0.155,4.362-2,5.645c-1.038-2.12-1.995-3.588-4-6.048c0.54,1.976-1.204,4.287-3,2.016
			c0.684,2.011-1.799,2.275-4,1.21c-0.638,1.488,1.295,4.015-1,4.837c-1.497-3.464-1.168-5.666-4-8.062
			c-1.861,3.549-1.195,8.118-3,11.69c0-2.553,0-5.106,0-7.658c-4.41-0.569-0.017,2.41-3,2.418c0.035-1.762,0.369-3.643-2-4.435
			c-2.109,0.855-1.379,2.906-3,4.837c0.05-2.035-0.39-3.873-2-5.239c-2.777,1.433,0.83,5.439-2,6.853
			c-1.168-2.082,2.439-6.09-2-6.853c-1.908,1.633-1.248,0.685-3-0.403c0.659,2.598-0.72,4.116-3,1.611
			c0.54,1.976-1.204,4.287-3,2.016c-1.072,1.584-0.217,3.944-2,5.241c0.438-1.386-0.395-2.259-1-3.226c0-1.209,0-2.418,0-3.627
			c0.58-0.821-0.682-3.177-1-1.21c1.535,1.392-0.927,5.941-2,5.644c-1.872-0.52,1.423-7.962-1-4.031
			c-0.651,2.156,1.312,5.366-1,6.854c-1.755-1.443,0.155-4.363-2-5.645c-1.483,1.284-0.006,3.76-2,4.838
			c0.033-1.652,0.301-9.615-1-5.643c-1.847,2.076-0.332,5.508-3,7.255c-0.119-0.67,0.547-3.65-1-2.419
			c-0.595,0.836,1.236,2.648-1,2.822c-0.42-1.847,1.287-4.551-2-5.24c0.176,1.294-2,7.637-2,2.418c0-1.383-0.092-7.355-1-2.016
			c-0.379,2.231,1.974,5.621-2,8.868c-0.044-1.739,0.559-4.997-2-2.418c-0.182-4.542,0.161-6.608-1-10.481
			c-1.062-3.543-2.28,5.934-3,8.062c-0.502,1.486,1.809,3.578-2,4.435c-3.51-6.285,0.768-11.888-2-17.736
			c-0.609-1.288-0.175,4.965-1,8.868c-1.012,4.785-3.359,8.201-4,13.303c-1.293-6.064-0.088-13.134-2-18.947
			c-2.125,1.832,0.39,5.533-2,7.257c-0.575-0.708,1.209-2.369-1-2.419c-2.922,3.928,1.736,10.912-3,14.109
			c-0.664-6.049,1.33-13.167-1-18.543c-0.661,2.779-0.419-0.515-2-0.807c-0.547,6.767,0.666,14.242-3,19.752
			c-0.618-3.92,1.268-10.986-1-12.899c-0.627,1.226,1.28,3.472-1,4.031c0.58-1.309-0.682-1.875-1-2.821c0-1.075,0-2.15,0-3.226
			c0-0.537,0-1.075,0-1.612c-2.235,2.864-0.693,10.736-3,14.915c-0.906-2.054,2.062-5.668-2-6.45c-0.595,0.835,1.236,2.648-1,2.822
			c-0.58-4.789,0.814-8.177,0-11.287c-1.195-4.564-0.307,6.2-2,7.256c-0.657-2.825,1.32-6.714-1-8.868
			C251.245,33.957,256.942,27.385,251,27.62z"/>
	</g>
	<g>
		<path fill-rule="evenodd" clip-rule="evenodd" fill="#E2791D" d="M131,27.62c0-0.403,0-0.806,0-1.209
			c8.596-1.507,0.98-9.548,5-12.899c0.655,2.558-1.318,6.175,1,8.062c2.607-5.667-0.719-13.727,2-19.349
			c0.297,2.864-0.387,7.178,0,10.48c0.195,1.67,1.086,5.983,2,5.241c0.643-1.623-1.301-4.287,1-5.241
			c-0.086,0.573-0.165,1.142,1,1.209C142.893,8.631,143.186,3.509,145-1c0.096,5.739-0.649,11.817,2,16.527
			c-0.086-0.573-0.165-1.142,1-1.209c0.304,1.954,1.619,13.241,2,7.256c0.316-4.973-1.291-13.126,2-17.333
			c1.367,5.471,1.731,13.102,3,20.559c0.485,2.854,0.84,2.024,1-1.613c0.947-4.186-2.121-9.991,2-12.899
			c0.125,2.676,1.643-0.441,3-0.806c0,1.942,0,5.263,0,8.062c0,2.381-0.799,6.749,1,6.047c0-0.404,0-0.807,0-1.209
			c4.641-3.639,1.764-10.307,5-14.512c0.771,1.794-1.855,8.041,2,6.046c0.639,1.49-1.295,4.016,1,4.837
			c3.32-3.902,0.467-10.292,4-14.108c-0.932,6.678,4.316,9.22,3,16.527c5.244-2.187-0.598-8.841,3-11.69
			c0.499,1.691-1.103,6.34,1,6.046c0.609-0.964-1.256-2.925,1-3.225c3.633,1.229,0.572,7.284,3,7.659
			c0.609-0.964-1.256-2.925,1-3.225c0.547,0.586-1.168,2.083,1,2.016c2.688-2.41-0.771-7.298,2-9.674
			c0.784,2.909,0.224,6.359,3,8.465c0.643-1.623-1.301-4.286,1-5.24c-0.138,3.285-0.115,8.639,2,9.674
			c0.697-1.601-1.743-4.465,2-4.837c0.547,0.586-1.168,2.083,1,2.016c0.661-3.765-1.326-8.597,1-11.69
			c0.062,4.546,0.482,11.089,2,13.706c0.595-0.836-1.236-2.648,1-2.822c2.038,2.434,2.826-1.921,4-1.612
			c1.884,0.495-2.795,5.223,1,2.016c0.609-0.964-1.255-2.925,1-3.225c0.575,0.708-1.209,2.368,1,2.419
			c0.207-1.663,2.012-0.709,3-2.419c0.647,1.888-1.308,4.827,1,6.046c0.016-1.069-0.555-2.374,2-2.418
			c0.032,1.748,2.219,4.73,3,4.837c0.619-1.094-1.27-3.198,1-3.628c-0.086,0.572-0.165,1.142,1,1.209
			c0.609-0.964-1.255-2.925,1-3.225c0.645,1.756-1.305,4.557,1,5.644c0.2-2.204,1.985-3.768,3-5.644
			c1.879,0.087,0.121,3.662,2,2.418c-0.517-4.529,0.863-1.817,3-4.031c0.621,1.497-1.626,4.149,2,4.435
			c0.575-0.709-1.209-2.368,1-2.419c-0.107,3.326,0.29,3.487,2,0.806c0.083,0.639-0.48,1.538,1,1.613c1.447-1.503,1.334-1.02,3,0
			c1.214-0.721,0.183-2.346,2-2.822c0.435,1.32-1.011,5.49,1,4.837c0.595-0.835-1.236-2.647,1-2.821
			c-0.132,0.53-0.151,2.917,1,1.612c0.311-1.219-1.11-3.135,2-3.225c2.396-0.16-0.555,1.836,3,1.209
			c2.085-1.041-0.354-3.905,2-4.837c-0.743,3.586,1.833,3.331,3,6.047c-0.696-1.815,2.056-1.077,3-0.404
			c0.633-1.357-1.288-3.745,1-4.434c0,2.284,0,4.569,0,6.853c2.955-0.958-0.955-4.685,2-5.643c0.083,0.639-0.48,1.538,1,1.613
			c0.655-2.558-1.318-6.175,1-8.062c1.029,2.541-2.241,6.816,2,8.062c0.083-0.639-0.48-1.538,1-1.613
			c0.547,0.586-1.169,2.083,1,2.015c0.547-0.585-1.169-2.083,1-2.015c-0.207,1.618,0.254,1.803,2,0.806
			c0.036,1.464-0.561,3.183,2,3.628c0.619-1.094-1.27-3.199,1-3.628c0.069,1.584,0.483,3.03,2,4.031c0,3.763,0,7.524,0,11.286
			c-3.47-0.189-0.573,2.188-3,2.419c-0.119-0.671,0.546-3.65-1-2.419c-0.619,1.095,1.27,3.199-1,3.629
			c2.89-1.776-3.353-2.828-2-1.21c-0.713-0.853,1.326-3.638-1-3.627c-0.638,1.489,1.295,4.015-1,4.837
			c-0.084-1.31-0.516-2.48-2-3.225c-0.016,1.068,0.555,2.373-2,2.418c-0.663-1.096-0.63-4.557-2-4.03
			c-0.621,1.496,1.626,4.148-2,4.435c0.155-1.543-0.052-2.937-2-3.629c0.159,3.375-2.168,3.604-3,6.852
			c0.108-3.133-0.228-6.088-2-8.465c0.207,1.159-0.254,2.048-2,2.42c-2.155-0.341,0.375-2.57-2-2.822
			c-1.755,1.442,0.155,4.362-2,5.645c-1.038-2.12-1.995-3.588-4-6.048c0.54,1.976-1.204,4.287-3,2.016
			c0.684,2.011-1.799,2.275-4,1.21c-0.638,1.488,1.295,4.015-1,4.837c-1.497-3.464-1.168-5.666-4-8.062
			c-1.861,3.549-1.195,8.118-3,11.69c0-2.553,0-5.106,0-7.658c-4.41-0.569-0.017,2.41-3,2.418c0.035-1.762,0.369-3.643-2-4.435
			c-2.109,0.855-1.379,2.906-3,4.837c0.05-2.035-0.39-3.873-2-5.239c-2.777,1.433,0.83,5.439-2,6.853
			c-1.168-2.082,2.439-6.09-2-6.853c-1.908,1.633-1.248,0.685-3-0.403c0.659,2.598-0.72,4.116-3,1.611
			c0.54,1.976-1.204,4.287-3,2.016c-1.072,1.584-0.217,3.944-2,5.241c0.438-1.386-0.395-2.259-1-3.226c0-1.209,0-2.418,0-3.627
			c0.58-0.821-0.682-3.177-1-1.21c1.535,1.392-0.927,5.941-2,5.644c-1.872-0.52,1.423-7.962-1-4.031
			c-0.651,2.156,1.312,5.366-1,6.854c-1.755-1.443,0.155-4.363-2-5.645c-1.483,1.284-0.006,3.76-2,4.838
			c0.033-1.652,0.301-9.615-1-5.643c-1.847,2.076-0.332,5.508-3,7.255c-0.119-0.67,0.547-3.65-1-2.419
			c-0.595,0.836,1.236,2.648-1,2.822c-0.42-1.847,1.287-4.551-2-5.24c0.176,1.294-2,7.637-2,2.418c0-1.383-0.092-7.355-1-2.016
			c-0.379,2.231,1.974,5.621-2,8.868c-0.044-1.739,0.559-4.997-2-2.418c-0.182-4.542,0.161-6.608-1-10.481
			c-1.062-3.543-2.28,5.934-3,8.062c-0.502,1.486,1.809,3.578-2,4.435c-3.51-6.285,0.768-11.888-2-17.736
			c-0.609-1.288-0.175,4.965-1,8.868c-1.012,4.785-3.359,8.201-4,13.303c-1.293-6.064-0.088-13.134-2-18.947
			c-2.125,1.832,0.39,5.533-2,7.257c-0.575-0.708,1.209-2.369-1-2.419c-2.922,3.928,1.736,10.912-3,14.109
			c-0.664-6.049,1.33-13.167-1-18.543c-0.661,2.779-0.419-0.515-2-0.807c-0.547,6.767,0.666,14.242-3,19.752
			c-0.618-3.92,1.268-10.986-1-12.899c-0.627,1.226,1.28,3.472-1,4.031c0.58-1.309-0.682-1.875-1-2.821c0-1.075,0-2.15,0-3.226
			c0-0.537,0-1.075,0-1.612c-2.235,2.864-0.693,10.736-3,14.915c-0.906-2.054,2.062-5.668-2-6.45c-0.595,0.835,1.236,2.648-1,2.822
			c-0.58-4.789,0.814-8.177,0-11.287c-1.195-4.564-0.307,6.2-2,7.256c-0.657-2.825,1.32-6.714-1-8.868
			C131.245,33.957,136.942,27.385,131,27.62z"/>
	</g>
	<g>
		<path fill-rule="evenodd" clip-rule="evenodd" fill="#E2791D" d="M51,27.62c0-0.403,0-0.806,0-1.209
			c8.596-1.507,0.98-9.548,5-12.899c0.655,2.558-1.318,6.175,1,8.062c2.607-5.667-0.719-13.727,2-19.349
			c0.297,2.864-0.387,7.178,0,10.48c0.195,1.67,1.086,5.983,2,5.241c0.643-1.623-1.301-4.287,1-5.241
			c-0.086,0.573-0.165,1.142,1,1.209C62.893,8.631,63.186,3.509,65-1c0.096,5.739-0.649,11.817,2,16.527
			c-0.086-0.573-0.165-1.142,1-1.209c0.304,1.954,1.619,13.241,2,7.256c0.316-4.973-1.291-13.126,2-17.333
			c1.367,5.471,1.731,13.102,3,20.559c0.485,2.854,0.84,2.024,1-1.613c0.947-4.186-2.121-9.991,2-12.899
			c0.125,2.676,1.643-0.441,3-0.806c0,1.942,0,5.263,0,8.062c0,2.381-0.799,6.749,1,6.047c0-0.404,0-0.807,0-1.209
			c4.641-3.639,1.764-10.307,5-14.512c0.771,1.794-1.855,8.041,2,6.046c0.639,1.49-1.295,4.016,1,4.837
			c3.32-3.902,0.467-10.292,4-14.108c-0.932,6.678,4.316,9.22,3,16.527c5.244-2.187-0.598-8.841,3-11.69
			c0.499,1.691-1.103,6.34,1,6.046c0.609-0.964-1.256-2.925,1-3.225c3.633,1.229,0.572,7.284,3,7.659
			c0.609-0.964-1.256-2.925,1-3.225c0.547,0.586-1.168,2.083,1,2.016c2.688-2.41-0.771-7.298,2-9.674
			c0.784,2.909,0.224,6.359,3,8.465c0.643-1.623-1.301-4.286,1-5.24c-0.138,3.285-0.115,8.639,2,9.674
			c0.697-1.601-1.743-4.465,2-4.837c0.547,0.586-1.168,2.083,1,2.016c0.661-3.765-1.326-8.597,1-11.69
			c0.062,4.546,0.482,11.089,2,13.706c0.595-0.836-1.236-2.648,1-2.822c2.038,2.434,2.826-1.921,4-1.612
			c1.884,0.495-2.795,5.223,1,2.016c0.609-0.964-1.255-2.925,1-3.225c0.575,0.708-1.209,2.368,1,2.419
			c0.207-1.663,2.012-0.709,3-2.419c0.647,1.888-1.308,4.827,1,6.046c0.016-1.069-0.555-2.374,2-2.418
			c0.032,1.748,2.219,4.73,3,4.837c0.619-1.094-1.27-3.198,1-3.628c-0.086,0.572-0.165,1.142,1,1.209
			c0.609-0.964-1.255-2.925,1-3.225c0.645,1.756-1.305,4.557,1,5.644c0.2-2.204,1.985-3.768,3-5.644
			c1.879,0.087,0.121,3.662,2,2.418c-0.517-4.529,0.863-1.817,3-4.031c0.621,1.497-1.626,4.149,2,4.435
			c0.575-0.709-1.209-2.368,1-2.419c-0.107,3.326,0.29,3.487,2,0.806c0.083,0.639-0.48,1.538,1,1.613c1.447-1.503,1.334-1.02,3,0
			c1.214-0.721,0.183-2.346,2-2.822c0.435,1.32-1.011,5.49,1,4.837c0.595-0.835-1.236-2.647,1-2.821
			c-0.132,0.53-0.151,2.917,1,1.612c0.311-1.219-1.11-3.135,2-3.225c2.396-0.16-0.555,1.836,3,1.209
			c2.085-1.041-0.354-3.905,2-4.837c-0.743,3.586,1.833,3.331,3,6.047c-0.696-1.815,2.056-1.077,3-0.404
			c0.633-1.357-1.288-3.745,1-4.434c0,2.284,0,4.569,0,6.853c2.955-0.958-0.955-4.685,2-5.643c0.083,0.639-0.48,1.538,1,1.613
			c0.655-2.558-1.318-6.175,1-8.062c1.029,2.541-2.241,6.816,2,8.062c0.083-0.639-0.48-1.538,1-1.613
			c0.547,0.586-1.169,2.083,1,2.015c0.547-0.585-1.169-2.083,1-2.015c-0.207,1.618,0.254,1.803,2,0.806
			c0.036,1.464-0.561,3.183,2,3.628c0.619-1.094-1.27-3.199,1-3.628c0.069,1.584,0.483,3.03,2,4.031c0,3.763,0,7.524,0,11.286
			c-3.47-0.189-0.573,2.188-3,2.419c-0.119-0.671,0.546-3.65-1-2.419c-0.619,1.095,1.27,3.199-1,3.629
			c2.89-1.776-3.353-2.828-2-1.21c-0.713-0.853,1.326-3.638-1-3.627c-0.638,1.489,1.295,4.015-1,4.837
			c-0.084-1.31-0.516-2.48-2-3.225c-0.016,1.068,0.555,2.373-2,2.418c-0.663-1.096-0.63-4.557-2-4.03
			c-0.621,1.496,1.626,4.148-2,4.435c0.155-1.543-0.052-2.937-2-3.629c0.159,3.375-2.168,3.604-3,6.852
			c0.108-3.133-0.228-6.088-2-8.465c0.207,1.159-0.254,2.048-2,2.42c-2.155-0.341,0.375-2.57-2-2.822
			c-1.755,1.442,0.155,4.362-2,5.645c-1.038-2.12-1.995-3.588-4-6.048c0.54,1.976-1.204,4.287-3,2.016
			c0.684,2.011-1.799,2.275-4,1.21c-0.638,1.488,1.295,4.015-1,4.837c-1.497-3.464-1.168-5.666-4-8.062
			c-1.861,3.549-1.195,8.118-3,11.69c0-2.553,0-5.106,0-7.658c-4.41-0.569-0.017,2.41-3,2.418c0.035-1.762,0.369-3.643-2-4.435
			c-2.109,0.855-1.379,2.906-3,4.837c0.05-2.035-0.39-3.873-2-5.239c-2.777,1.433,0.83,5.439-2,6.853
			c-1.168-2.082,2.439-6.09-2-6.853c-1.908,1.633-1.248,0.685-3-0.403c0.659,2.598-0.72,4.116-3,1.611
			c0.54,1.976-1.204,4.287-3,2.016c-1.072,1.584-0.217,3.944-2,5.241c0.438-1.386-0.395-2.259-1-3.226c0-1.209,0-2.418,0-3.627
			c0.58-0.821-0.682-3.177-1-1.21c1.535,1.392-0.927,5.941-2,5.644c-1.872-0.52,1.423-7.962-1-4.031
			c-0.651,2.156,1.312,5.366-1,6.854c-1.755-1.443,0.155-4.363-2-5.645c-1.483,1.284-0.006,3.76-2,4.838
			c0.033-1.652,0.301-9.615-1-5.643c-1.847,2.076-0.332,5.508-3,7.255c-0.119-0.67,0.547-3.65-1-2.419
			c-0.595,0.836,1.236,2.648-1,2.822c-0.42-1.847,1.287-4.551-2-5.24c0.176,1.294-2,7.637-2,2.418c0-1.383-0.092-7.355-1-2.016
			c-0.379,2.231,1.974,5.621-2,8.868c-0.044-1.739,0.559-4.997-2-2.418c-0.182-4.542,0.161-6.608-1-10.481
			c-1.062-3.543-2.28,5.934-3,8.062c-0.502,1.486,1.809,3.578-2,4.435c-3.51-6.285,0.768-11.888-2-17.736
			c-0.609-1.288-0.175,4.965-1,8.868c-1.012,4.785-3.359,8.201-4,13.303c-1.293-6.064-0.088-13.134-2-18.947
			c-2.125,1.832,0.39,5.533-2,7.257c-0.575-0.708,1.209-2.369-1-2.419c-2.922,3.928,1.736,10.912-3,14.109
			c-0.664-6.049,1.33-13.167-1-18.543c-0.661,2.779-0.419-0.515-2-0.807C70.453,38.015,71.666,45.49,68,51
			c-0.618-3.92,1.268-10.986-1-12.899c-0.627,1.226,1.28,3.472-1,4.031c0.58-1.309-0.682-1.875-1-2.821c0-1.075,0-2.15,0-3.226
			c0-0.537,0-1.075,0-1.612c-2.235,2.864-0.693,10.736-3,14.915c-0.906-2.054,2.062-5.668-2-6.45c-0.595,0.835,1.236,2.648-1,2.822
			c-0.58-4.789,0.814-8.177,0-11.287c-1.195-4.564-0.307,6.2-2,7.256c-0.657-2.825,1.32-6.714-1-8.868
			C51.245,33.957,56.942,27.385,51,27.62z"/>
	</g>
</g>
<g>
	<g>
		<path fill-rule="evenodd" clip-rule="evenodd" fill="#FFFFFF" d="M-2,24.62c0-0.403,0-0.806,0-1.209
			c8.596-1.507,0.98-9.548,5-12.899c0.655,2.558-1.318,6.175,1,8.062C6.607,12.906,3.281,4.847,6-0.775
			c0.297,2.864-0.387,7.178,0,10.48c0.195,1.67,1.086,5.983,2,5.241c0.643-1.623-1.301-4.287,1-5.241
			c-0.086,0.573-0.165,1.142,1,1.209C9.893,5.631,10.186,0.509,12-4c0.096,5.739-0.649,11.817,2,16.527
			c-0.086-0.573-0.165-1.142,1-1.209c0.304,1.954,1.619,13.241,2,7.256c0.316-4.973-1.291-13.126,2-17.333
			c1.367,5.471,1.731,13.102,3,20.559c0.485,2.854,0.84,2.024,1-1.613c0.947-4.186-2.121-9.991,2-12.899
			c0.125,2.676,1.643-0.441,3-0.806c0,1.942,0,5.263,0,8.062c0,2.381-0.799,6.749,1,6.047c0-0.404,0-0.807,0-1.209
			c4.641-3.639,1.764-10.307,5-14.512c0.771,1.794-1.855,8.041,2,6.046c0.639,1.49-1.295,4.016,1,4.837
			c3.32-3.902,0.467-10.292,4-14.108c-0.932,6.678,4.316,9.22,3,16.527c5.244-2.187-0.598-8.841,3-11.69
			c0.499,1.691-1.103,6.34,1,6.046c0.609-0.964-1.256-2.925,1-3.225c3.633,1.229,0.572,7.284,3,7.659
			c0.609-0.964-1.256-2.925,1-3.225c0.547,0.586-1.168,2.083,1,2.016c2.688-2.41-0.771-7.298,2-9.674
			c0.784,2.909,0.224,6.359,3,8.465c0.643-1.623-1.301-4.286,1-5.24c-0.138,3.285-0.115,8.639,2,9.674
			c0.697-1.601-1.743-4.465,2-4.837c0.547,0.586-1.168,2.083,1,2.016c0.661-3.765-1.326-8.597,1-11.69
			c0.062,4.546,0.482,11.089,2,13.706c0.595-0.836-1.236-2.648,1-2.822c2.038,2.434,2.826-1.921,4-1.612
			c1.884,0.495-2.795,5.223,1,2.016c0.609-0.964-1.255-2.925,1-3.225c0.575,0.708-1.209,2.368,1,2.419
			c0.207-1.663,2.012-0.709,3-2.419c0.647,1.888-1.308,4.827,1,6.046c0.016-1.069-0.555-2.374,2-2.418
			c0.032,1.748,2.219,4.73,3,4.837c0.619-1.094-1.27-3.198,1-3.628c-0.086,0.572-0.165,1.142,1,1.209
			c0.609-0.964-1.255-2.925,1-3.225c0.645,1.756-1.305,4.557,1,5.644c0.2-2.204,1.985-3.768,3-5.644
			c1.879,0.087,0.121,3.662,2,2.418c-0.517-4.529,0.863-1.817,3-4.031c0.621,1.497-1.626,4.149,2,4.435
			c0.575-0.709-1.209-2.368,1-2.419c-0.107,3.326,0.29,3.487,2,0.806c0.083,0.639-0.48,1.538,1,1.613c1.447-1.503,1.334-1.02,3,0
			c1.214-0.721,0.183-2.346,2-2.822c0.435,1.32-1.011,5.49,1,4.837c0.595-0.835-1.236-2.647,1-2.821
			c-0.132,0.53-0.151,2.917,1,1.612c0.311-1.219-1.11-3.135,2-3.225c2.396-0.16-0.555,1.836,3,1.209
			c2.085-1.041-0.354-3.905,2-4.837c-0.743,3.586,1.833,3.331,3,6.047c-0.696-1.815,2.056-1.077,3-0.404
			c0.633-1.357-1.288-3.745,1-4.434c0,2.284,0,4.569,0,6.853c2.955-0.958-0.955-4.685,2-5.643c0.083,0.639-0.48,1.538,1,1.613
			c0.655-2.558-1.318-6.175,1-8.062c1.029,2.541-2.241,6.816,2,8.062c0.083-0.639-0.48-1.538,1-1.613
			c0.547,0.586-1.169,2.083,1,2.015c0.547-0.585-1.169-2.083,1-2.015c-0.207,1.618,0.254,1.803,2,0.806
			c0.036,1.464-0.561,3.183,2,3.628c0.619-1.094-1.27-3.199,1-3.628c0.069,1.584,0.483,3.03,2,4.031c0,3.763,0,7.524,0,11.286
			c-3.47-0.189-0.573,2.188-3,2.419c-0.119-0.671,0.546-3.65-1-2.419c-0.619,1.095,1.27,3.199-1,3.629
			c2.89-1.776-3.353-2.828-2-1.21c-0.713-0.853,1.326-3.638-1-3.627c-0.638,1.489,1.295,4.015-1,4.837
			c-0.084-1.31-0.516-2.48-2-3.225c-0.016,1.068,0.555,2.373-2,2.418c-0.663-1.096-0.63-4.557-2-4.03
			c-0.621,1.496,1.626,4.148-2,4.435c0.155-1.543-0.052-2.937-2-3.629c0.159,3.375-2.168,3.604-3,6.852
			c0.108-3.133-0.228-6.088-2-8.465c0.207,1.159-0.254,2.048-2,2.42c-2.155-0.341,0.375-2.57-2-2.822
			c-1.755,1.442,0.155,4.362-2,5.645c-1.038-2.12-1.995-3.588-4-6.048c0.54,1.976-1.204,4.287-3,2.016
			c0.684,2.011-1.799,2.275-4,1.21c-0.638,1.488,1.295,4.015-1,4.837c-1.497-3.464-1.168-5.666-4-8.062
			c-1.861,3.549-1.195,8.118-3,11.69c0-2.553,0-5.106,0-7.658c-4.41-0.569-0.017,2.41-3,2.418c0.035-1.762,0.369-3.643-2-4.435
			c-2.109,0.855-1.379,2.906-3,4.837c0.05-2.035-0.39-3.873-2-5.239c-2.777,1.433,0.83,5.439-2,6.853
			c-1.168-2.082,2.439-6.09-2-6.853c-1.908,1.633-1.248,0.685-3-0.403c0.659,2.598-0.72,4.116-3,1.611
			c0.54,1.976-1.204,4.287-3,2.016c-1.072,1.584-0.217,3.944-2,5.241c0.438-1.386-0.395-2.259-1-3.226c0-1.209,0-2.418,0-3.627
			c0.58-0.821-0.682-3.177-1-1.21c1.535,1.392-0.927,5.941-2,5.644c-1.872-0.52,1.423-7.962-1-4.031
			c-0.651,2.156,1.312,5.366-1,6.854c-1.755-1.443,0.155-4.363-2-5.645c-1.483,1.284-0.006,3.76-2,4.838
			c0.033-1.652,0.301-9.615-1-5.643c-1.847,2.076-0.332,5.508-3,7.255c-0.119-0.67,0.547-3.65-1-2.419
			c-0.595,0.836,1.236,2.648-1,2.822c-0.42-1.847,1.287-4.551-2-5.24c0.176,1.294-2,7.637-2,2.418c0-1.383-0.092-7.355-1-2.016
			c-0.379,2.231,1.974,5.621-2,8.868c-0.044-1.739,0.559-4.997-2-2.418c-0.182-4.542,0.161-6.608-1-10.481
			c-1.062-3.543-2.28,5.934-3,8.062c-0.502,1.486,1.809,3.578-2,4.435c-3.51-6.285,0.768-11.888-2-17.736
			c-0.609-1.288-0.175,4.965-1,8.868c-1.012,4.785-3.359,8.201-4,13.303c-1.293-6.064-0.088-13.134-2-18.947
			c-2.125,1.832,0.39,5.533-2,7.257c-0.575-0.708,1.209-2.369-1-2.419c-2.922,3.928,1.736,10.912-3,14.109
			c-0.664-6.049,1.33-13.167-1-18.543c-0.661,2.779-0.419-0.515-2-0.807C17.453,35.015,18.666,42.49,15,48
			c-0.618-3.92,1.268-10.986-1-12.899c-0.627,1.226,1.28,3.472-1,4.031c0.58-1.309-0.682-1.875-1-2.821c0-1.075,0-2.15,0-3.226
			c0-0.537,0-1.075,0-1.612c-2.235,2.864-0.693,10.736-3,14.915c-0.906-2.054,2.062-5.668-2-6.45c-0.595,0.835,1.236,2.648-1,2.822
			c-0.58-4.789,0.814-8.177,0-11.287c-1.195-4.564-0.307,6.2-2,7.256c-0.657-2.825,1.32-6.714-1-8.868
			C-1.755,30.957,3.942,24.385-2,24.62z"/>
	</g>
	<g>
		<path fill-rule="evenodd" clip-rule="evenodd" fill="#FFFFFF" d="M78,24.62c0-0.403,0-0.806,0-1.209
			c8.596-1.507,0.98-9.548,5-12.899c0.655,2.558-1.318,6.175,1,8.062c2.607-5.667-0.719-13.727,2-19.349
			c0.297,2.864-0.387,7.178,0,10.48c0.195,1.67,1.086,5.983,2,5.241c0.643-1.623-1.301-4.287,1-5.241
			c-0.086,0.573-0.165,1.142,1,1.209C89.893,5.631,90.186,0.509,92-4c0.096,5.739-0.649,11.817,2,16.527
			c-0.086-0.573-0.165-1.142,1-1.209c0.304,1.954,1.619,13.241,2,7.256c0.316-4.973-1.291-13.126,2-17.333
			c1.367,5.471,1.731,13.102,3,20.559c0.485,2.854,0.84,2.024,1-1.613c0.947-4.186-2.121-9.991,2-12.899
			c0.125,2.676,1.643-0.441,3-0.806c0,1.942,0,5.263,0,8.062c0,2.381-0.799,6.749,1,6.047c0-0.404,0-0.807,0-1.209
			c4.641-3.639,1.764-10.307,5-14.512c0.771,1.794-1.855,8.041,2,6.046c0.639,1.49-1.295,4.016,1,4.837
			c3.32-3.902,0.467-10.292,4-14.108c-0.932,6.678,4.316,9.22,3,16.527c5.244-2.187-0.598-8.841,3-11.69
			c0.499,1.691-1.103,6.34,1,6.046c0.609-0.964-1.256-2.925,1-3.225c3.633,1.229,0.572,7.284,3,7.659
			c0.609-0.964-1.256-2.925,1-3.225c0.547,0.586-1.168,2.083,1,2.016c2.688-2.41-0.771-7.298,2-9.674
			c0.784,2.909,0.224,6.359,3,8.465c0.643-1.623-1.301-4.286,1-5.24c-0.138,3.285-0.115,8.639,2,9.674
			c0.697-1.601-1.743-4.465,2-4.837c0.547,0.586-1.168,2.083,1,2.016c0.661-3.765-1.326-8.597,1-11.69
			c0.062,4.546,0.482,11.089,2,13.706c0.595-0.836-1.236-2.648,1-2.822c2.038,2.434,2.826-1.921,4-1.612
			c1.884,0.495-2.795,5.223,1,2.016c0.609-0.964-1.255-2.925,1-3.225c0.575,0.708-1.209,2.368,1,2.419
			c0.207-1.663,2.012-0.709,3-2.419c0.647,1.888-1.308,4.827,1,6.046c0.016-1.069-0.555-2.374,2-2.418
			c0.032,1.748,2.219,4.73,3,4.837c0.619-1.094-1.27-3.198,1-3.628c-0.086,0.572-0.165,1.142,1,1.209
			c0.609-0.964-1.255-2.925,1-3.225c0.645,1.756-1.305,4.557,1,5.644c0.2-2.204,1.985-3.768,3-5.644
			c1.879,0.087,0.121,3.662,2,2.418c-0.517-4.529,0.863-1.817,3-4.031c0.621,1.497-1.626,4.149,2,4.435
			c0.575-0.709-1.209-2.368,1-2.419c-0.107,3.326,0.29,3.487,2,0.806c0.083,0.639-0.48,1.538,1,1.613c1.447-1.503,1.334-1.02,3,0
			c1.214-0.721,0.183-2.346,2-2.822c0.435,1.32-1.011,5.49,1,4.837c0.595-0.835-1.236-2.647,1-2.821
			c-0.132,0.53-0.151,2.917,1,1.612c0.311-1.219-1.11-3.135,2-3.225c2.396-0.16-0.555,1.836,3,1.209
			c2.085-1.041-0.354-3.905,2-4.837c-0.743,3.586,1.833,3.331,3,6.047c-0.696-1.815,2.056-1.077,3-0.404
			c0.633-1.357-1.288-3.745,1-4.434c0,2.284,0,4.569,0,6.853c2.955-0.958-0.955-4.685,2-5.643c0.083,0.639-0.48,1.538,1,1.613
			c0.655-2.558-1.318-6.175,1-8.062c1.029,2.541-2.241,6.816,2,8.062c0.083-0.639-0.48-1.538,1-1.613
			c0.547,0.586-1.169,2.083,1,2.015c0.547-0.585-1.169-2.083,1-2.015c-0.207,1.618,0.254,1.803,2,0.806
			c0.036,1.464-0.561,3.183,2,3.628c0.619-1.094-1.27-3.199,1-3.628c0.069,1.584,0.483,3.03,2,4.031c0,3.763,0,7.524,0,11.286
			c-3.47-0.189-0.573,2.188-3,2.419c-0.119-0.671,0.546-3.65-1-2.419c-0.619,1.095,1.27,3.199-1,3.629
			c2.89-1.776-3.353-2.828-2-1.21c-0.713-0.853,1.326-3.638-1-3.627c-0.638,1.489,1.295,4.015-1,4.837
			c-0.084-1.31-0.516-2.48-2-3.225c-0.016,1.068,0.555,2.373-2,2.418c-0.663-1.096-0.63-4.557-2-4.03
			c-0.621,1.496,1.626,4.148-2,4.435c0.155-1.543-0.052-2.937-2-3.629c0.159,3.375-2.168,3.604-3,6.852
			c0.108-3.133-0.228-6.088-2-8.465c0.207,1.159-0.254,2.048-2,2.42c-2.155-0.341,0.375-2.57-2-2.822
			c-1.755,1.442,0.155,4.362-2,5.645c-1.038-2.12-1.995-3.588-4-6.048c0.54,1.976-1.204,4.287-3,2.016
			c0.684,2.011-1.799,2.275-4,1.21c-0.638,1.488,1.295,4.015-1,4.837c-1.497-3.464-1.168-5.666-4-8.062
			c-1.861,3.549-1.195,8.118-3,11.69c0-2.553,0-5.106,0-7.658c-4.41-0.569-0.017,2.41-3,2.418c0.035-1.762,0.369-3.643-2-4.435
			c-2.109,0.855-1.379,2.906-3,4.837c0.05-2.035-0.39-3.873-2-5.239c-2.777,1.433,0.83,5.439-2,6.853
			c-1.168-2.082,2.439-6.09-2-6.853c-1.908,1.633-1.248,0.685-3-0.403c0.659,2.598-0.72,4.116-3,1.611
			c0.54,1.976-1.204,4.287-3,2.016c-1.072,1.584-0.217,3.944-2,5.241c0.438-1.386-0.395-2.259-1-3.226c0-1.209,0-2.418,0-3.627
			c0.58-0.821-0.682-3.177-1-1.21c1.535,1.392-0.927,5.941-2,5.644c-1.872-0.52,1.423-7.962-1-4.031
			c-0.651,2.156,1.312,5.366-1,6.854c-1.755-1.443,0.155-4.363-2-5.645c-1.483,1.284-0.006,3.76-2,4.838
			c0.033-1.652,0.301-9.615-1-5.643c-1.847,2.076-0.332,5.508-3,7.255c-0.119-0.67,0.547-3.65-1-2.419
			c-0.595,0.836,1.236,2.648-1,2.822c-0.42-1.847,1.287-4.551-2-5.24c0.176,1.294-2,7.637-2,2.418c0-1.383-0.092-7.355-1-2.016
			c-0.379,2.231,1.974,5.621-2,8.868c-0.044-1.739,0.559-4.997-2-2.418c-0.182-4.542,0.161-6.608-1-10.481
			c-1.062-3.543-2.28,5.934-3,8.062c-0.502,1.486,1.809,3.578-2,4.435c-3.51-6.285,0.768-11.888-2-17.736
			c-0.609-1.288-0.175,4.965-1,8.868c-1.012,4.785-3.359,8.201-4,13.303c-1.293-6.064-0.088-13.134-2-18.947
			c-2.125,1.832,0.39,5.533-2,7.257c-0.575-0.708,1.209-2.369-1-2.419c-2.922,3.928,1.736,10.912-3,14.109
			c-0.664-6.049,1.33-13.167-1-18.543c-0.661,2.779-0.419-0.515-2-0.807C97.453,35.015,98.666,42.49,95,48
			c-0.618-3.92,1.268-10.986-1-12.899c-0.627,1.226,1.28,3.472-1,4.031c0.58-1.309-0.682-1.875-1-2.821c0-1.075,0-2.15,0-3.226
			c0-0.537,0-1.075,0-1.612c-2.235,2.864-0.693,10.736-3,14.915c-0.906-2.054,2.062-5.668-2-6.45c-0.595,0.835,1.236,2.648-1,2.822
			c-0.58-4.789,0.814-8.177,0-11.287c-1.195-4.564-0.307,6.2-2,7.256c-0.657-2.825,1.32-6.714-1-8.868
			C78.245,30.957,83.942,24.385,78,24.62z"/>
	</g>
	<g>
		<path fill-rule="evenodd" clip-rule="evenodd" fill="#FFFFFF" d="M158,24.62c0-0.403,0-0.806,0-1.209
			c8.596-1.507,0.98-9.548,5-12.899c0.655,2.558-1.318,6.175,1,8.062c2.607-5.667-0.719-13.727,2-19.349
			c0.297,2.864-0.387,7.178,0,10.48c0.195,1.67,1.086,5.983,2,5.241c0.643-1.623-1.301-4.287,1-5.241
			c-0.086,0.573-0.165,1.142,1,1.209C169.893,5.631,170.186,0.509,172-4c0.096,5.739-0.649,11.817,2,16.527
			c-0.086-0.573-0.165-1.142,1-1.209c0.304,1.954,1.619,13.241,2,7.256c0.316-4.973-1.291-13.126,2-17.333
			c1.367,5.471,1.731,13.102,3,20.559c0.485,2.854,0.84,2.024,1-1.613c0.947-4.186-2.121-9.991,2-12.899
			c0.125,2.676,1.643-0.441,3-0.806c0,1.942,0,5.263,0,8.062c0,2.381-0.799,6.749,1,6.047c0-0.404,0-0.807,0-1.209
			c4.641-3.639,1.764-10.307,5-14.512c0.771,1.794-1.855,8.041,2,6.046c0.639,1.49-1.295,4.016,1,4.837
			c3.32-3.902,0.467-10.292,4-14.108c-0.932,6.678,4.316,9.22,3,16.527c5.244-2.187-0.598-8.841,3-11.69
			c0.499,1.691-1.103,6.34,1,6.046c0.609-0.964-1.256-2.925,1-3.225c3.633,1.229,0.572,7.284,3,7.659
			c0.609-0.964-1.256-2.925,1-3.225c0.547,0.586-1.168,2.083,1,2.016c2.688-2.41-0.771-7.298,2-9.674
			c0.784,2.909,0.224,6.359,3,8.465c0.643-1.623-1.301-4.286,1-5.24c-0.138,3.285-0.115,8.639,2,9.674
			c0.697-1.601-1.743-4.465,2-4.837c0.547,0.586-1.168,2.083,1,2.016c0.661-3.765-1.326-8.597,1-11.69
			c0.062,4.546,0.482,11.089,2,13.706c0.595-0.836-1.236-2.648,1-2.822c2.038,2.434,2.826-1.921,4-1.612
			c1.884,0.495-2.795,5.223,1,2.016c0.609-0.964-1.255-2.925,1-3.225c0.575,0.708-1.209,2.368,1,2.419
			c0.207-1.663,2.012-0.709,3-2.419c0.647,1.888-1.308,4.827,1,6.046c0.016-1.069-0.555-2.374,2-2.418
			c0.032,1.748,2.219,4.73,3,4.837c0.619-1.094-1.27-3.198,1-3.628c-0.086,0.572-0.165,1.142,1,1.209
			c0.609-0.964-1.255-2.925,1-3.225c0.645,1.756-1.305,4.557,1,5.644c0.2-2.204,1.985-3.768,3-5.644
			c1.879,0.087,0.121,3.662,2,2.418c-0.517-4.529,0.863-1.817,3-4.031c0.621,1.497-1.626,4.149,2,4.435
			c0.575-0.709-1.209-2.368,1-2.419c-0.107,3.326,0.29,3.487,2,0.806c0.083,0.639-0.48,1.538,1,1.613c1.447-1.503,1.334-1.02,3,0
			c1.214-0.721,0.183-2.346,2-2.822c0.435,1.32-1.011,5.49,1,4.837c0.595-0.835-1.236-2.647,1-2.821
			c-0.132,0.53-0.151,2.917,1,1.612c0.311-1.219-1.11-3.135,2-3.225c2.396-0.16-0.555,1.836,3,1.209
			c2.085-1.041-0.354-3.905,2-4.837c-0.743,3.586,1.833,3.331,3,6.047c-0.696-1.815,2.056-1.077,3-0.404
			c0.633-1.357-1.288-3.745,1-4.434c0,2.284,0,4.569,0,6.853c2.955-0.958-0.955-4.685,2-5.643c0.083,0.639-0.48,1.538,1,1.613
			c0.655-2.558-1.318-6.175,1-8.062c1.029,2.541-2.241,6.816,2,8.062c0.083-0.639-0.48-1.538,1-1.613
			c0.547,0.586-1.169,2.083,1,2.015c0.547-0.585-1.169-2.083,1-2.015c-0.207,1.618,0.254,1.803,2,0.806
			c0.036,1.464-0.561,3.183,2,3.628c0.619-1.094-1.27-3.199,1-3.628c0.069,1.584,0.483,3.03,2,4.031c0,3.763,0,7.524,0,11.286
			c-3.47-0.189-0.573,2.188-3,2.419c-0.119-0.671,0.546-3.65-1-2.419c-0.619,1.095,1.27,3.199-1,3.629
			c2.89-1.776-3.353-2.828-2-1.21c-0.713-0.853,1.326-3.638-1-3.627c-0.638,1.489,1.295,4.015-1,4.837
			c-0.084-1.31-0.516-2.48-2-3.225c-0.016,1.068,0.555,2.373-2,2.418c-0.663-1.096-0.63-4.557-2-4.03
			c-0.621,1.496,1.626,4.148-2,4.435c0.155-1.543-0.052-2.937-2-3.629c0.159,3.375-2.168,3.604-3,6.852
			c0.108-3.133-0.228-6.088-2-8.465c0.207,1.159-0.254,2.048-2,2.42c-2.155-0.341,0.375-2.57-2-2.822
			c-1.755,1.442,0.155,4.362-2,5.645c-1.038-2.12-1.995-3.588-4-6.048c0.54,1.976-1.204,4.287-3,2.016
			c0.684,2.011-1.799,2.275-4,1.21c-0.638,1.488,1.295,4.015-1,4.837c-1.497-3.464-1.168-5.666-4-8.062
			c-1.861,3.549-1.195,8.118-3,11.69c0-2.553,0-5.106,0-7.658c-4.41-0.569-0.017,2.41-3,2.418c0.035-1.762,0.369-3.643-2-4.435
			c-2.109,0.855-1.379,2.906-3,4.837c0.05-2.035-0.39-3.873-2-5.239c-2.777,1.433,0.83,5.439-2,6.853
			c-1.168-2.082,2.439-6.09-2-6.853c-1.908,1.633-1.248,0.685-3-0.403c0.659,2.598-0.72,4.116-3,1.611
			c0.54,1.976-1.204,4.287-3,2.016c-1.072,1.584-0.217,3.944-2,5.241c0.438-1.386-0.395-2.259-1-3.226c0-1.209,0-2.418,0-3.627
			c0.58-0.821-0.682-3.177-1-1.21c1.535,1.392-0.927,5.941-2,5.644c-1.872-0.52,1.423-7.962-1-4.031
			c-0.651,2.156,1.312,5.366-1,6.854c-1.755-1.443,0.155-4.363-2-5.645c-1.483,1.284-0.006,3.76-2,4.838
			c0.033-1.652,0.301-9.615-1-5.643c-1.847,2.076-0.332,5.508-3,7.255c-0.119-0.67,0.547-3.65-1-2.419
			c-0.595,0.836,1.236,2.648-1,2.822c-0.42-1.847,1.287-4.551-2-5.24c0.176,1.294-2,7.637-2,2.418c0-1.383-0.092-7.355-1-2.016
			c-0.379,2.231,1.974,5.621-2,8.868c-0.044-1.739,0.559-4.997-2-2.418c-0.182-4.542,0.161-6.608-1-10.481
			c-1.062-3.543-2.28,5.934-3,8.062c-0.502,1.486,1.809,3.578-2,4.435c-3.51-6.285,0.768-11.888-2-17.736
			c-0.609-1.288-0.175,4.965-1,8.868c-1.012,4.785-3.359,8.201-4,13.303c-1.293-6.064-0.088-13.134-2-18.947
			c-2.125,1.832,0.39,5.533-2,7.257c-0.575-0.708,1.209-2.369-1-2.419c-2.922,3.928,1.736,10.912-3,14.109
			c-0.664-6.049,1.33-13.167-1-18.543c-0.661,2.779-0.419-0.515-2-0.807c-0.547,6.767,0.666,14.242-3,19.752
			c-0.618-3.92,1.268-10.986-1-12.899c-0.627,1.226,1.28,3.472-1,4.031c0.58-1.309-0.682-1.875-1-2.821c0-1.075,0-2.15,0-3.226
			c0-0.537,0-1.075,0-1.612c-2.235,2.864-0.693,10.736-3,14.915c-0.906-2.054,2.062-5.668-2-6.45c-0.595,0.835,1.236,2.648-1,2.822
			c-0.58-4.789,0.814-8.177,0-11.287c-1.195-4.564-0.307,6.2-2,7.256c-0.657-2.825,1.32-6.714-1-8.868
			C158.245,30.957,163.942,24.385,158,24.62z"/>
	</g>
	<g>
		<path fill-rule="evenodd" clip-rule="evenodd" fill="#FFFFFF" d="M208,24.62c0-0.403,0-0.806,0-1.209
			c8.596-1.507,0.98-9.548,5-12.899c0.655,2.558-1.318,6.175,1,8.062c2.607-5.667-0.719-13.727,2-19.349
			c0.297,2.864-0.387,7.178,0,10.48c0.195,1.67,1.086,5.983,2,5.241c0.643-1.623-1.301-4.287,1-5.241
			c-0.086,0.573-0.165,1.142,1,1.209C219.893,5.631,220.186,0.509,222-4c0.096,5.739-0.649,11.817,2,16.527
			c-0.086-0.573-0.165-1.142,1-1.209c0.304,1.954,1.619,13.241,2,7.256c0.316-4.973-1.291-13.126,2-17.333
			c1.367,5.471,1.731,13.102,3,20.559c0.485,2.854,0.84,2.024,1-1.613c0.947-4.186-2.121-9.991,2-12.899
			c0.125,2.676,1.643-0.441,3-0.806c0,1.942,0,5.263,0,8.062c0,2.381-0.799,6.749,1,6.047c0-0.404,0-0.807,0-1.209
			c4.641-3.639,1.764-10.307,5-14.512c0.771,1.794-1.855,8.041,2,6.046c0.639,1.49-1.295,4.016,1,4.837
			c3.32-3.902,0.467-10.292,4-14.108c-0.932,6.678,4.316,9.22,3,16.527c5.244-2.187-0.598-8.841,3-11.69
			c0.499,1.691-1.103,6.34,1,6.046c0.609-0.964-1.256-2.925,1-3.225c3.633,1.229,0.572,7.284,3,7.659
			c0.609-0.964-1.256-2.925,1-3.225c0.547,0.586-1.168,2.083,1,2.016c2.688-2.41-0.771-7.298,2-9.674
			c0.784,2.909,0.224,6.359,3,8.465c0.643-1.623-1.301-4.286,1-5.24c-0.138,3.285-0.115,8.639,2,9.674
			c0.697-1.601-1.743-4.465,2-4.837c0.547,0.586-1.168,2.083,1,2.016c0.661-3.765-1.326-8.597,1-11.69
			c0.062,4.546,0.482,11.089,2,13.706c0.595-0.836-1.236-2.648,1-2.822c2.038,2.434,2.826-1.921,4-1.612
			c1.884,0.495-2.795,5.223,1,2.016c0.609-0.964-1.255-2.925,1-3.225c0.575,0.708-1.209,2.368,1,2.419
			c0.207-1.663,2.012-0.709,3-2.419c0.647,1.888-1.308,4.827,1,6.046c0.016-1.069-0.555-2.374,2-2.418
			c0.032,1.748,2.219,4.73,3,4.837c0.619-1.094-1.27-3.198,1-3.628c-0.086,0.572-0.165,1.142,1,1.209
			c0.609-0.964-1.255-2.925,1-3.225c0.645,1.756-1.305,4.557,1,5.644c0.2-2.204,1.985-3.768,3-5.644
			c1.879,0.087,0.121,3.662,2,2.418c-0.517-4.529,0.863-1.817,3-4.031c0.621,1.497-1.626,4.149,2,4.435
			c0.575-0.709-1.209-2.368,1-2.419c-0.107,3.326,0.29,3.487,2,0.806c0.083,0.639-0.48,1.538,1,1.613c1.447-1.503,1.334-1.02,3,0
			c1.214-0.721,0.183-2.346,2-2.822c0.435,1.32-1.011,5.49,1,4.837c0.595-0.835-1.236-2.647,1-2.821
			c-0.132,0.53-0.151,2.917,1,1.612c0.311-1.219-1.11-3.135,2-3.225c2.396-0.16-0.555,1.836,3,1.209
			c2.085-1.041-0.354-3.905,2-4.837c-0.743,3.586,1.833,3.331,3,6.047c-0.696-1.815,2.056-1.077,3-0.404
			c0.633-1.357-1.288-3.745,1-4.434c0,2.284,0,4.569,0,6.853c2.955-0.958-0.955-4.685,2-5.643c0.083,0.639-0.48,1.538,1,1.613
			c0.655-2.558-1.318-6.175,1-8.062c1.029,2.541-2.241,6.816,2,8.062c0.083-0.639-0.48-1.538,1-1.613
			c0.547,0.586-1.169,2.083,1,2.015c0.547-0.585-1.169-2.083,1-2.015c-0.207,1.618,0.254,1.803,2,0.806
			c0.036,1.464-0.561,3.183,2,3.628c0.619-1.094-1.27-3.199,1-3.628c0.069,1.584,0.483,3.03,2,4.031c0,3.763,0,7.524,0,11.286
			c-3.47-0.189-0.573,2.188-3,2.419c-0.119-0.671,0.546-3.65-1-2.419c-0.619,1.095,1.27,3.199-1,3.629
			c2.89-1.776-3.353-2.828-2-1.21c-0.713-0.853,1.326-3.638-1-3.627c-0.638,1.489,1.295,4.015-1,4.837
			c-0.084-1.31-0.516-2.48-2-3.225c-0.016,1.068,0.555,2.373-2,2.418c-0.663-1.096-0.63-4.557-2-4.03
			c-0.621,1.496,1.626,4.148-2,4.435c0.155-1.543-0.052-2.937-2-3.629c0.159,3.375-2.168,3.604-3,6.852
			c0.108-3.133-0.228-6.088-2-8.465c0.207,1.159-0.254,2.048-2,2.42c-2.155-0.341,0.375-2.57-2-2.822
			c-1.755,1.442,0.155,4.362-2,5.645c-1.038-2.12-1.995-3.588-4-6.048c0.54,1.976-1.204,4.287-3,2.016
			c0.684,2.011-1.799,2.275-4,1.21c-0.638,1.488,1.295,4.015-1,4.837c-1.497-3.464-1.168-5.666-4-8.062
			c-1.861,3.549-1.195,8.118-3,11.69c0-2.553,0-5.106,0-7.658c-4.41-0.569-0.017,2.41-3,2.418c0.035-1.762,0.369-3.643-2-4.435
			c-2.109,0.855-1.379,2.906-3,4.837c0.05-2.035-0.39-3.873-2-5.239c-2.777,1.433,0.83,5.439-2,6.853
			c-1.168-2.082,2.439-6.09-2-6.853c-1.908,1.633-1.248,0.685-3-0.403c0.659,2.598-0.72,4.116-3,1.611
			c0.54,1.976-1.204,4.287-3,2.016c-1.072,1.584-0.217,3.944-2,5.241c0.438-1.386-0.395-2.259-1-3.226c0-1.209,0-2.418,0-3.627
			c0.58-0.821-0.682-3.177-1-1.21c1.535,1.392-0.927,5.941-2,5.644c-1.872-0.52,1.423-7.962-1-4.031
			c-0.651,2.156,1.312,5.366-1,6.854c-1.755-1.443,0.155-4.363-2-5.645c-1.483,1.284-0.006,3.76-2,4.838
			c0.033-1.652,0.301-9.615-1-5.643c-1.847,2.076-0.332,5.508-3,7.255c-0.119-0.67,0.547-3.65-1-2.419
			c-0.595,0.836,1.236,2.648-1,2.822c-0.42-1.847,1.287-4.551-2-5.24c0.176,1.294-2,7.637-2,2.418c0-1.383-0.092-7.355-1-2.016
			c-0.379,2.231,1.974,5.621-2,8.868c-0.044-1.739,0.559-4.997-2-2.418c-0.182-4.542,0.161-6.608-1-10.481
			c-1.062-3.543-2.28,5.934-3,8.062c-0.502,1.486,1.809,3.578-2,4.435c-3.51-6.285,0.768-11.888-2-17.736
			c-0.609-1.288-0.175,4.965-1,8.868c-1.012,4.785-3.359,8.201-4,13.303c-1.293-6.064-0.088-13.134-2-18.947
			c-2.125,1.832,0.39,5.533-2,7.257c-0.575-0.708,1.209-2.369-1-2.419c-2.922,3.928,1.736,10.912-3,14.109
			c-0.664-6.049,1.33-13.167-1-18.543c-0.661,2.779-0.419-0.515-2-0.807c-0.547,6.767,0.666,14.242-3,19.752
			c-0.618-3.92,1.268-10.986-1-12.899c-0.627,1.226,1.28,3.472-1,4.031c0.58-1.309-0.682-1.875-1-2.821c0-1.075,0-2.15,0-3.226
			c0-0.537,0-1.075,0-1.612c-2.235,2.864-0.693,10.736-3,14.915c-0.906-2.054,2.062-5.668-2-6.45c-0.595,0.835,1.236,2.648-1,2.822
			c-0.58-4.789,0.814-8.177,0-11.287c-1.195-4.564-0.307,6.2-2,7.256c-0.657-2.825,1.32-6.714-1-8.868
			C208.245,30.957,213.942,24.385,208,24.62z"/>
	</g>
	<g>
		<path fill-rule="evenodd" clip-rule="evenodd" fill="#FFFFFF" d="M248,24.62c0-0.403,0-0.806,0-1.209
			c8.596-1.507,0.98-9.548,5-12.899c0.655,2.558-1.318,6.175,1,8.062c2.607-5.667-0.719-13.727,2-19.349
			c0.297,2.864-0.387,7.178,0,10.48c0.195,1.67,1.086,5.983,2,5.241c0.643-1.623-1.301-4.287,1-5.241
			c-0.086,0.573-0.165,1.142,1,1.209C259.893,5.631,260.186,0.509,262-4c0.096,5.739-0.649,11.817,2,16.527
			c-0.086-0.573-0.165-1.142,1-1.209c0.304,1.954,1.619,13.241,2,7.256c0.316-4.973-1.291-13.126,2-17.333
			c1.367,5.471,1.731,13.102,3,20.559c0.485,2.854,0.84,2.024,1-1.613c0.947-4.186-2.121-9.991,2-12.899
			c0.125,2.676,1.643-0.441,3-0.806c0,1.942,0,5.263,0,8.062c0,2.381-0.799,6.749,1,6.047c0-0.404,0-0.807,0-1.209
			c4.641-3.639,1.764-10.307,5-14.512c0.771,1.794-1.855,8.041,2,6.046c0.639,1.49-1.295,4.016,1,4.837
			c3.32-3.902,0.467-10.292,4-14.108c-0.932,6.678,4.316,9.22,3,16.527c5.244-2.187-0.598-8.841,3-11.69
			c0.499,1.691-1.103,6.34,1,6.046c0.609-0.964-1.256-2.925,1-3.225c3.633,1.229,0.572,7.284,3,7.659
			c0.609-0.964-1.256-2.925,1-3.225c0.547,0.586-1.168,2.083,1,2.016c2.688-2.41-0.771-7.298,2-9.674
			c0.784,2.909,0.224,6.359,3,8.465c0.643-1.623-1.301-4.286,1-5.24c-0.138,3.285-0.115,8.639,2,9.674
			c0.697-1.601-1.743-4.465,2-4.837c0.547,0.586-1.168,2.083,1,2.016c0.661-3.765-1.326-8.597,1-11.69
			c0.062,4.546,0.482,11.089,2,13.706c0.595-0.836-1.236-2.648,1-2.822c2.038,2.434,2.826-1.921,4-1.612
			c1.884,0.495-2.795,5.223,1,2.016c0.609-0.964-1.255-2.925,1-3.225c0.575,0.708-1.209,2.368,1,2.419
			c0.207-1.663,2.012-0.709,3-2.419c0.647,1.888-1.308,4.827,1,6.046c0.016-1.069-0.555-2.374,2-2.418
			c0.032,1.748,2.219,4.73,3,4.837c0.619-1.094-1.27-3.198,1-3.628c-0.086,0.572-0.165,1.142,1,1.209
			c0.609-0.964-1.255-2.925,1-3.225c0.645,1.756-1.305,4.557,1,5.644c0.2-2.204,1.985-3.768,3-5.644
			c1.879,0.087,0.121,3.662,2,2.418c-0.517-4.529,0.863-1.817,3-4.031c0.621,1.497-1.626,4.149,2,4.435
			c0.575-0.709-1.209-2.368,1-2.419c-0.107,3.326,0.29,3.487,2,0.806c0.083,0.639-0.48,1.538,1,1.613c1.447-1.503,1.334-1.02,3,0
			c1.214-0.721,0.183-2.346,2-2.822c0.435,1.32-1.011,5.49,1,4.837c0.595-0.835-1.236-2.647,1-2.821
			c-0.132,0.53-0.151,2.917,1,1.612c0.311-1.219-1.11-3.135,2-3.225c2.396-0.16-0.555,1.836,3,1.209
			c2.085-1.041-0.354-3.905,2-4.837c-0.743,3.586,1.833,3.331,3,6.047c-0.696-1.815,2.056-1.077,3-0.404
			c0.633-1.357-1.288-3.745,1-4.434c0,2.284,0,4.569,0,6.853c2.955-0.958-0.955-4.685,2-5.643c0.083,0.639-0.48,1.538,1,1.613
			c0.655-2.558-1.318-6.175,1-8.062c1.029,2.541-2.241,6.816,2,8.062c0.083-0.639-0.48-1.538,1-1.613
			c0.547,0.586-1.169,2.083,1,2.015c0.547-0.585-1.169-2.083,1-2.015c-0.207,1.618,0.254,1.803,2,0.806
			c0.036,1.464-0.561,3.183,2,3.628c0.619-1.094-1.27-3.199,1-3.628c0.069,1.584,0.483,3.03,2,4.031c0,3.763,0,7.524,0,11.286
			c-3.47-0.189-0.573,2.188-3,2.419c-0.119-0.671,0.546-3.65-1-2.419c-0.619,1.095,1.27,3.199-1,3.629
			c2.89-1.776-3.353-2.828-2-1.21c-0.713-0.853,1.326-3.638-1-3.627c-0.638,1.489,1.295,4.015-1,4.837
			c-0.084-1.31-0.516-2.48-2-3.225c-0.016,1.068,0.555,2.373-2,2.418c-0.663-1.096-0.63-4.557-2-4.03
			c-0.621,1.496,1.626,4.148-2,4.435c0.155-1.543-0.052-2.937-2-3.629c0.159,3.375-2.168,3.604-3,6.852
			c0.108-3.133-0.228-6.088-2-8.465c0.207,1.159-0.254,2.048-2,2.42c-2.155-0.341,0.375-2.57-2-2.822
			c-1.755,1.442,0.155,4.362-2,5.645c-1.038-2.12-1.995-3.588-4-6.048c0.54,1.976-1.204,4.287-3,2.016
			c0.684,2.011-1.799,2.275-4,1.21c-0.638,1.488,1.295,4.015-1,4.837c-1.497-3.464-1.168-5.666-4-8.062
			c-1.861,3.549-1.195,8.118-3,11.69c0-2.553,0-5.106,0-7.658c-4.41-0.569-0.017,2.41-3,2.418c0.035-1.762,0.369-3.643-2-4.435
			c-2.109,0.855-1.379,2.906-3,4.837c0.05-2.035-0.39-3.873-2-5.239c-2.777,1.433,0.83,5.439-2,6.853
			c-1.168-2.082,2.439-6.09-2-6.853c-1.908,1.633-1.248,0.685-3-0.403c0.659,2.598-0.72,4.116-3,1.611
			c0.54,1.976-1.204,4.287-3,2.016c-1.072,1.584-0.217,3.944-2,5.241c0.438-1.386-0.395-2.259-1-3.226c0-1.209,0-2.418,0-3.627
			c0.58-0.821-0.682-3.177-1-1.21c1.535,1.392-0.927,5.941-2,5.644c-1.872-0.52,1.423-7.962-1-4.031
			c-0.651,2.156,1.312,5.366-1,6.854c-1.755-1.443,0.155-4.363-2-5.645c-1.483,1.284-0.006,3.76-2,4.838
			c0.033-1.652,0.301-9.615-1-5.643c-1.847,2.076-0.332,5.508-3,7.255c-0.119-0.67,0.547-3.65-1-2.419
			c-0.595,0.836,1.236,2.648-1,2.822c-0.42-1.847,1.287-4.551-2-5.24c0.176,1.294-2,7.637-2,2.418c0-1.383-0.092-7.355-1-2.016
			c-0.379,2.231,1.974,5.621-2,8.868c-0.044-1.739,0.559-4.997-2-2.418c-0.182-4.542,0.161-6.608-1-10.481
			c-1.062-3.543-2.28,5.934-3,8.062c-0.502,1.486,1.809,3.578-2,4.435c-3.51-6.285,0.768-11.888-2-17.736
			c-0.609-1.288-0.175,4.965-1,8.868c-1.012,4.785-3.359,8.201-4,13.303c-1.293-6.064-0.088-13.134-2-18.947
			c-2.125,1.832,0.39,5.533-2,7.257c-0.575-0.708,1.209-2.369-1-2.419c-2.922,3.928,1.736,10.912-3,14.109
			c-0.664-6.049,1.33-13.167-1-18.543c-0.661,2.779-0.419-0.515-2-0.807c-0.547,6.767,0.666,14.242-3,19.752
			c-0.618-3.92,1.268-10.986-1-12.899c-0.627,1.226,1.28,3.472-1,4.031c0.58-1.309-0.682-1.875-1-2.821c0-1.075,0-2.15,0-3.226
			c0-0.537,0-1.075,0-1.612c-2.235,2.864-0.693,10.736-3,14.915c-0.906-2.054,2.062-5.668-2-6.45c-0.595,0.835,1.236,2.648-1,2.822
			c-0.58-4.789,0.814-8.177,0-11.287c-1.195-4.564-0.307,6.2-2,7.256c-0.657-2.825,1.32-6.714-1-8.868
			C248.245,30.957,253.942,24.385,248,24.62z"/>
	</g>
	<g>
		<path fill-rule="evenodd" clip-rule="evenodd" fill="#FFFFFF" d="M128,24.62c0-0.403,0-0.806,0-1.209
			c8.596-1.507,0.98-9.548,5-12.899c0.655,2.558-1.318,6.175,1,8.062c2.607-5.667-0.719-13.727,2-19.349
			c0.297,2.864-0.387,7.178,0,10.48c0.195,1.67,1.086,5.983,2,5.241c0.643-1.623-1.301-4.287,1-5.241
			c-0.086,0.573-0.165,1.142,1,1.209C139.893,5.631,140.186,0.509,142-4c0.096,5.739-0.649,11.817,2,16.527
			c-0.086-0.573-0.165-1.142,1-1.209c0.304,1.954,1.619,13.241,2,7.256c0.316-4.973-1.291-13.126,2-17.333
			c1.367,5.471,1.731,13.102,3,20.559c0.485,2.854,0.84,2.024,1-1.613c0.947-4.186-2.121-9.991,2-12.899
			c0.125,2.676,1.643-0.441,3-0.806c0,1.942,0,5.263,0,8.062c0,2.381-0.799,6.749,1,6.047c0-0.404,0-0.807,0-1.209
			c4.641-3.639,1.764-10.307,5-14.512c0.771,1.794-1.855,8.041,2,6.046c0.639,1.49-1.295,4.016,1,4.837
			c3.32-3.902,0.467-10.292,4-14.108c-0.932,6.678,4.316,9.22,3,16.527c5.244-2.187-0.598-8.841,3-11.69
			c0.499,1.691-1.103,6.34,1,6.046c0.609-0.964-1.256-2.925,1-3.225c3.633,1.229,0.572,7.284,3,7.659
			c0.609-0.964-1.256-2.925,1-3.225c0.547,0.586-1.168,2.083,1,2.016c2.688-2.41-0.771-7.298,2-9.674
			c0.784,2.909,0.224,6.359,3,8.465c0.643-1.623-1.301-4.286,1-5.24c-0.138,3.285-0.115,8.639,2,9.674
			c0.697-1.601-1.743-4.465,2-4.837c0.547,0.586-1.168,2.083,1,2.016c0.661-3.765-1.326-8.597,1-11.69
			c0.062,4.546,0.482,11.089,2,13.706c0.595-0.836-1.236-2.648,1-2.822c2.038,2.434,2.826-1.921,4-1.612
			c1.884,0.495-2.795,5.223,1,2.016c0.609-0.964-1.255-2.925,1-3.225c0.575,0.708-1.209,2.368,1,2.419
			c0.207-1.663,2.012-0.709,3-2.419c0.647,1.888-1.308,4.827,1,6.046c0.016-1.069-0.555-2.374,2-2.418
			c0.032,1.748,2.219,4.73,3,4.837c0.619-1.094-1.27-3.198,1-3.628c-0.086,0.572-0.165,1.142,1,1.209
			c0.609-0.964-1.255-2.925,1-3.225c0.645,1.756-1.305,4.557,1,5.644c0.2-2.204,1.985-3.768,3-5.644
			c1.879,0.087,0.121,3.662,2,2.418c-0.517-4.529,0.863-1.817,3-4.031c0.621,1.497-1.626,4.149,2,4.435
			c0.575-0.709-1.209-2.368,1-2.419c-0.107,3.326,0.29,3.487,2,0.806c0.083,0.639-0.48,1.538,1,1.613c1.447-1.503,1.334-1.02,3,0
			c1.214-0.721,0.183-2.346,2-2.822c0.435,1.32-1.011,5.49,1,4.837c0.595-0.835-1.236-2.647,1-2.821
			c-0.132,0.53-0.151,2.917,1,1.612c0.311-1.219-1.11-3.135,2-3.225c2.396-0.16-0.555,1.836,3,1.209
			c2.085-1.041-0.354-3.905,2-4.837c-0.743,3.586,1.833,3.331,3,6.047c-0.696-1.815,2.056-1.077,3-0.404
			c0.633-1.357-1.288-3.745,1-4.434c0,2.284,0,4.569,0,6.853c2.955-0.958-0.955-4.685,2-5.643c0.083,0.639-0.48,1.538,1,1.613
			c0.655-2.558-1.318-6.175,1-8.062c1.029,2.541-2.241,6.816,2,8.062c0.083-0.639-0.48-1.538,1-1.613
			c0.547,0.586-1.169,2.083,1,2.015c0.547-0.585-1.169-2.083,1-2.015c-0.207,1.618,0.254,1.803,2,0.806
			c0.036,1.464-0.561,3.183,2,3.628c0.619-1.094-1.27-3.199,1-3.628c0.069,1.584,0.483,3.03,2,4.031c0,3.763,0,7.524,0,11.286
			c-3.47-0.189-0.573,2.188-3,2.419c-0.119-0.671,0.546-3.65-1-2.419c-0.619,1.095,1.27,3.199-1,3.629
			c2.89-1.776-3.353-2.828-2-1.21c-0.713-0.853,1.326-3.638-1-3.627c-0.638,1.489,1.295,4.015-1,4.837
			c-0.084-1.31-0.516-2.48-2-3.225c-0.016,1.068,0.555,2.373-2,2.418c-0.663-1.096-0.63-4.557-2-4.03
			c-0.621,1.496,1.626,4.148-2,4.435c0.155-1.543-0.052-2.937-2-3.629c0.159,3.375-2.168,3.604-3,6.852
			c0.108-3.133-0.228-6.088-2-8.465c0.207,1.159-0.254,2.048-2,2.42c-2.155-0.341,0.375-2.57-2-2.822
			c-1.755,1.442,0.155,4.362-2,5.645c-1.038-2.12-1.995-3.588-4-6.048c0.54,1.976-1.204,4.287-3,2.016
			c0.684,2.011-1.799,2.275-4,1.21c-0.638,1.488,1.295,4.015-1,4.837c-1.497-3.464-1.168-5.666-4-8.062
			c-1.861,3.549-1.195,8.118-3,11.69c0-2.553,0-5.106,0-7.658c-4.41-0.569-0.017,2.41-3,2.418c0.035-1.762,0.369-3.643-2-4.435
			c-2.109,0.855-1.379,2.906-3,4.837c0.05-2.035-0.39-3.873-2-5.239c-2.777,1.433,0.83,5.439-2,6.853
			c-1.168-2.082,2.439-6.09-2-6.853c-1.908,1.633-1.248,0.685-3-0.403c0.659,2.598-0.72,4.116-3,1.611
			c0.54,1.976-1.204,4.287-3,2.016c-1.072,1.584-0.217,3.944-2,5.241c0.438-1.386-0.395-2.259-1-3.226c0-1.209,0-2.418,0-3.627
			c0.58-0.821-0.682-3.177-1-1.21c1.535,1.392-0.927,5.941-2,5.644c-1.872-0.52,1.423-7.962-1-4.031
			c-0.651,2.156,1.312,5.366-1,6.854c-1.755-1.443,0.155-4.363-2-5.645c-1.483,1.284-0.006,3.76-2,4.838
			c0.033-1.652,0.301-9.615-1-5.643c-1.847,2.076-0.332,5.508-3,7.255c-0.119-0.67,0.547-3.65-1-2.419
			c-0.595,0.836,1.236,2.648-1,2.822c-0.42-1.847,1.287-4.551-2-5.24c0.176,1.294-2,7.637-2,2.418c0-1.383-0.092-7.355-1-2.016
			c-0.379,2.231,1.974,5.621-2,8.868c-0.044-1.739,0.559-4.997-2-2.418c-0.182-4.542,0.161-6.608-1-10.481
			c-1.062-3.543-2.28,5.934-3,8.062c-0.502,1.486,1.809,3.578-2,4.435c-3.51-6.285,0.768-11.888-2-17.736
			c-0.609-1.288-0.175,4.965-1,8.868c-1.012,4.785-3.359,8.201-4,13.303c-1.293-6.064-0.088-13.134-2-18.947
			c-2.125,1.832,0.39,5.533-2,7.257c-0.575-0.708,1.209-2.369-1-2.419c-2.922,3.928,1.736,10.912-3,14.109
			c-0.664-6.049,1.33-13.167-1-18.543c-0.661,2.779-0.419-0.515-2-0.807c-0.547,6.767,0.666,14.242-3,19.752
			c-0.618-3.92,1.268-10.986-1-12.899c-0.627,1.226,1.28,3.472-1,4.031c0.58-1.309-0.682-1.875-1-2.821c0-1.075,0-2.15,0-3.226
			c0-0.537,0-1.075,0-1.612c-2.235,2.864-0.693,10.736-3,14.915c-0.906-2.054,2.062-5.668-2-6.45c-0.595,0.835,1.236,2.648-1,2.822
			c-0.58-4.789,0.814-8.177,0-11.287c-1.195-4.564-0.307,6.2-2,7.256c-0.657-2.825,1.32-6.714-1-8.868
			C128.245,30.957,133.942,24.385,128,24.62z"/>
	</g>
	<g>
		<path fill-rule="evenodd" clip-rule="evenodd" fill="#FFFFFF" d="M48,24.62c0-0.403,0-0.806,0-1.209
			c8.596-1.507,0.98-9.548,5-12.899c0.655,2.558-1.318,6.175,1,8.062c2.607-5.667-0.719-13.727,2-19.349
			c0.297,2.864-0.387,7.178,0,10.48c0.195,1.67,1.086,5.983,2,5.241c0.643-1.623-1.301-4.287,1-5.241
			c-0.086,0.573-0.165,1.142,1,1.209C59.893,5.631,60.186,0.509,62-4c0.096,5.739-0.649,11.817,2,16.527
			c-0.086-0.573-0.165-1.142,1-1.209c0.304,1.954,1.619,13.241,2,7.256c0.316-4.973-1.291-13.126,2-17.333
			c1.367,5.471,1.731,13.102,3,20.559c0.485,2.854,0.84,2.024,1-1.613c0.947-4.186-2.121-9.991,2-12.899
			c0.125,2.676,1.643-0.441,3-0.806c0,1.942,0,5.263,0,8.062c0,2.381-0.799,6.749,1,6.047c0-0.404,0-0.807,0-1.209
			c4.641-3.639,1.764-10.307,5-14.512c0.771,1.794-1.855,8.041,2,6.046c0.639,1.49-1.295,4.016,1,4.837
			c3.32-3.902,0.467-10.292,4-14.108c-0.932,6.678,4.316,9.22,3,16.527c5.244-2.187-0.598-8.841,3-11.69
			c0.499,1.691-1.103,6.34,1,6.046c0.609-0.964-1.256-2.925,1-3.225c3.633,1.229,0.572,7.284,3,7.659
			c0.609-0.964-1.256-2.925,1-3.225c0.547,0.586-1.168,2.083,1,2.016c2.688-2.41-0.771-7.298,2-9.674
			c0.784,2.909,0.224,6.359,3,8.465c0.643-1.623-1.301-4.286,1-5.24c-0.138,3.285-0.115,8.639,2,9.674
			c0.697-1.601-1.743-4.465,2-4.837c0.547,0.586-1.168,2.083,1,2.016c0.661-3.765-1.326-8.597,1-11.69
			c0.062,4.546,0.482,11.089,2,13.706c0.595-0.836-1.236-2.648,1-2.822c2.038,2.434,2.826-1.921,4-1.612
			c1.884,0.495-2.795,5.223,1,2.016c0.609-0.964-1.255-2.925,1-3.225c0.575,0.708-1.209,2.368,1,2.419
			c0.207-1.663,2.012-0.709,3-2.419c0.647,1.888-1.308,4.827,1,6.046c0.016-1.069-0.555-2.374,2-2.418
			c0.032,1.748,2.219,4.73,3,4.837c0.619-1.094-1.27-3.198,1-3.628c-0.086,0.572-0.165,1.142,1,1.209
			c0.609-0.964-1.255-2.925,1-3.225c0.645,1.756-1.305,4.557,1,5.644c0.2-2.204,1.985-3.768,3-5.644
			c1.879,0.087,0.121,3.662,2,2.418c-0.517-4.529,0.863-1.817,3-4.031c0.621,1.497-1.626,4.149,2,4.435
			c0.575-0.709-1.209-2.368,1-2.419c-0.107,3.326,0.29,3.487,2,0.806c0.083,0.639-0.48,1.538,1,1.613c1.447-1.503,1.334-1.02,3,0
			c1.214-0.721,0.183-2.346,2-2.822c0.435,1.32-1.011,5.49,1,4.837c0.595-0.835-1.236-2.647,1-2.821
			c-0.132,0.53-0.151,2.917,1,1.612c0.311-1.219-1.11-3.135,2-3.225c2.396-0.16-0.555,1.836,3,1.209
			c2.085-1.041-0.354-3.905,2-4.837c-0.743,3.586,1.833,3.331,3,6.047c-0.696-1.815,2.056-1.077,3-0.404
			c0.633-1.357-1.288-3.745,1-4.434c0,2.284,0,4.569,0,6.853c2.955-0.958-0.955-4.685,2-5.643c0.083,0.639-0.48,1.538,1,1.613
			c0.655-2.558-1.318-6.175,1-8.062c1.029,2.541-2.241,6.816,2,8.062c0.083-0.639-0.48-1.538,1-1.613
			c0.547,0.586-1.169,2.083,1,2.015c0.547-0.585-1.169-2.083,1-2.015c-0.207,1.618,0.254,1.803,2,0.806
			c0.036,1.464-0.561,3.183,2,3.628c0.619-1.094-1.27-3.199,1-3.628c0.069,1.584,0.483,3.03,2,4.031c0,3.763,0,7.524,0,11.286
			c-3.47-0.189-0.573,2.188-3,2.419c-0.119-0.671,0.546-3.65-1-2.419c-0.619,1.095,1.27,3.199-1,3.629
			c2.89-1.776-3.353-2.828-2-1.21c-0.713-0.853,1.326-3.638-1-3.627c-0.638,1.489,1.295,4.015-1,4.837
			c-0.084-1.31-0.516-2.48-2-3.225c-0.016,1.068,0.555,2.373-2,2.418c-0.663-1.096-0.63-4.557-2-4.03
			c-0.621,1.496,1.626,4.148-2,4.435c0.155-1.543-0.052-2.937-2-3.629c0.159,3.375-2.168,3.604-3,6.852
			c0.108-3.133-0.228-6.088-2-8.465c0.207,1.159-0.254,2.048-2,2.42c-2.155-0.341,0.375-2.57-2-2.822
			c-1.755,1.442,0.155,4.362-2,5.645c-1.038-2.12-1.995-3.588-4-6.048c0.54,1.976-1.204,4.287-3,2.016
			c0.684,2.011-1.799,2.275-4,1.21c-0.638,1.488,1.295,4.015-1,4.837c-1.497-3.464-1.168-5.666-4-8.062
			c-1.861,3.549-1.195,8.118-3,11.69c0-2.553,0-5.106,0-7.658c-4.41-0.569-0.017,2.41-3,2.418c0.035-1.762,0.369-3.643-2-4.435
			c-2.109,0.855-1.379,2.906-3,4.837c0.05-2.035-0.39-3.873-2-5.239c-2.777,1.433,0.83,5.439-2,6.853
			c-1.168-2.082,2.439-6.09-2-6.853c-1.908,1.633-1.248,0.685-3-0.403c0.659,2.598-0.72,4.116-3,1.611
			c0.54,1.976-1.204,4.287-3,2.016c-1.072,1.584-0.217,3.944-2,5.241c0.438-1.386-0.395-2.259-1-3.226c0-1.209,0-2.418,0-3.627
			c0.58-0.821-0.682-3.177-1-1.21c1.535,1.392-0.927,5.941-2,5.644c-1.872-0.52,1.423-7.962-1-4.031
			c-0.651,2.156,1.312,5.366-1,6.854c-1.755-1.443,0.155-4.363-2-5.645c-1.483,1.284-0.006,3.76-2,4.838
			c0.033-1.652,0.301-9.615-1-5.643c-1.847,2.076-0.332,5.508-3,7.255c-0.119-0.67,0.547-3.65-1-2.419
			c-0.595,0.836,1.236,2.648-1,2.822c-0.42-1.847,1.287-4.551-2-5.24c0.176,1.294-2,7.637-2,2.418c0-1.383-0.092-7.355-1-2.016
			c-0.379,2.231,1.974,5.621-2,8.868c-0.044-1.739,0.559-4.997-2-2.418c-0.182-4.542,0.161-6.608-1-10.481
			c-1.062-3.543-2.28,5.934-3,8.062c-0.502,1.486,1.809,3.578-2,4.435c-3.51-6.285,0.768-11.888-2-17.736
			c-0.609-1.288-0.175,4.965-1,8.868c-1.012,4.785-3.359,8.201-4,13.303c-1.293-6.064-0.088-13.134-2-18.947
			c-2.125,1.832,0.39,5.533-2,7.257c-0.575-0.708,1.209-2.369-1-2.419c-2.922,3.928,1.736,10.912-3,14.109
			c-0.664-6.049,1.33-13.167-1-18.543c-0.661,2.779-0.419-0.515-2-0.807C67.453,35.015,68.666,42.49,65,48
			c-0.618-3.92,1.268-10.986-1-12.899c-0.627,1.226,1.28,3.472-1,4.031c0.58-1.309-0.682-1.875-1-2.821c0-1.075,0-2.15,0-3.226
			c0-0.537,0-1.075,0-1.612c-2.235,2.864-0.693,10.736-3,14.915c-0.906-2.054,2.062-5.668-2-6.45c-0.595,0.835,1.236,2.648-1,2.822
			c-0.58-4.789,0.814-8.177,0-11.287c-1.195-4.564-0.307,6.2-2,7.256c-0.657-2.825,1.32-6.714-1-8.868
			C48.245,30.957,53.942,24.385,48,24.62z"/>
	</g>
</g>
</svg>
