<?xml version="1.0" encoding="utf-8"?>
<!-- Generator: Adobe Illustrator 15.0.0, SVG Export Plug-In . SVG Version: 6.00 Build 0)  -->
<!DOCTYPE svg PUBLIC "-//W3C//DTD SVG 1.1//EN" "http://www.w3.org/Graphics/SVG/1.1/DTD/svg11.dtd">
<svg version="1.1" id="Layer_1" xmlns="http://www.w3.org/2000/svg" xmlns:xlink="http://www.w3.org/1999/xlink" x="0px" y="0px"
	 width="800px" height="500px" viewBox="0 0 800 500" enable-background="new 0 0 800 500" xml:space="preserve">
<path fill-rule="evenodd" clip-rule="evenodd" d="M483.603,349.15c-8.241,15.354-25.194,21.998-36.561,34.228
	c7.573-5.753,26.222-15.234,33.449-24.893C482.163,356.251,483.536,353.273,483.603,349.15z"/>
<path fill-rule="evenodd" clip-rule="evenodd" d="M307.208,91.608c-15.418-2.352-35.452-0.399-47.428,4.125
	C271.394,98.347,293.907,94.164,307.208,91.608z"/>
<path fill-rule="evenodd" clip-rule="evenodd" d="M485.575,111.198c8.134,14.894,20.058,34.928,19.59,61.861
	C512.946,145.939,497.014,125.851,485.575,111.198z"/>
<path fill-rule="evenodd" clip-rule="evenodd" d="M292.773,143.16c-3.113,3.285,0.45,7.748,0,12.372
	c-1.757,18.044-19.492,40.943-3.094,57.737c0.401-9.438-3.754-10.417-4.125-18.559C284.62,174.108,305.345,155.522,292.773,143.16z"
	/>
<path fill-rule="evenodd" clip-rule="evenodd" d="M593.833,166.873c-2.221,9.12-6.65,16.033-8.248,25.776
	C591.428,187.151,594.408,178.789,593.833,166.873z"/>
<path fill-rule="evenodd" clip-rule="evenodd" d="M184.516,198.835c-1.031,0-2.062,0-3.092,0c-0.927,4.706,1.716,5.843,2.061,9.278
	C185.825,207.018,183.877,201.632,184.516,198.835z"/>
<path fill-rule="evenodd" clip-rule="evenodd" d="M494.854,216.362c-3.967-2.211-9.374,2.97-12.373,5.155
	C486.17,223.449,491.87,218.562,494.854,216.362z"/>
<path fill-rule="evenodd" clip-rule="evenodd" d="M116.468,287.503c-1.754-0.379-1.945,0.804-2.062,2.062
	c2.966,5.282,2.881,13.616,5.155,19.591c0.352,8.604,1.339,0.831,1.031-4.125C120.218,299.01,117.469,289.938,116.468,287.503z"/>
<path fill-rule="evenodd" clip-rule="evenodd" fill="#FFFFFF" d="M514.445,307.092c2.041,5.175,7.668,6.767,11.341,10.311
	c5.019-1.854,5.256-8.491,8.247-12.372C529.615,293.835,521.212,305.662,514.445,307.092z"/>
<path fill-rule="evenodd" clip-rule="evenodd" d="M157.709,308.123c-1.198-0.168-1.835,0.228-2.063,1.032
	c2.905,12.904,14.044,17.574,20.621,26.806c0.508,4.631-0.521,7.726-1.03,11.341c5.473-7.588,10.876-15.242,18.559-20.62
	c-5.453,0.39-8.053,3.633-12.371,5.155C169.993,327.458,162.364,319.276,157.709,308.123z"/>
<path fill-rule="evenodd" clip-rule="evenodd" d="M296.897,313.278c-9.843,14.531-41.703,4.613-56.707,2.062
	c13.471,10.587,41.976,6.139,59.8,12.372c2.372,2.095,2.768,6.169,3.093,10.31c6.438-7.461-2.778-14.365-7.217-17.526
	C296.194,318.075,297.494,316.626,296.897,313.278z"/>
<path fill-rule="evenodd" clip-rule="evenodd" d="M442.272,39.026c-5.843,0-11.685,0-17.528,0
	C413.515,37.628,409.083,50.503,400,53.46c-14.855,4.838-37.106,0.785-58.769,3.093c-10.654,1.135-21.407,6.891-29.898,7.217
	c-8.101,0.312-15.456-3.821-22.684-3.093c-16.885,1.7-30.881,23.787-48.459,28.868c-8.43,2.438-15.719,1.525-20.621,4.125
	c-8.378,4.444-14.06,16.018-16.495,22.682c-19.114,4.43-26.177,20.159-39.179,34.024c-11.714,12.489-22.811,20.144-25.775,39.179
	c-16.767,5.662-23.065,21.519-31.964,40.208c-9.011,18.931-14.172,35.356-15.464,61.863c0,4.123,0,8.248,0,12.371
	c0.345,0,0.688,0,1.03,0c3.629,24.066,7.605,61.713,32.994,67.017c6.771,1.415,17.882-2.01,26.806-2.062
	c18.1-0.105,37.903,8.321,52.583,8.248c20.598-0.102,39.911-10.635,59.799-6.187c21.614,4.835,45.08,26.461,73.203,26.807
	c7.346,0.091,16.768-3.382,24.744-2.062c28.7,4.749,41.884,37.755,62.893,51.551c15.934,10.464,28.612,15.809,49.49,22.684
	c4.812,0,9.622-0.001,14.434,0c12.662,0.648,20.063-11.857,29.9-16.498c6.732-3.176,14.458-3.007,20.62-6.186
	c17.532-9.041,31.036-26.313,34.024-48.457c31.68,2.992,78.425,14.07,89.699-14.436c-9.422-3.638-23.27-2.85-31.963-7.217
	c46.916-2.23,76.4-21.893,78.358-69.079c0-6.872,0-13.747,0-20.62c-1.702-19.506-9.622-42.293-18.559-61.861
	c-9.981-21.858-18.132-46.045-31.962-61.862c-10.442-11.942-27.487-21.057-42.272-34.024
	c-14.059-12.331-26.738-25.199-42.271-34.023c-15.763-8.955-35.216-16.23-52.583-23.714c-18.261-7.868-35.426-18.544-51.551-24.745
	C460.521,43.587,448.36,40.584,442.272,39.026z M555.686,206.052c11.899,15.25,19.137,35.164,38.147,43.303
	c-2.131,8.523-9.003,12.304-14.435,17.527c-23.341-6.56-17.223-42.577-31.962-57.737c-3.49-0.29-5.92-1.64-10.31-1.032
	c1.571-29.512,9.553-65.773,1.029-92.792c-3.782-4.198,4.848-7.44,0-9.279c-8.845,7.518,1.314,20.318,2.063,31.961
	c1.577,24.513-5.372,53.721-11.342,72.172c-16.427-13.909-31.308-31.681-44.333-49.489c-13.217-18.069-24.625-39.785-20.62-71.141
	c31.533,2.996,68.822-3.115,87.636,14.435c5.568,5.194,8.297,14.154,14.435,20.621c21.429,22.575,55.408,38.761,74.233,59.799
	c11.331,12.661,11.804,35.03,23.714,45.364c8.421,7.307,17.599,12.121,23.713,20.621c-5.422-16.447-25.006-21.828-31.961-36.085
	c-2.373-4.864-1.191-10.366-3.093-15.465c-5.448-14.604-21.71-26.43-34.025-36.086c-13.313-10.441-29.007-20.675-40.209-30.931
	c-10.151-9.293-18.735-24.581-28.868-31.962c-21.017-15.31-63.926-9.676-87.638-15.464c-5.882-1.438-17.413-14.953-14.434-24.745
	c4.934-16.218,32.396-4.568,43.304,1.031c25.206,12.94,57.447,24.723,79.388,37.116c17.425,9.844,30.308,19.908,44.334,32.993
	c13.906,12.972,31.69,22.062,43.303,35.056c7.643,8.551,9.03,18.893,13.404,28.868c5.975,13.626,15.314,26.156,21.651,41.241
	c21.111,50.263,23.489,144.922-53.613,136.096c0.31-25.587,36.061-10.952,46.396-27.838c2.56-4.183,1.771-9.017,3.093-12.373
	c3.507-8.891,11.104-14.399,13.403-27.838c-5.702,6.669-7.5,17.245-13.403,23.714c-17.444-1.493-19.188-24.066-16.497-42.271
	c6.891-3.562,11.805,1.288,16.497,3.093c-0.824-7.422-11.152-5.344-15.464-9.279c-3.858-24.323-11.014-45.352-39.18-45.366
	c-1.988-6.947,0.979-18.85-6.188-20.62c10.042,28.55-9.115,49.252-15.464,71.141c10.586-12.44,14.729-31.324,23.714-45.365
	c33.233-5.915,37.548,43.602,24.744,65.985c3.682-0.294,4.086-7.534,8.249-4.125c2.217,16.86-2.195,34.51-15.466,38.149
	c-14.2,3.895-43.247,0.939-63.924,0c-14.786-0.673-28.242-1.669-40.21-1.032c-5.208-7.759-17.136-10.352-17.527-20.62
	c-0.749-19.598,30.091-21.637,51.551-23.713c-15.27-4.707-35.613,0.833-46.396,7.216c-2.654-1.813-4.452-4.483-7.218-6.185
	c1.056-22.66,7.562-45.362,9.279-63.924c-1.986,2.001-4.148-1.085-7.217-1.032c-0.813,23.345,0.412,73.399-17.526,74.234
	c-6.332,0.296-14.983-8.066-18.56-11.341c-8.225-7.529-22.354-20.821-25.776-30.93c-4.713-13.921,7.947-22.792,9.279-35.056
	c1.321-12.162-3.788-22.612-16.496-25.775c16.369,6.964,12.132,22.743,7.217,41.241c-2.674,10.067-3.621,22.64-12.371,21.652
	c-7.617-4.287-4.544-15.318-5.156-22.683c-2.054-24.67-15.765-48.967-17.527-75.265c-0.474-7.074,0.316-13.653,0-20.621
	c-1.685-37.099-21.184-63.961-26.807-94.855c7.181-10.818,30.553-10.263,44.334-6.185c0.1,10.065-8.327,11.604-10.31,19.589
	c2.722,10.897,12.412,17.951,15.466,26.806c5.133,14.893,3.11,31.898,7.216,43.304c12.156,33.767,40.6,49.174,58.77,79.389
	c-10.898,9.723-12.908,28.333-21.651,40.209c15.976-12.549,12.23-44.817,43.302-42.271c14.518,15.744,5.975,36.609,21.652,52.583
	c13.691,13.95,48.822,17.152,37.117,47.427c-6.923,4.076-18.292,3.704-26.808,6.186c29.993-0.938,55.605-6.257,67.017-25.774
	c-10.75,7.119-19.893,15.849-35.055,18.557c0.705-23.043-9.159-35.518-26.806-40.209c8.423-14.946,24.19-22.548,25.775-44.334
	c-6.078,4.576-4.83,16.479-12.373,19.589C574.783,239.879,571.689,216.511,555.686,206.052z M404.124,55.522
	c10.595,27.705,26.223,55.193,27.837,90.73c0.281,6.184-0.421,12.384,0,18.558c2.06,30.192,18.61,56.555,17.528,86.606
	c-13.208-11.113-33.128-15.775-61.862-21.652c-16.806-3.435-45.629-3.29-47.427-16.496c-2.107-15.465,15.658-21.492,20.622-28.869
	c-7.769,1.856-10.594,8.653-19.591,9.279c-3.487-9.199-0.206-23.401,2.062-32.993c-12.725,11.864-1.552,41.936-6.187,60.83
	c-10.296,3.412-17.641,10.014-30.931,5.155c9.116,7.037,21.944,10.362,27.838,20.622c1.195,14.33-3.076,32.64-11.342,32.991
	c-31.938,1.358-54.131-30.473-64.954-50.521c-7.108-13.166-9.766-35.274-26.807-32.992c12.624,3.391,14.657,16.092,19.59,26.807
	c11.011,23.927,29.021,42.071,49.488,55.676c1.021,3.104,3.647,4.601,3.093,9.279c8.188-13.623,26.172,1.165,38.148,8.248
	c11.614,6.87,21.689,10.826,29.899,15.466c-5.571,15.047-21.562,19.678-37.116,24.744c-3.261-9.112-4.278-20.468-8.249-28.869
	c-0.232,11.575,3.07,19.614,4.124,29.899c-6.049,18.729-50.27,22.601-68.048,7.217c-4.526-3.918-4.009-10.112-9.279-11.341
	c6.748,20.786,37.121,29.609,61.861,22.684c9.194,9.022,26.301,15.624,44.334,12.372c-15.817-1.71-31.517-3.537-40.21-12.372
	c12.248-23.841,53.825-18.349,57.738-50.521c7.784,17.993,18.495,38.554,34.025,45.366c-8.527-12.364-27.149-25.108-28.87-44.336
	c-1.37-15.308,10.051-26.231,14.435-37.116c-11.882,5.646-13.045,22.01-20.621,31.962c-3.84,0.926-10.229,1.81-15.465,1.031
	c-7.566-1.127-31.138-12.844-31.961-19.59c-0.893-7.317,11.799-18.905,11.34-29.9c-0.484-11.632-14.799-12.69-14.434-24.745
	c16.13-3.52,40.671-0.207,62.892,4.125c29.945,5.836,67.055,11.838,67.019,40.211c-0.03,23.013-24.52,28.221-44.334,34.022
	c10.681,3.467,23.831-3.95,34.022-1.03c2.025,11.401,2.748,16.875,10.312,20.62c13.439,6.655,37.596,3.924,36.086,23.714
	c-0.335,4.377-6.044,9.488-9.28,15.466c-5.951,10.988-8.468,19.78-21.651,20.62c10.943-2.009,8.198,9.673,13.402,13.402
	c0.507-4.629-0.521-7.724-1.03-11.341c11.112-8.774,9.893-31.29,23.714-35.054c9.883-2.692,32.558,14.027,36.086,29.899
	c2.562,11.525-2.332,21.355,1.03,31.962c9.329-35.296-9.018-59.33-35.055-65.986c-5.323-5.672-10.029-11.966-13.402-19.589
	c-11.285-3.15-27.142-1.729-34.024-9.279c-7.496-22.557,4.033-35.777,9.279-53.613c15.703,5.19,32.604,23.562,38.147,38.147
	c1.645,4.326-1.355,10.639,5.154,12.372c0.296-6.137-2.146-9.538-3.092-14.434c28.051,19.376,59.3,35.555,65.985,76.295
	c-2.547,5.701-7.863,8.634-10.31,14.435c5.597-1.152,7.935-10.322,13.402-8.248c5.969,33.717-20.898,63.925-50.52,64.955
	c-19.765,0.688-25.828-12.979-26.808-30.931c-3.691,23.471-26.558,35.164-49.488,30.931c-31.776-5.868-42.747-48.85-72.172-55.676
	c4.502-7.183,12.493-10.876,19.589-15.466c17.303,16.033,43.517,23.157,59.8,40.211c-1.53,4.572-13.846,2.98-11.341,8.247
	c33.071-7.975-2.447-22.501-16.496-30.93c-13.495-8.097-24.721-14.529-28.87-23.714c13.34-8.313,31.388-11.916,50.521-14.435
	c-18.888-1.36-33.063,1.989-45.364,7.218c-5.48-11.531-28.609-23.316-42.272-13.404c11.609,0.27,37.2-0.541,37.116,14.435
	c-0.045,8.325-20.789,23.936-35.055,25.776c-7.538,0.973-25.522,1.259-34.023,0c-28.912-4.283-48.376-32.554-88.668-26.807
	c-5.898,0.841-12.446,5.274-21.652,6.187c-10.516,1.041-25.121-3.297-41.241-4.125c-28.833-1.479-53.338,4.727-63.921-10.311
	c-9.437-13.403-18.77-57.429-12.374-73.202c5.054-12.463,11.832-27.854,17.527-40.21c1.361-2.954,2.266-10.071,7.218-8.249
	c1.479,7.688-2.846,14.998,0,20.621c3.729-17.579,5.098-37.518,25.775-38.148c10.334,23.001,28.787,37.886,44.334,55.675
	c-5.174-9.324-12.525-16.322-19.59-24.743c-6.18-7.366-17.183-16.689-19.59-24.745c-7.792-26.1,32.935-42.957,48.458-52.583
	c2.786,0.308,1.849,4.338,4.125,5.155c0.229-15.923,14.294-18.011,27.837-20.621c2.979,2.92-3.631,8.949,0,12.373
	c7.884-31.296,42.381-35.977,82.481-35.055c2.41,2.353-3.676,8.903-1.03,11.341c8.722-16.122,20.902-31.715,39.179-28.869
	c12.059,1.878,20.15,22.277,27.838,35.055c7.84,13.03,20.715,28.225,21.651,37.116c1.133,10.747-8.068,18.877-4.123,27.838
	c-0.875-11.036,8.066-15.973,8.247-24.745c0.254-12.171-12.474-19.392-14.436-31.962c3.527-7.04,6.621,3.677,9.282-1.031
	c-1.666-7.489-8.485-4.463-13.405-2.062c-5.265-7.45-11.309-14.122-11.341-26.807c2.576-5.685,14.116-7.861,14.435-12.372
	c-8.76,1.551-11.867,8.754-19.59,11.341c-7.009-16.36-29.777-16.961-36.087-34.023c9.482,0.544,17.34-0.534,21.653-5.156
	c-8.248,0-16.497,0-24.745,0c-6.696-6.363-12.783-13.337-16.496-22.683c11.281-2.239,29.484-12.497,40.21-5.155
	c-3.595,6.373-16.329,3.604-18.559,11.341C358.452,66.213,375.911,55.492,404.124,55.522z M256.688,83.36
	c10.192-6.882,16.612-14.003,26.807-19.589c36.285,0.145,43.216,29.644,59.8,49.489c-10.527,3.601-19.394,13.413-29.9,16.496
	c-23.605,6.931-48.755-0.222-67.017,11.342c-3.863,2.445-6.777,8.234-12.372,11.341c-5.395,2.993-12.456,2.766-18.559,5.155
	c-25.85,10.123-56.18,34.823-68.047,56.707c-17.131,4.025-30.434,16.116-37.117,29.9c-4.809,9.916-4.151,23.842-14.435,30.931
	c-1.05-15.73,7.265-31.963,13.402-45.366c6.086-13.285,11.276-30.585,25.776-35.054c1.421,3.259-2.553,6.223,0,7.217
	c8.858-16.514,10.46-33.756,24.744-44.334c11.138-8.247,25.77-7.661,40.21-14.434c-10.057,0.251-18.18,2.44-26.807,4.124
	c4.092-24.777,32.709-25.028,55.675-30.931c-6.179-2.068-16-0.495-21.65-3.093C213.979,91.958,239.24,95.142,256.688,83.36z
	 M534.033,305.03c-2.991,3.881-3.229,10.519-8.247,12.372c-3.673-3.544-9.3-5.136-11.341-10.311
	C521.212,305.662,529.615,293.835,534.033,305.03z M662.912,336.992c4.846-3.705,4.427-10.107,10.311-13.402
	c5.853,4.049,10.728,5.875,10.31,14.433c-0.51,10.429-11.562,12.607-22.683,13.405c-13.521,0.968-35.771,0-55.676,0
	c-21.666,0-46.98,3.956-48.458-8.25C586.643,335.177,639.904,354.573,662.912,336.992z M586.615,374.109
	c20.242-4.11,26.721-20.466,50.521-18.559c1.033-0.004,1.228,0.835,2.062,1.031c0.629,0.059,1.219,0.154,1.03,1.03
	c-0.732,18.172-19.895,20.105-37.116,24.745c-12.188,3.282-32.627,9.761-32.993-5.155C576.214,372.61,581.2,375.209,586.615,374.109
	z M611.359,356.582c-3.002,11.092-22.548,14.564-39.179,15.466c-4.62-3.285-7.962-7.849-8.247-15.466
	C577.797,355.271,597.611,354.591,611.359,356.582z M657.756,385.45c-1.754,13-20.213,16.412-38.147,15.466
	c-16.977-0.896-40.452-1.547-47.428-9.279C598.798,386.756,628.662,375.902,657.756,385.45z M490.731,437.001
	c3.606,8.422,12.462,11.597,18.558,17.528c-9.896,20.435-52.054,14.331-62.894-1.032
	C468.908,455.733,478.069,444.617,490.731,437.001z"/>
<path fill-rule="evenodd" clip-rule="evenodd" d="M192.764,234.921c2.649-0.1,1.474-4.024,4.125-4.124
	c12.803,12.972,15.039,36.511,18.558,58.768c-15.543-6.11-56.896,4.66-64.954-12.372c-2.58-9.793-3.575-21.169-10.311-26.807
	c4.256,7.954,3.364,21.965,8.25,29.899c10.956,17.803,42.559,3.863,63.921,11.343c0.488,9.134-1.099,20.345,1.031,27.836
	c5.27-4.045-0.348-17.033,2.062-21.651c12.759-9.236,43.208-0.78,57.737-8.248c-12.133-2.762-36.675,4.663-52.582-1.03
	c-7.032-29.397-14.945-57.915-34.023-75.265C185.33,215.733,194.097,225.547,192.764,234.921z"/>
<path fill-rule="evenodd" clip-rule="evenodd" d="M144.306,355.551c-6.681-6.38-16.3-9.819-14.434-24.746
	c-2.383-2.528-3.002,3.778-8.249,4.126c-24.594,1.621-21.329-78.704,12.372-53.614c-5.426-10.079-22.994-8.18-27.839,1.032
	c-4.665,8.873-4.515,35.318,0,45.364c2.869,6.378,12.995,10.229,18.561,14.436C132.175,347.784,136.402,354.876,144.306,355.551z"/>
</svg>
