<?xml version="1.0" encoding="utf-8"?>
<!-- Generator: Adobe Illustrator 15.0.0, SVG Export Plug-In . SVG Version: 6.00 Build 0)  -->
<!DOCTYPE svg PUBLIC "-//W3C//DTD SVG 1.1//EN" "http://www.w3.org/Graphics/SVG/1.1/DTD/svg11.dtd">
<svg version="1.1" id="Layer_1" xmlns="http://www.w3.org/2000/svg" xmlns:xlink="http://www.w3.org/1999/xlink" x="0px" y="0px"
	 width="100px" height="100px" viewBox="0 0 100 100" enable-background="new 0 0 100 100" xml:space="preserve">
<path fill-rule="evenodd" clip-rule="evenodd" fill="#EEEEEE" d="M53.753,20.831c20.979-0.005,11.053,30.896,24.837,38.085
	c2.248-0.513,1.376-4.146,1.657-6.624c2.688,1.127,5.012,11.939,4.967,1.656c4.05,1.64,4.448,10.088-1.655,9.935
	c-0.172,5.14,5.209,4.726,3.311,11.591c-4.675,4.155-9.515,8.148-16.558,9.935C73.715,91.455,69.567,92.846,67,97
	c-8.146-6.034-25.931-15.003-38.085-6.623c-4.998-8.8-14.62-12.979-21.526-19.871c0.228-3.084,1.09-5.533,3.312-6.623
	c-1.874-4.195-7.983-4.158-6.624-11.591c2.424-3.842,5.249,3.234,4.968-3.312c4.35,1.17,3.268,7.772,6.623,9.936
	c3.872-0.546,6.842-1.991,9.936-3.312c0-8.279,0-16.558,0-24.837c5.064-3.215,9.767-6.792,16.558-8.279
	C28.385-5.262,66.749-6.891,53.753,20.831z"/>
</svg>
