<?xml version="1.0" encoding="utf-8"?>
<!-- Generator: Adobe Illustrator 15.0.0, SVG Export Plug-In . SVG Version: 6.00 Build 0)  -->
<!DOCTYPE svg PUBLIC "-//W3C//DTD SVG 1.1//EN" "http://www.w3.org/Graphics/SVG/1.1/DTD/svg11.dtd">
<svg version="1.1" id="Layer_1" xmlns="http://www.w3.org/2000/svg" xmlns:xlink="http://www.w3.org/1999/xlink" x="0px" y="0px"
	 width="800px" height="500px" viewBox="0 0 800 500" enable-background="new 0 0 800 500" xml:space="preserve">
<circle opacity="0.68" fill="#F05F98" cx="365" cy="250" r="187.713"/>
<text transform="matrix(1 0 0 1 85 75.4375)" fill="#262E3B" font-family="'TrumpGothicEast'" font-size="52">PROGRAMMING</text>
<g id="Favorite">
	<circle opacity="0.68" fill="#51C2B9" cx="435" cy="250" r="187.713"/>
	<text transform="matrix(1 0 0 1 542 75.4375)" fill="#262E3B" font-family="'TrumpGothicEast'" font-size="52">EXECUTIVE FUNCTION</text>
	<path fill="#FFFFFF" d="M414.697,219.515c0.904,0,1.867,0.049,2.898,0.149c6.27,0.612,13.52,6.353,14.404,17.353v3.661
		c-0.822,10.528-8.771,23.515-32,39.808c-23.229-16.293-31.177-29.279-31.999-39.808v-3.661c0.883-11,8.133-16.74,14.402-17.353
		c1.03-0.101,1.994-0.149,2.898-0.149c7.244,0,10.72,3.131,14.698,7.872C403.979,222.646,407.451,219.515,414.697,219.515"/>
</g>
</svg>
